<?xml version="1.0" encoding="UTF-8"?>
<svg id="uuid-c767fe87-29bb-4179-9a78-1e98693f3760" data-name="Capa 2" xmlns="http://www.w3.org/2000/svg" viewBox="0 0 718.3154219 67.4042553">
  <defs>
    <style>
      .uuid-ab604e5d-8728-4976-bd81-6df9240caa7f {
        fill: #000;
        opacity: .22;
      }

      .uuid-ab604e5d-8728-4976-bd81-6df9240caa7f, .uuid-bc5e2d8d-f97e-42e2-bc18-c51387d98109 {
        stroke-width: 0px;
      }

      .uuid-bc5e2d8d-f97e-42e2-bc18-c51387d98109 {
        fill: #fff;
      }
    </style>
  </defs>
  <g id="uuid-99b41841-9c69-406f-a101-9d27b022bb39" data-name="Capa 1">
    <rect class="uuid-ab604e5d-8728-4976-bd81-6df9240caa7f" width="718.3154219" height="67.4042553"/>
    <g>
      <path class="uuid-bc5e2d8d-f97e-42e2-bc18-c51387d98109" d="M42.6422522,23.1704725c5.6552734,0,8.2294922,2.8081055,8.2294922,6.5522461,0,5.7724609-4.7973633,8.5415039-9.3603516,8.5415039-.3510742,0-1.0922852-.078125-1.5600586-.1953125l-2.5742188-.5849609-1.1699219,6.3183594c-.5458984,2.925293-.3901367,3.3540039,3.1982422,3.6269531l-.1953125,1.0922852h-10.5693359l.2338867-1.0922852c3.0424805-.2729492,3.5102539-.5068359,4.0952148-3.7441406l3.0810547-15.8344727c.5849609-3.0419922.3901367-3.2758789-3.0029297-3.5878906l.2338867-1.0922852h9.3603516ZM37.6500647,36.1968397c.5458984.15625,1.7939453.5073242,3.1982422.5073242,2.8081055,0,6.5131836-1.6772461,6.5131836-6.9814453,0-3.3149414-1.7939453-5.2651367-4.953125-5.2651367-2.0283203,0-2.6914062.5458984-2.9643555,2.184082l-1.7939453,9.5551758Z"/>
      <path class="uuid-bc5e2d8d-f97e-42e2-bc18-c51387d98109" d="M53.093424,34.6372694c1.949707-2.3012695,4.0170898-3.7055664,5.1479492-3.7055664,1.3261719,0,1.2089844,2.0673828.4682617,5.4213867l-.234375,1.0532227c2.1064453-3.5883789,4.7973633-6.4746094,6.3574219-6.4746094.9360352,0,1.7939453.7802734,1.7939453,1.7553711,0,.8579102-.8188477,2.027832-1.5209961,2.4960938-.3510742.2338867-.6630859.2338867-.8579102,0-.4291992-.4682617-.8188477-1.1313477-1.2871094-1.1313477-.8969727,0-2.8081055,2.769043-3.7050781,4.3681641-1.3652344,2.4575195-2.0668945,6.0454102-2.847168,9.7895508-.8579102.15625-2.0668945.5068359-2.847168.7802734l-.2729492-.2734375c.9360352-3.5878906,2.3012695-9.5161133,2.847168-12.3632812.4291992-2.184082.3120117-2.5351562.0390625-2.5351562-.3901367,0-1.3652344.6240234-2.5351562,1.7939453l-.5458984-.9746094Z"/>
      <path class="uuid-bc5e2d8d-f97e-42e2-bc18-c51387d98109" d="M71.9303381,48.9898084c-1.8720703,0-4.4072266-1.0922852-4.4072266-5.8115234,0-3.6269531,1.5600586-7.9560547,4.6411133-10.2182617,1.7553711-1.2480469,3.5883789-2.0283203,5.265625-2.0283203,2.2226562,0,3.4707031,1.4042969,3.4707031,3.1201172,0,3.9003906-5.7329102,5.7333984-10.1010742,6.5131836-.0390625.4682617-.078125,1.2480469-.078125,1.6381836,0,2.262207.6240234,4.4462891,3.0419922,4.4462891,1.7553711,0,3.8613281-1.0922852,5.7724609-3.0810547l.5849609.9750977c-3.1591797,3.6660156-6.2402344,4.4462891-8.1904297,4.4462891ZM70.9552405,39.2783826c5.6552734-1.0141602,6.9814453-2.8081055,7.0205078-4.6025391,0-1.3256836-.7802734-2.0668945-2.0283203-2.0668945-1.1699219,0-3.8608398.8579102-4.9921875,6.6694336Z"/>
      <path class="uuid-bc5e2d8d-f97e-42e2-bc18-c51387d98109" d="M94.0431311,33.0381483c0,.6625977-.5458984,1.5600586-1.2089844,1.8720703-.3510742.1557617-.5849609.0776367-.8969727-.2729492-1.0532227-1.2094727-2.0283203-1.7553711-2.925293-1.7553711-1.0141602,0-2.105957.8188477-2.105957,2.2231445,0,1.2871094,1.1699219,2.2231445,2.5737305,3.3149414,2.340332,1.8334961,3.3544922,2.847168,3.3544922,4.5634766,0,3.1977539-4.0561523,6.0063477-7.215332,6.0063477-1.8720703,0-3.6660156-1.2871094-3.6660156-2.6523438,0-.8579102.9360352-1.9111328,1.5991211-1.9892578.2729492-.0390625.4287109.1171875.6625977.3901367.9750977,1.4042969,2.1450195,2.262207,3.4321289,2.262207,1.5991211,0,2.5742188-1.1699219,2.5742188-2.4179688,0-.9360352-.4287109-1.8720703-2.262207-3.3935547-1.8330078-1.4428711-3.4321289-2.534668-3.3930664-4.5629883,0-1.1699219.4682617-2.4570312,2.0283203-3.7832031,1.2480469-1.1308594,3.0419922-1.9111328,4.3681641-1.9111328,1.7158203,0,3.0810547,1.0141602,3.0810547,2.1064453Z"/>
      <path class="uuid-bc5e2d8d-f97e-42e2-bc18-c51387d98109" d="M103.4806311,45.1284803c-1.949707,2.6132812-4.4072266,3.8613281-5.5771484,3.8613281-1.0136719,0-1.4428711-1.0141602-.7021484-4.1342773.6240234-2.5742188,1.7163086-6.7475586,2.4575195-9.9067383.1557617-.7407227.1166992-1.0917969-.1171875-1.0917969-.3901367,0-1.5600586.7802734-2.5742188,1.7548828l-.5068359-1.0136719c1.8330078-1.9892578,4.4848633-3.6665039,5.7329102-3.6665039.9750977,0,1.0141602,1.3261719.3125,4.2124023-.7412109,2.8081055-1.6772461,6.7470703-2.3793945,9.5161133-.2729492,1.0532227-.2729492,1.4824219,0,1.4824219.3901367,0,1.4428711-.5463867,2.8081055-1.9892578l.5458984.9750977ZM104.5729162,24.6914686c0,1.2094727-.8579102,2.262207-2.0668945,2.262207-.9750977,0-1.7163086-.7021484-1.7163086-1.7548828,0-1.0141602.7797852-2.3012695,2.184082-2.3012695,1.0532227,0,1.5991211.8188477,1.5991211,1.7939453Z"/>
      <path class="uuid-bc5e2d8d-f97e-42e2-bc18-c51387d98109" d="M122.0836584,37.0161756c0,4.0561523-2.027832,8.2294922-5.4604492,10.4130859-1.4038086.8583984-3.0419922,1.5605469-4.796875,1.5605469-3.7050781,0-5.2260742-2.9643555-5.2260742-6.0844727,0-5.3823242,2.8857422-9.2431641,6.2788086-10.9204102,1.2480469-.6240234,2.847168-1.0532227,4.0175781-1.0532227,3.2758789,0,5.1870117,2.1450195,5.1870117,6.0844727ZM109.9152014,42.4761366c0,2.925293,1.0917969,4.8754883,3.2373047,4.8754883,3.7050781,0,5.6552734-5.9672852,5.6552734-10.1796875,0-3.2368164-1.4042969-4.6020508-3.2763672-4.6020508-3.9003906,0-5.6162109,5.8891602-5.6162109,9.90625Z"/>
      <path class="uuid-bc5e2d8d-f97e-42e2-bc18-c51387d98109" d="M142.8702795,45.0112928c-2.0668945,2.7304688-4.4462891,3.9785156-5.5771484,3.9785156-1.0527344,0-1.5991211-.9365234-.8579102-4.1342773.7021484-2.769043,1.3647461-5.5385742,1.9501953-7.9956055.6240234-2.5351562.4677734-3.3930664-.5073242-3.3930664-1.2871094,0-4.2900391,2.184082-6.9423828,6.2402344-.7016602,1.0532227-1.0136719,2.0673828-1.3256836,3.2763672-.3901367,1.5209961-.8969727,3.6269531-1.2089844,5.2260742-.9750977.1948242-2.0283203.5068359-2.769043.7802734l-.2734375-.2734375c1.0922852-4.2509766,2.2231445-9.0092773,3.1982422-13.3383789.2729492-1.2089844.1171875-1.5600586-.1948242-1.5600586-.4291992,0-1.4042969.8579102-2.3793945,1.7939453l-.5458984-1.0136719c1.7939453-2.262207,3.8222656-3.6665039,5.109375-3.6665039,1.1308594,0,1.4428711,1.3652344.6240234,4.7583008l-.5458984,2.3012695c3.4707031-4.5244141,6.980957-7.0595703,9.3212891-7.0595703,1.2871094,0,2.4960938.8969727,1.2480469,6.1235352-.5073242,2.1450195-1.2480469,5.1479492-1.8330078,7.6049805-.234375,1.0532227-.234375,1.5209961.0385742,1.5209961.3510742,0,1.4824219-.6240234,2.8862305-2.105957l.5849609.9360352Z"/>
      <path class="uuid-bc5e2d8d-f97e-42e2-bc18-c51387d98109" d="M162.6822912,45.0112928c-1.9111328,2.5742188-4.3291016,3.9785156-5.4208984,3.9785156-1.0922852,0-1.5600586-.8974609-.8583984-4.4462891l.5463867-2.6914062c-1.4433594,2.3793945-3.5102539,4.3291016-4.6801758,5.265625-1.2480469,1.0136719-2.7304688,1.8720703-4.0170898,1.8720703-1.3652344,0-2.4960938-1.6772461-2.4960938-4.8364258,0-3.6660156,1.6767578-7.722168,4.3291016-10.1401367,2.027832-1.8720703,4.8359375-3.081543,7.4492188-3.081543,1.9887695,0,3.7832031.5854492,4.5239258.6630859-.7016602,2.4570312-2.0668945,8.4633789-2.8081055,12.8706055-.1948242,1.0917969-.1166992,1.5209961.1953125,1.5209961.4677734,0,1.2871094-.5068359,2.690918-1.9501953l.5458984.9750977ZM155.6232092,41.7744764c.8579102-1.0922852,1.8720703-3.0424805,2.262207-4.6801758.3896484-1.4824219.7407227-2.8862305.8579102-3.8222656-.5458984-.2729492-1.8330078-.6240234-2.9643555-.6240234-4.6020508,0-6.7470703,5.9282227-6.7470703,10.9985352,0,1.5600586.4291992,2.5737305,1.2089844,2.5737305,1.2089844,0,2.925293-1.2089844,5.3823242-4.4458008Z"/>
      <path class="uuid-bc5e2d8d-f97e-42e2-bc18-c51387d98109" d="M187.7980139,24.2627576c-3.2763672.2729492-3.5883789.5068359-4.1342773,3.3540039l-3.1201172,16.3417969c-.5849609,2.9638672-.2338867,3.2368164,3.0419922,3.4707031l-.1948242,1.0922852h-10.4135742l.2338867-1.0922852c3.1591797-.2729492,3.5102539-.5458984,4.0952148-3.4707031l3.1591797-16.3417969c.5458984-2.8862305.2338867-3.0810547-3.0419922-3.3540039l.2338867-1.0922852h10.3745117l-.2338867,1.0922852Z"/>
      <path class="uuid-bc5e2d8d-f97e-42e2-bc18-c51387d98109" d="M204.0211584,31.3999647c1.0917969-.3120117,2.4960938-.4682617,3.5488281-.4682617,4.0952148,0,5.6552734,1.9111328,5.6552734,5.3432617,0,2.6523438-1.0917969,5.6943359-3.3540039,8.1904297-1.9111328,2.184082-4.7192383,3.9003906-7.2543945,4.5244141-.6240234,0-1.5209961-.078125-2.262207-.3901367l-1.0917969,5.4990234c-.4291992,2.184082-.2729492,2.5742188,1.6381836,2.7299805l1.0917969.1171875-.1557617,1.0141602-9.1655273.4677734.1948242-1.0141602c2.6523438-.4677734,2.925293-.7797852,3.4326172-3.1586914,1.4819336-6.8256836,2.9638672-13.7285156,4.3681641-20.4370117-1.2094727.4291992-2.2231445.9360352-3.1591797,1.4433594l-.2734375-1.0922852c1.0922852-.7412109,2.4575195-1.4038086,3.7832031-1.9501953l.4291992-1.7939453c.7021484-.8579102,1.9892578-1.7548828,2.8862305-2.262207l.3510742.234375-.6630859,3.0029297ZM200.978678,45.9082655c.4682617.6240234,1.4042969,1.3261719,2.3793945,1.2871094,2.769043,0,6.5913086-5.2260742,6.5913086-10.2182617,0-3.4321289-1.8330078-4.3291016-4.1342773-4.3291016-.6630859,0-1.3652344.1171875-2.1450195.3120117-.7802734,3.8608398-1.8720703,9.0483398-2.6914062,12.9482422Z"/>
      <path class="uuid-bc5e2d8d-f97e-42e2-bc18-c51387d98109" d="M232.9200842,45.0112928c-1.9111328,2.5742188-4.3291016,3.9785156-5.4208984,3.9785156-1.0922852,0-1.5600586-.8974609-.8583984-4.4462891l.5463867-2.6914062c-1.4433594,2.3793945-3.5102539,4.3291016-4.6801758,5.265625-1.2480469,1.0136719-2.7304688,1.8720703-4.0175781,1.8720703-1.3647461,0-2.4960938-1.6772461-2.4960938-4.8364258,0-3.6660156,1.6772461-7.722168,4.3295898-10.1401367,2.027832-1.8720703,4.8359375-3.081543,7.4492188-3.081543,1.9887695,0,3.7832031.5854492,4.5239258.6630859-.7021484,2.4570312-2.0668945,8.4633789-2.8081055,12.8706055-.1948242,1.0917969-.1166992,1.5209961.1953125,1.5209961.4677734,0,1.2866211-.5068359,2.690918-1.9501953l.5458984.9750977ZM225.8610022,41.7744764c.8579102-1.0922852,1.8720703-3.0424805,2.262207-4.6801758.3896484-1.4824219.7407227-2.8862305.8579102-3.8222656-.5458984-.2729492-1.8330078-.6240234-2.9643555-.6240234-4.6020508,0-6.7470703,5.9282227-6.7470703,10.9985352,0,1.5600586.4291992,2.5737305,1.2089844,2.5737305,1.2089844,0,2.925293-1.2089844,5.3823242-4.4458008Z"/>
      <path class="uuid-bc5e2d8d-f97e-42e2-bc18-c51387d98109" d="M235.8444006,34.6372694c1.949707-2.3012695,4.0170898-3.7055664,5.1479492-3.7055664,1.3261719,0,1.2089844,2.0673828.4682617,5.4213867l-.234375,1.0532227c2.1064453-3.5883789,4.7973633-6.4746094,6.3574219-6.4746094.9360352,0,1.7939453.7802734,1.7939453,1.7553711,0,.8579102-.8188477,2.027832-1.5209961,2.4960938-.3510742.2338867-.6630859.2338867-.8579102,0-.4291992-.4682617-.8188477-1.1313477-1.2871094-1.1313477-.8969727,0-2.8081055,2.769043-3.7050781,4.3681641-1.3652344,2.4575195-2.0668945,6.0454102-2.847168,9.7895508-.8579102.15625-2.0668945.5068359-2.847168.7802734l-.2729492-.2734375c.9360352-3.5878906,2.3012695-9.5161133,2.847168-12.3632812.4291992-2.184082.3120117-2.5351562.0390625-2.5351562-.3901367,0-1.3652344.6240234-2.5351562,1.7939453l-.5458984-.9746094Z"/>
      <path class="uuid-bc5e2d8d-f97e-42e2-bc18-c51387d98109" d="M266.615885,45.0112928c-1.9111328,2.5742188-4.3291016,3.9785156-5.4208984,3.9785156-1.0922852,0-1.5600586-.8974609-.8583984-4.4462891l.5463867-2.6914062c-1.4433594,2.3793945-3.5102539,4.3291016-4.6801758,5.265625-1.2480469,1.0136719-2.7304688,1.8720703-4.0170898,1.8720703-1.3652344,0-2.4960938-1.6772461-2.4960938-4.8364258,0-3.6660156,1.6767578-7.722168,4.3291016-10.1401367,2.027832-1.8720703,4.8359375-3.081543,7.4492188-3.081543,1.9887695,0,3.7832031.5854492,4.5239258.6630859-.7016602,2.4570312-2.0668945,8.4633789-2.8081055,12.8706055-.1948242,1.0917969-.1166992,1.5209961.1953125,1.5209961.4677734,0,1.2871094-.5068359,2.690918-1.9501953l.5458984.9750977ZM259.556803,41.7744764c.8579102-1.0922852,1.8720703-3.0424805,2.262207-4.6801758.3896484-1.4824219.7407227-2.8862305.8579102-3.8222656-.5458984-.2729492-1.8330078-.6240234-2.9643555-.6240234-4.6020508,0-6.7470703,5.9282227-6.7470703,10.9985352,0,1.5600586.4291992,2.5737305,1.2089844,2.5737305,1.2089844,0,2.925293-1.2089844,5.3823242-4.4458008Z"/>
      <path class="uuid-bc5e2d8d-f97e-42e2-bc18-c51387d98109" d="M277.846842,34.7149061c1.4819336-2.0668945,3.5102539-3.7832031,4.7192383-3.7832031,1.0141602,0,1.5209961,1.2094727,1.6772461,4.3681641.2338867,3.8222656.2729492,7.6054688.3505859,9.984375,1.7553711-2.1450195,6.2792969-7.3320312,6.2792969-10.1010742,0-.6630859-.3505859-1.4433594-.6240234-1.8720703-.1557617-.2729492-.2338867-.5073242-.0776367-.8193359.2338867-.6630859,1.3647461-1.5600586,2.2617188-1.5600586.9360352,0,1.4433594.8969727,1.4824219,2.2231445,0,1.2089844-.5463867,3.0810547-2.340332,5.6162109-2.184082,3.1201172-6.0839844,7.5273438-8.3852539,10.21875h-1.1308594c-.15625-3.9785156-.3510742-9.3994141-.5854492-12.7539062-.1557617-2.027832-.3896484-2.4179688-.7797852-2.4179688-.2729492,0-.9750977.3510742-2.2231445,1.8330078l-.6240234-.9360352Z"/>
      <path class="uuid-bc5e2d8d-f97e-42e2-bc18-c51387d98109" d="M300.9342444,48.9898084c-1.8720703,0-4.4072266-1.0922852-4.4072266-5.8115234,0-3.6269531,1.5600586-7.9560547,4.6411133-10.2182617,1.7553711-1.2480469,3.5883789-2.0283203,5.265625-2.0283203,2.2226562,0,3.4707031,1.4042969,3.4707031,3.1201172,0,3.9003906-5.7329102,5.7333984-10.1010742,6.5131836-.0390625.4682617-.078125,1.2480469-.078125,1.6381836,0,2.262207.6240234,4.4462891,3.0419922,4.4462891,1.7553711,0,3.8613281-1.0922852,5.7724609-3.0810547l.5849609.9750977c-3.1591797,3.6660156-6.2402344,4.4462891-8.1904297,4.4462891ZM299.9591467,39.2783826c5.6552734-1.0141602,6.9814453-2.8081055,7.0205078-4.6025391,0-1.3256836-.7802734-2.0668945-2.0283203-2.0668945-1.1699219,0-3.8608398.8579102-4.9921875,6.6694336Z"/>
      <path class="uuid-bc5e2d8d-f97e-42e2-bc18-c51387d98109" d="M312.3610022,34.6372694c1.949707-2.3012695,4.0170898-3.7055664,5.1479492-3.7055664,1.3261719,0,1.2089844,2.0673828.4682617,5.4213867l-.234375,1.0532227c2.1064453-3.5883789,4.7973633-6.4746094,6.3574219-6.4746094.9360352,0,1.7939453.7802734,1.7939453,1.7553711,0,.8579102-.8188477,2.027832-1.5209961,2.4960938-.3510742.2338867-.6630859.2338867-.8579102,0-.4291992-.4682617-.8188477-1.1313477-1.2871094-1.1313477-.8969727,0-2.8081055,2.769043-3.7050781,4.3681641-1.3652344,2.4575195-2.0668945,6.0454102-2.847168,9.7895508-.8579102.15625-2.0668945.5068359-2.847168.7802734l-.2729492-.2734375c.9360352-3.5878906,2.3012695-9.5161133,2.847168-12.3632812.4291992-2.184082.3120117-2.5351562.0390625-2.5351562-.3901367,0-1.3652344.6240234-2.5351562,1.7939453l-.5458984-.9746094Z"/>
      <path class="uuid-bc5e2d8d-f97e-42e2-bc18-c51387d98109" d="M342.7413733,44.9722303c-1.949707,2.6132812-4.5239258,4.0175781-5.6552734,4.0175781-.9746094,0-1.5595703-.7802734-.7797852-4.5244141,1.4038086-6.6694336,2.925293-13.7285156,4.1733398-19.7348633.3120117-1.5600586.1948242-1.7158203-1.2089844-1.8330078-.4291992-.0390625-1.1313477-.1166992-1.4433594-.1166992l.2338867-1.0141602c1.6772461-.1953125,3.6665039-.5849609,4.7583008-.9750977.7021484-.2729492.9360352-.3120117,1.1699219-.3120117.3510742,0,.3510742.3510742.15625,1.2480469-1.7548828,7.4882812-3.6660156,16.3803711-4.953125,22.894043-.234375,1.0917969-.1953125,1.4428711.1166992,1.4428711.3510742,0,1.4433594-.5458984,2.847168-2.0668945l.5849609.9746094Z"/>
      <path class="uuid-bc5e2d8d-f97e-42e2-bc18-c51387d98109" d="M362.3585608,45.0112928c-1.9111328,2.5742188-4.3291016,3.9785156-5.4208984,3.9785156-1.0922852,0-1.5600586-.8974609-.8583984-4.4462891l.5463867-2.6914062c-1.4433594,2.3793945-3.5102539,4.3291016-4.6801758,5.265625-1.2480469,1.0136719-2.7304688,1.8720703-4.0175781,1.8720703-1.3647461,0-2.4960938-1.6772461-2.4960938-4.8364258,0-3.6660156,1.6772461-7.722168,4.3295898-10.1401367,2.027832-1.8720703,4.8359375-3.081543,7.4492188-3.081543,1.9887695,0,3.7832031.5854492,4.5239258.6630859-.7021484,2.4570312-2.0668945,8.4633789-2.8081055,12.8706055-.1948242,1.0917969-.1166992,1.5209961.1953125,1.5209961.4677734,0,1.2866211-.5068359,2.690918-1.9501953l.5458984.9750977ZM355.2994787,41.7744764c.8579102-1.0922852,1.8720703-3.0424805,2.262207-4.6801758.3896484-1.4824219.7407227-2.8862305.8579102-3.8222656-.5458984-.2729492-1.8330078-.6240234-2.9643555-.6240234-4.6020508,0-6.7470703,5.9282227-6.7470703,10.9985352,0,1.5600586.4291992,2.5737305,1.2089844,2.5737305,1.2089844,0,2.925293-1.2089844,5.3823242-4.4458008Z"/>
      <path class="uuid-bc5e2d8d-f97e-42e2-bc18-c51387d98109" d="M379.556803,43.8023084c-.6240234.5849609-1.0141602.9750977-1.0141602,1.4433594,0,.6240234.7802734,1.3256836,3.1201172,2.4570312,4.2905273,1.9887695,5.4604492,3.2758789,5.4604492,4.9921875,0,3.2758789-5.4995117,6.0839844-9.4384766,6.0839844s-7.293457-2.027832-7.293457-4.5239258c.0390625-1.6381836,2.3012695-3.3544922,6.6303711-5.8505859-1.0141602-.6240234-1.3652344-1.3256836-1.3261719-1.8720703,0-.6625977.9360352-1.7158203,2.6914062-2.8081055l1.1699219.078125ZM384.1979162,53.9819959c0-.8193359-.3510742-1.7163086-1.8720703-2.6523438s-3.3540039-1.8330078-4.2509766-2.2231445c-3.0810547,1.7163086-4.4072266,3.1591797-4.4072266,4.5244141,0,2.027832,2.612793,3.4711914,5.5380859,3.4711914,3.0810547,0,4.9921875-1.5214844,4.9921875-3.1201172ZM374.7594397,39.3560194c0-3.0419922,1.7163086-5.7329102,3.8613281-7.0200195,1.4428711-.8969727,3.1982422-1.4042969,4.2900391-1.4042969,1.2480469,0,2.418457.3120117,3.3154297,1.0532227,2.2231445,0,3.6269531-.4291992,4.3681641-.8969727l.2729492.8969727c-1.1313477,1.3652344-2.4179688,1.7548828-3.6274414,1.9111328.1171875.5458984.234375,1.0917969.234375,1.7939453,0,2.8081055-1.3652344,4.953125-2.7304688,6.0454102-1.6376953,1.3647461-3.8217773,2.3007812-5.8891602,2.262207-2.690918-.0390625-4.0952148-2.1845703-4.0952148-4.6416016ZM384.5489905,36.1582655c0-2.418457-.9750977-3.7832031-2.690918-3.7832031-2.3012695,0-4.1342773,3.0029297-4.1342773,6.4741211,0,2.3398438,1.1308594,3.5878906,2.5742188,3.5878906,2.3789062,0,4.2509766-2.769043,4.2509766-6.2788086Z"/>
      <path class="uuid-bc5e2d8d-f97e-42e2-bc18-c51387d98109" d="M409.0797522,44.9722303c-1.9111328,2.6523438-4.4462891,3.9785156-5.5380859,3.9785156-1.0141602,0-1.4824219-.9360352-.8583984-4.1733398.3120117-1.4819336.5073242-2.340332.7021484-3.1982422-1.5991211,2.184082-3.4711914,4.2124023-5.4213867,5.7333984-1.2089844.8969727-2.612793,1.6381836-3.7827148,1.6381836-1.2480469,0-2.6523438-.8193359-1.5600586-5.6162109.5849609-2.418457,1.2871094-5.3041992,1.949707-8.034668.3120117-1.1699219.2729492-1.5209961-.0385742-1.5209961-.4291992,0-1.5605469.8193359-2.5351562,1.7939453l-.5463867-.9746094c1.8720703-2.0673828,4.4072266-3.6665039,5.6162109-3.6665039,1.0922852,0,1.1313477,1.2094727.4291992,4.2124023-.6630859,2.5742188-1.3652344,5.3823242-1.9111328,7.7612305-.5849609,2.6518555-.3510742,3.3930664.4291992,3.3930664,1.3647461,0,3.6660156-2.027832,5.6552734-4.5629883,1.1699219-1.4819336,2.2617188-3.3540039,2.847168-5.6552734.2338867-.8969727.6240234-2.4960938.9355469-4.1733398.7802734-.2338867,1.9892578-.6630859,2.8085938-1.0136719h.4287109c-1.1699219,4.5239258-2.6132812,10.4521484-3.1982422,13.8061523-.1166992.9360352,0,1.3261719.2734375,1.3261719.3505859,0,1.2866211-.4682617,2.7299805-1.9892578l.5849609.9360352Z"/>
      <path class="uuid-bc5e2d8d-f97e-42e2-bc18-c51387d98109" d="M419.3360998,45.1284803c-1.949707,2.6132812-4.4072266,3.8613281-5.5771484,3.8613281-1.0136719,0-1.4428711-1.0141602-.7021484-4.1342773.6240234-2.5742188,1.7163086-6.7475586,2.4575195-9.9067383.1557617-.7407227.1166992-1.0917969-.1171875-1.0917969-.3901367,0-1.5600586.7802734-2.5742188,1.7548828l-.5068359-1.0136719c1.8330078-1.9892578,4.4848633-3.6665039,5.7329102-3.6665039.9750977,0,1.0141602,1.3261719.3125,4.2124023-.7412109,2.8081055-1.6772461,6.7470703-2.3793945,9.5161133-.2729492,1.0532227-.2729492,1.4824219,0,1.4824219.3901367,0,1.4428711-.5463867,2.8081055-1.9892578l.5458984.9750977ZM420.428385,24.6914686c0,1.2094727-.8579102,2.262207-2.0668945,2.262207-.9750977,0-1.7163086-.7021484-1.7163086-1.7548828,0-1.0141602.7797852-2.3012695,2.184082-2.3012695,1.0532227,0,1.5991211.8188477,1.5991211,1.7939453Z"/>
      <path class="uuid-bc5e2d8d-f97e-42e2-bc18-c51387d98109" d="M439.4205725,45.0112928c-1.9111328,2.5742188-4.3291016,3.9785156-5.4208984,3.9785156-1.0922852,0-1.5600586-.8974609-.8583984-4.4462891l.5463867-2.6914062c-1.4433594,2.3793945-3.5102539,4.3291016-4.6801758,5.265625-1.2480469,1.0136719-2.7304688,1.8720703-4.0170898,1.8720703-1.3652344,0-2.4960938-1.6772461-2.4960938-4.8364258,0-3.6660156,1.6767578-7.722168,4.3291016-10.1401367,2.027832-1.8720703,4.8359375-3.081543,7.4492188-3.081543,1.9887695,0,3.7832031.5854492,4.5239258.6630859-.7016602,2.4570312-2.0668945,8.4633789-2.8081055,12.8706055-.1948242,1.0917969-.1166992,1.5209961.1953125,1.5209961.4677734,0,1.2871094-.5068359,2.690918-1.9501953l.5458984.9750977ZM432.3614905,41.7744764c.8579102-1.0922852,1.8720703-3.0424805,2.262207-4.6801758.3896484-1.4824219.7407227-2.8862305.8579102-3.8222656-.5458984-.2729492-1.8330078-.6240234-2.9643555-.6240234-4.6020508,0-6.7470703,5.9282227-6.7470703,10.9985352,0,1.5600586.4291992,2.5737305,1.2089844,2.5737305,1.2089844,0,2.925293-1.2089844,5.3823242-4.4458008Z"/>
      <path class="uuid-bc5e2d8d-f97e-42e2-bc18-c51387d98109" d="M468.7872717,45.1284803c-1.9111328,2.4960938-4.3681641,3.8999023-5.4599609,3.8999023-1.1313477,0-1.6381836-.9360352-.8583984-4.6411133l.4682617-2.184082c-2.262207,3.3154297-5.9282227,6.8251953-8.6972656,6.8251953-1.5209961,0-2.9643555-1.3647461-2.9643555-5.0307617,0-3.4711914,1.5991211-7.7617188,4.5634766-10.2578125,1.6767578-1.4819336,4.71875-2.769043,6.5131836-2.769043.8969727,0,2.0668945.1171875,2.847168.5073242l1.3647461-6.7084961c.3120117-1.5600586.0390625-1.7158203-1.4038086-1.8330078-.3901367-.0390625-1.2089844-.078125-1.4824219-.078125l.234375-1.0527344c1.8330078-.1953125,3.7832031-.6240234,4.953125-1.0141602.5849609-.15625.8969727-.2729492,1.1308594-.2729492.3120117,0,.3901367.3510742.1953125,1.1699219-1.7944336,7.6831055-3.6274414,15.7954102-4.9536133,23.0107422-.1948242,1.0532227-.0385742,1.4819336.234375,1.4819336.4677734,0,1.4428711-.5849609,2.847168-2.0668945l.4677734,1.0141602ZM462.0792639,41.3843397c.7797852-1.0922852,1.4038086-2.262207,1.8330078-4.1342773l.7797852-3.3540039c-.5458984-.6240234-1.8720703-1.2089844-3.7441406-1.2089844-4.4848633,0-6.3959961,6.4350586-6.3959961,10.4521484,0,2.184082.5849609,3.3154297,1.6376953,3.3154297,1.5991211,0,3.9003906-2.184082,5.8896484-5.0703125Z"/>
      <path class="uuid-bc5e2d8d-f97e-42e2-bc18-c51387d98109" d="M476.2740881,48.9898084c-1.8720703,0-4.4072266-1.0922852-4.4072266-5.8115234,0-3.6269531,1.5600586-7.9560547,4.6411133-10.2182617,1.7553711-1.2480469,3.5883789-2.0283203,5.265625-2.0283203,2.2226562,0,3.4707031,1.4042969,3.4707031,3.1201172,0,3.9003906-5.7329102,5.7333984-10.1010742,6.5131836-.0390625.4682617-.078125,1.2480469-.078125,1.6381836,0,2.262207.6240234,4.4462891,3.0419922,4.4462891,1.7553711,0,3.8613281-1.0922852,5.7724609-3.0810547l.5849609.9750977c-3.1591797,3.6660156-6.2402344,4.4462891-8.1904297,4.4462891ZM475.2989905,39.2783826c5.6552734-1.0141602,6.9814453-2.8081055,7.0205078-4.6025391,0-1.3256836-.7802734-2.0668945-2.0283203-2.0668945-1.1699219,0-3.8608398.8579102-4.9921875,6.6694336Z"/>
      <path class="uuid-bc5e2d8d-f97e-42e2-bc18-c51387d98109" d="M494.331217,44.9722303c-1.949707,2.6132812-4.5239258,4.0175781-5.6552734,4.0175781-.9746094,0-1.5595703-.7802734-.7797852-4.5244141,1.4038086-6.6694336,2.925293-13.7285156,4.1733398-19.7348633.3120117-1.5600586.1948242-1.7158203-1.2089844-1.8330078-.4291992-.0390625-1.1313477-.1166992-1.4433594-.1166992l.2338867-1.0141602c1.6772461-.1953125,3.6665039-.5849609,4.7583008-.9750977.7021484-.2729492.9360352-.3120117,1.1699219-.3120117.3510742,0,.3510742.3510742.15625,1.2480469-1.7548828,7.4882812-3.6660156,16.3803711-4.953125,22.894043-.234375,1.0917969-.1953125,1.4428711.1166992,1.4428711.3510742,0,1.4433594-.5458984,2.847168-2.0668945l.5849609.9746094Z"/>
      <path class="uuid-bc5e2d8d-f97e-42e2-bc18-c51387d98109" d="M506.4200842,34.9878553c2.340332-2.4960938,4.7973633-4.0561523,5.9672852-4.0561523.7021484,0,1.0922852.7412109.7802734,2.6523438-.5849609,3.5493164-1.7553711,9.2041016-2.4960938,12.753418-1.3261719,6.3183594-3.5102539,9.2431641-6.0844727,11.2324219-1.0917969.8579102-2.2617188,1.2089844-2.8857422,1.2089844-.9750977,0-1.7553711-.5849609-1.7553711-1.3261719,0-.7407227.5463867-1.6376953.9750977-2.027832.3510742-.2729492.5458984-.4291992.8579102-.1948242.6240234.5068359,1.4042969.9746094,2.0283203.9746094.7021484,0,1.7158203-.4677734,2.3398438-2.8081055.9750977-3.6269531,2.418457-10.9204102,3.6274414-17.1606445.3896484-1.8330078.2729492-2.105957-.0390625-2.105957-.5068359,0-1.7163086.8188477-2.769043,1.8330078l-.5463867-.9750977ZM514.3375647,24.6914686c.0390625,1.2094727-.8579102,2.262207-2.0668945,2.262207-.9360352,0-1.6772461-.7021484-1.6772461-1.7548828-.0390625-1.0141602.7802734-2.3012695,2.1450195-2.3012695,1.0532227,0,1.5991211.8188477,1.5991211,1.7939453Z"/>
      <path class="uuid-bc5e2d8d-f97e-42e2-bc18-c51387d98109" d="M534.3063147,44.9722303c-1.9111328,2.6523438-4.4462891,3.9785156-5.5380859,3.9785156-1.0141602,0-1.4824219-.9360352-.8583984-4.1733398.3120117-1.4819336.5073242-2.340332.7021484-3.1982422-1.5991211,2.184082-3.4711914,4.2124023-5.4213867,5.7333984-1.2089844.8969727-2.612793,1.6381836-3.7827148,1.6381836-1.2480469,0-2.6523438-.8193359-1.5600586-5.6162109.5849609-2.418457,1.2871094-5.3041992,1.949707-8.034668.3120117-1.1699219.2729492-1.5209961-.0385742-1.5209961-.4291992,0-1.5605469.8193359-2.5351562,1.7939453l-.5463867-.9746094c1.8720703-2.0673828,4.4072266-3.6665039,5.6162109-3.6665039,1.0922852,0,1.1313477,1.2094727.4291992,4.2124023-.6630859,2.5742188-1.3652344,5.3823242-1.9111328,7.7612305-.5849609,2.6518555-.3510742,3.3930664.4291992,3.3930664,1.3647461,0,3.6660156-2.027832,5.6552734-4.5629883,1.1699219-1.4819336,2.2617188-3.3540039,2.847168-5.6552734.2338867-.8969727.6240234-2.4960938.9355469-4.1733398.7802734-.2338867,1.9892578-.6630859,2.8085938-1.0136719h.4287109c-1.1699219,4.5239258-2.6132812,10.4521484-3.1982422,13.8061523-.1166992.9360352,0,1.3261719.2734375,1.3261719.3505859,0,1.2866211-.4682617,2.7299805-1.9892578l.5849609.9360352Z"/>
      <path class="uuid-bc5e2d8d-f97e-42e2-bc18-c51387d98109" d="M542.0275061,48.9898084c-1.8720703,0-4.4072266-1.0922852-4.4072266-5.8115234,0-3.6269531,1.5600586-7.9560547,4.6416016-10.2182617,1.7548828-1.2480469,3.5878906-2.0283203,5.2651367-2.0283203,2.2231445,0,3.4711914,1.4042969,3.4711914,3.1201172,0,3.9003906-5.7333984,5.7333984-10.1015625,6.5131836-.0390625.4682617-.078125,1.2480469-.078125,1.6381836,0,2.262207.6240234,4.4462891,3.0419922,4.4462891,1.7553711,0,3.8613281-1.0922852,5.7724609-3.0810547l.5849609.9750977c-3.1591797,3.6660156-6.2402344,4.4462891-8.1904297,4.4462891ZM541.0524084,39.2783826c5.6552734-1.0141602,6.9814453-2.8081055,7.0205078-4.6025391,0-1.3256836-.7802734-2.0668945-2.0283203-2.0668945-1.1699219,0-3.8608398.8579102-4.9921875,6.6694336Z"/>
      <path class="uuid-bc5e2d8d-f97e-42e2-bc18-c51387d98109" d="M558.6412756,43.8023084c-.6240234.5849609-1.0141602.9750977-1.0141602,1.4433594,0,.6240234.7802734,1.3256836,3.1201172,2.4570312,4.2900391,1.9887695,5.4604492,3.2758789,5.4604492,4.9921875,0,3.2758789-5.4995117,6.0839844-9.4384766,6.0839844s-7.293457-2.027832-7.293457-4.5239258c.0390625-1.6381836,2.3012695-3.3544922,6.6303711-5.8505859-1.0141602-.6240234-1.3647461-1.3256836-1.3261719-1.8720703,0-.6625977.9360352-1.7158203,2.6914062-2.8081055l1.1699219.078125ZM563.2823889,53.9819959c0-.8193359-.3510742-1.7163086-1.8720703-2.6523438s-3.3540039-1.8330078-4.2509766-2.2231445c-3.0810547,1.7163086-4.4072266,3.1591797-4.4072266,4.5244141,0,2.027832,2.6132812,3.4711914,5.5380859,3.4711914,3.0810547,0,4.9921875-1.5214844,4.9921875-3.1201172ZM553.8439123,39.3560194c0-3.0419922,1.7163086-5.7329102,3.8613281-7.0200195,1.4428711-.8969727,3.1982422-1.4042969,4.2900391-1.4042969,1.2480469,0,2.4179688.3120117,3.3154297,1.0532227,2.2226562,0,3.6269531-.4291992,4.3681641-.8969727l.2729492.8969727c-1.1313477,1.3652344-2.418457,1.7548828-3.6274414,1.9111328.1171875.5458984.234375,1.0917969.234375,1.7939453,0,2.8081055-1.3652344,4.953125-2.7304688,6.0454102-1.6376953,1.3647461-3.8217773,2.3007812-5.8891602,2.262207-2.690918-.0390625-4.0952148-2.1845703-4.0952148-4.6416016ZM563.6334631,36.1582655c0-2.418457-.9750977-3.7832031-2.690918-3.7832031-2.3012695,0-4.1342773,3.0029297-4.1342773,6.4741211,0,2.3398438,1.1308594,3.5878906,2.5742188,3.5878906,2.3789062,0,4.2509766-2.769043,4.2509766-6.2788086Z"/>
      <path class="uuid-bc5e2d8d-f97e-42e2-bc18-c51387d98109" d="M585.4733069,37.0161756c0,4.0561523-2.027832,8.2294922-5.4604492,10.4130859-1.4038086.8583984-3.0419922,1.5605469-4.796875,1.5605469-3.7050781,0-5.2260742-2.9643555-5.2260742-6.0844727,0-5.3823242,2.8857422-9.2431641,6.2788086-10.9204102,1.2480469-.6240234,2.847168-1.0532227,4.0175781-1.0532227,3.2758789,0,5.1870117,2.1450195,5.1870117,6.0844727ZM573.3048498,42.4761366c0,2.925293,1.0917969,4.8754883,3.2373047,4.8754883,3.7050781,0,5.6552734-5.9672852,5.6552734-10.1796875,0-3.2368164-1.4042969-4.6020508-3.2763672-4.6020508-3.9003906,0-5.6162109,5.8891602-5.6162109,9.90625Z"/>
    </g>
  </g>
</svg>