<?xml version="1.0" encoding="UTF-8"?>
<svg id="uuid-0356b01f-36c4-4cf4-a5dd-58e2fd12c8a5" data-name="Capa 2" xmlns="http://www.w3.org/2000/svg" viewBox="0 0 718.3154219 67.4042553">
  <defs>
    <style>
      .uuid-db3826b8-d83d-4540-9cba-d8bd62a6b859 {
        fill: #000;
        opacity: .22;
      }

      .uuid-db3826b8-d83d-4540-9cba-d8bd62a6b859, .uuid-aaa196cf-a1e8-4f80-8d71-535c6b86bfc8 {
        stroke-width: 0px;
      }

      .uuid-aaa196cf-a1e8-4f80-8d71-535c6b86bfc8 {
        fill: #fff;
      }
    </style>
  </defs>
  <g id="uuid-b4ec61ec-8103-418f-98cf-efd128f04f53" data-name="Capa 1">
    <rect class="uuid-db3826b8-d83d-4540-9cba-d8bd62a6b859" width="718.3154219" height="67.4042553"/>
    <g>
      <path class="uuid-aaa196cf-a1e8-4f80-8d71-535c6b86bfc8" d="M42.6422119,23.1702647c5.6552734,0,8.2294922,2.8081055,8.2294922,6.5522461,0,5.7724609-4.796875,8.5415039-9.3603516,8.5415039-.3505859,0-1.0927734-.078125-1.5595703-.1953125l-2.5742188-.5849609-1.1699219,6.3183594c-.546875,2.925293-.390625,3.3540039,3.1972656,3.6269531l-.1953125,1.0922852h-10.5683594l.2333984-1.0922852c3.0419922-.2729492,3.5107422-.5068359,4.0947266-3.7441406l3.0820312-15.8344727c.5839844-3.0419922.3896484-3.2758789-3.0039062-3.5878906l.234375-1.0922852h9.3603516ZM37.6500244,36.1966319c.5458984.15625,1.7939453.5073242,3.1982422.5073242,2.8085938,0,6.5136719-1.6772461,6.5136719-6.9814453,0-3.3149414-1.7949219-5.2651367-4.953125-5.2651367-2.0292969,0-2.6914062.5458984-2.9648438,2.184082l-1.7939453,9.5551758Z"/>
      <path class="uuid-aaa196cf-a1e8-4f80-8d71-535c6b86bfc8" d="M53.0933838,34.6370616c1.9501953-2.3012695,4.0166016-3.7055664,5.1474609-3.7055664,1.3261719,0,1.2089844,2.0673828.46875,5.4213867l-.234375,1.0532227c2.1064453-3.5883789,4.796875-6.4746094,6.3574219-6.4746094.9355469,0,1.7939453.7802734,1.7939453,1.7553711,0,.8579102-.8193359,2.027832-1.5205078,2.4960938-.3515625.2338867-.6640625.2338867-.8583984,0-.4287109-.4682617-.8193359-1.1313477-1.2871094-1.1313477-.8974609,0-2.8076172,2.769043-3.7050781,4.3681641-1.3652344,2.4575195-2.0673828,6.0454102-2.8466797,9.7895508-.8583984.15625-2.0673828.5068359-2.8476562.7802734l-.2734375-.2734375c.9365234-3.5878906,2.3017578-9.5161133,2.8476562-12.3632812.4296875-2.184082.3125-2.5351562.0390625-2.5351562-.390625,0-1.3652344.6240234-2.5351562,1.7939453l-.5458984-.9746094Z"/>
      <path class="uuid-aaa196cf-a1e8-4f80-8d71-535c6b86bfc8" d="M71.9302979,48.9896006c-1.8720703,0-4.4072266-1.0922852-4.4072266-5.8115234,0-3.6269531,1.5595703-7.9560547,4.6416016-10.2182617,1.7548828-1.2480469,3.5878906-2.0283203,5.265625-2.0283203,2.2226562,0,3.4707031,1.4042969,3.4707031,3.1201172,0,3.9003906-5.7333984,5.7333984-10.1015625,6.5131836-.0390625.4682617-.078125,1.2480469-.078125,1.6381836,0,2.262207.6240234,4.4462891,3.0419922,4.4462891,1.7548828,0,3.8613281-1.0922852,5.7724609-3.0810547l.5849609.9750977c-3.1591797,3.6660156-6.2402344,4.4462891-8.1904297,4.4462891ZM70.9556885,39.2781749c5.6542969-1.0141602,6.9804688-2.8081055,7.0195312-4.6025391,0-1.3256836-.7792969-2.0668945-2.0273438-2.0668945-1.1699219,0-3.8613281.8579102-4.9921875,6.6694336Z"/>
      <path class="uuid-aaa196cf-a1e8-4f80-8d71-535c6b86bfc8" d="M94.0435791,33.0379405c0,.6625977-.546875,1.5600586-1.2089844,1.8720703-.3515625.1557617-.5859375.0776367-.8974609-.2729492-1.0537109-1.2094727-2.0283203-1.7553711-2.9248047-1.7553711-1.0146484,0-2.1064453.8188477-2.1064453,2.2231445,0,1.2871094,1.1699219,2.2231445,2.5732422,3.3149414,2.3408203,1.8334961,3.3554688,2.847168,3.3554688,4.5634766,0,3.1977539-4.0566406,6.0063477-7.2158203,6.0063477-1.8720703,0-3.6660156-1.2871094-3.6660156-2.6523438,0-.8579102.9365234-1.9111328,1.5986328-1.9892578.2734375-.0390625.4296875.1171875.6630859.3901367.9755859,1.4042969,2.1455078,2.262207,3.4326172,2.262207,1.5986328,0,2.5742188-1.1699219,2.5742188-2.4179688,0-.9360352-.4296875-1.8720703-2.2626953-3.3935547-1.8330078-1.4428711-3.4326172-2.534668-3.3935547-4.5629883,0-1.1699219.46875-2.4570312,2.0292969-3.7832031,1.2480469-1.1308594,3.0410156-1.9111328,4.3671875-1.9111328,1.7167969,0,3.0820312,1.0141602,3.0820312,2.1064453Z"/>
      <path class="uuid-aaa196cf-a1e8-4f80-8d71-535c6b86bfc8" d="M103.4810791,45.1282725c-1.9501953,2.6132812-4.4082031,3.8613281-5.578125,3.8613281-1.0136719,0-1.4423828-1.0141602-.7011719-4.1342773.6230469-2.5742188,1.7158203-6.7475586,2.4570312-9.9067383.15625-.7407227.1171875-1.0917969-.1171875-1.0917969-.390625,0-1.5605469.7802734-2.5742188,1.7548828l-.5068359-1.0136719c1.8330078-1.9892578,4.4853516-3.6665039,5.7333984-3.6665039.9746094,0,1.0136719,1.3261719.3125,4.2124023-.7421875,2.8081055-1.6777344,6.7470703-2.3798828,9.5161133-.2724609,1.0532227-.2724609,1.4824219,0,1.4824219.3896484,0,1.4423828-.5463867,2.8076172-1.9892578l.546875.9750977ZM104.572876,24.6912608c0,1.2094727-.8574219,2.262207-2.0664062,2.262207-.9755859,0-1.7167969-.7021484-1.7167969-1.7548828,0-1.0141602.7792969-2.3012695,2.1835938-2.3012695,1.0537109,0,1.5996094.8188477,1.5996094,1.7939453Z"/>
      <path class="uuid-aaa196cf-a1e8-4f80-8d71-535c6b86bfc8" d="M122.0836182,37.0159678c0,4.0561523-2.0283203,8.2294922-5.4599609,10.4130859-1.4042969.8583984-3.0429688,1.5605469-4.796875,1.5605469-3.7050781,0-5.2265625-2.9643555-5.2265625-6.0844727,0-5.3823242,2.8857422-9.2431641,6.2792969-10.9204102,1.2480469-.6240234,2.8466797-1.0532227,4.0175781-1.0532227,3.2753906,0,5.1865234,2.1450195,5.1865234,6.0844727ZM109.9146729,42.4759288c0,2.925293,1.0917969,4.8754883,3.2382812,4.8754883,3.7050781,0,5.6542969-5.9672852,5.6542969-10.1796875,0-3.2368164-1.4042969-4.6020508-3.2753906-4.6020508-3.9003906,0-5.6171875,5.8891602-5.6171875,9.90625Z"/>
      <path class="uuid-aaa196cf-a1e8-4f80-8d71-535c6b86bfc8" d="M142.869751,45.011085c-2.0664062,2.7304688-4.4453125,3.9785156-5.5761719,3.9785156-1.0527344,0-1.5996094-.9365234-.8583984-4.1342773.7021484-2.769043,1.3642578-5.5385742,1.9501953-7.9956055.6240234-2.5351562.4677734-3.3930664-.5078125-3.3930664-1.2871094,0-4.2890625,2.184082-6.9414062,6.2402344-.7021484,1.0532227-1.0136719,2.0673828-1.3261719,3.2763672-.390625,1.5209961-.8964844,3.6269531-1.2089844,5.2260742-.9746094.1948242-2.0283203.5068359-2.7695312.7802734l-.2734375-.2734375c1.0927734-4.2509766,2.2236328-9.0092773,3.1992188-13.3383789.2724609-1.2089844.1171875-1.5600586-.1953125-1.5600586-.4296875,0-1.4042969.8579102-2.3789062,1.7939453l-.546875-1.0136719c1.7949219-2.262207,3.8222656-3.6665039,5.109375-3.6665039,1.1308594,0,1.4433594,1.3652344.625,4.7583008l-.546875,2.3012695c3.4707031-4.5244141,6.9814453-7.0595703,9.3222656-7.0595703,1.2871094,0,2.4960938.8969727,1.2480469,6.1235352-.5078125,2.1450195-1.2480469,5.1479492-1.8339844,7.6049805-.234375,1.0532227-.234375,1.5209961.0390625,1.5209961.3515625,0,1.4824219-.6240234,2.8867188-2.105957l.5839844.9360352Z"/>
      <path class="uuid-aaa196cf-a1e8-4f80-8d71-535c6b86bfc8" d="M162.682251,45.011085c-1.9111328,2.5742188-4.3291016,3.9785156-5.4208984,3.9785156-1.0927734,0-1.5595703-.8974609-.8583984-4.4462891l.546875-2.6914062c-1.4433594,2.3793945-3.5107422,4.3291016-4.6806641,5.265625-1.2480469,1.0136719-2.7304688,1.8720703-4.0166016,1.8720703-1.3652344,0-2.4960938-1.6772461-2.4960938-4.8364258,0-3.6660156,1.6757812-7.722168,4.328125-10.1401367,2.0283203-1.8720703,4.8359375-3.081543,7.4492188-3.081543,1.9892578,0,3.7832031.5854492,4.5244141.6630859-.7021484,2.4570312-2.0673828,8.4633789-2.8076172,12.8706055-.1953125,1.0917969-.1171875,1.5209961.1953125,1.5209961.4667969,0,1.2871094-.5068359,2.6904297-1.9501953l.5458984.9750977ZM155.6236572,41.7742686c.8574219-1.0922852,1.8710938-3.0424805,2.2617188-4.6801758.3896484-1.4824219.7402344-2.8862305.8574219-3.8222656-.5449219-.2729492-1.8320312-.6240234-2.9638672-.6240234-4.6025391,0-6.7470703,5.9282227-6.7470703,10.9985352,0,1.5600586.4296875,2.5737305,1.2089844,2.5737305,1.2089844,0,2.9257812-1.2089844,5.3828125-4.4458008Z"/>
      <path class="uuid-aaa196cf-a1e8-4f80-8d71-535c6b86bfc8" d="M203.7877197,24.2625499c-3.3144531.2729492-3.5878906.5068359-4.171875,3.7441406l-3.0429688,15.7172852c-.5849609,3.1982422-.3505859,3.3935547,3.0820312,3.7050781l-.2734375,1.0922852h-10.4140625l.234375-1.0922852c3.3535156-.2729492,3.5488281-.5458984,4.1738281-3.7050781l1.4814453-7.800293h-12.7919922l-1.4824219,7.800293c-.6240234,3.2373047-.3125,3.4321289,3.0029297,3.7050781l-.2333984,1.0922852h-10.375l.234375-1.0922852c3.1582031-.2338867,3.5488281-.5458984,4.1337891-3.7050781l3.0419922-15.7172852c.6240234-3.2373047.4296875-3.4321289-2.9638672-3.7441406l.1943359-1.0922852h10.4140625l-.234375,1.0922852c-3.3535156.2729492-3.5878906.5458984-4.2119141,3.7441406l-1.2089844,6.3959961h12.7919922l1.2089844-6.3959961c.625-3.2373047.46875-3.4711914-2.9628906-3.7441406l.2724609-1.0922852h10.3740234l-.2734375,1.0922852Z"/>
      <path class="uuid-aaa196cf-a1e8-4f80-8d71-535c6b86bfc8" d="M220.0494385,31.3997569c1.0917969-.3120117,2.4960938-.4682617,3.5488281-.4682617,4.0957031,0,5.65625,1.9111328,5.65625,5.3432617,0,2.6523438-1.0917969,5.6943359-3.3544922,8.1904297-1.9111328,2.184082-4.7197266,3.9003906-7.2548828,4.5244141-.6230469,0-1.5205078-.078125-2.2617188-.3901367l-1.0917969,5.4990234c-.4296875,2.184082-.2734375,2.5742188,1.6386719,2.7299805l1.0917969.1171875-.15625,1.0141602-9.1660156.4677734.1953125-1.0141602c2.6523438-.4677734,2.9257812-.7797852,3.4316406-3.1586914,1.4824219-6.8256836,2.9648438-13.7285156,4.3691406-20.4370117-1.2089844.4291992-2.2226562.9360352-3.1591797,1.4433594l-.2724609-1.0922852c1.0917969-.7412109,2.4570312-1.4038086,3.7822266-1.9501953l.4287109-1.7939453c.703125-.8579102,1.9902344-1.7548828,2.8867188-2.262207l.3515625.234375-.6640625,3.0029297ZM217.0084229,45.9080577c.4667969.6240234,1.4033203,1.3261719,2.3789062,1.2871094,2.7685547,0,6.5908203-5.2260742,6.5908203-10.2182617,0-3.4321289-1.8330078-4.3291016-4.1337891-4.3291016-.6640625,0-1.3652344.1171875-2.1455078.3120117-.7802734,3.8608398-1.8720703,9.0483398-2.6904297,12.9482422Z"/>
      <path class="uuid-aaa196cf-a1e8-4f80-8d71-535c6b86bfc8" d="M248.9488525,45.011085c-1.9111328,2.5742188-4.3291016,3.9785156-5.4208984,3.9785156s-1.5605469-.8974609-.8583984-4.4462891l.5458984-2.6914062c-1.4433594,2.3793945-3.5097656,4.3291016-4.6796875,5.265625-1.2480469,1.0136719-2.7304688,1.8720703-4.0175781,1.8720703-1.3652344,0-2.4960938-1.6772461-2.4960938-4.8364258,0-3.6660156,1.6777344-7.722168,4.3300781-10.1401367,2.0273438-1.8720703,4.8359375-3.081543,7.4492188-3.081543,1.9882812,0,3.7832031.5854492,4.5234375.6630859-.7011719,2.4570312-2.0664062,8.4633789-2.8085938,12.8706055-.1943359,1.0917969-.1162109,1.5209961.1953125,1.5209961.46875,0,1.2871094-.5068359,2.6914062-1.9501953l.5458984.9750977ZM241.8892822,41.7742686c.8583984-1.0922852,1.8730469-3.0424805,2.2626953-4.6801758.3896484-1.4824219.7412109-2.8862305.8583984-3.8222656-.546875-.2729492-1.8339844-.6240234-2.9648438-.6240234-4.6015625,0-6.7470703,5.9282227-6.7470703,10.9985352,0,1.5600586.4287109,2.5737305,1.2089844,2.5737305,1.2089844,0,2.9248047-1.2089844,5.3818359-4.4458008Z"/>
      <path class="uuid-aaa196cf-a1e8-4f80-8d71-535c6b86bfc8" d="M251.8736572,34.6370616c1.9492188-2.3012695,4.0166016-3.7055664,5.1474609-3.7055664,1.3261719,0,1.2089844,2.0673828.4677734,5.4213867l-.234375,1.0532227c2.1074219-3.5883789,4.7978516-6.4746094,6.3574219-6.4746094.9365234,0,1.7949219.7802734,1.7949219,1.7553711,0,.8579102-.8193359,2.027832-1.5214844,2.4960938-.3515625.2338867-.6630859.2338867-.8574219,0-.4296875-.4682617-.8203125-1.1313477-1.2871094-1.1313477-.8974609,0-2.8085938,2.769043-3.7050781,4.3681641-1.3652344,2.4575195-2.0683594,6.0454102-2.8476562,9.7895508-.8574219.15625-2.0664062.5068359-2.8476562.7802734l-.2724609-.2734375c.9365234-3.5878906,2.3017578-9.5161133,2.8466797-12.3632812.4296875-2.184082.3125-2.5351562.0390625-2.5351562-.3896484,0-1.3652344.6240234-2.5351562,1.7939453l-.5449219-.9746094Z"/>
      <path class="uuid-aaa196cf-a1e8-4f80-8d71-535c6b86bfc8" d="M282.6451416,45.011085c-1.9121094,2.5742188-4.3300781,3.9785156-5.421875,3.9785156s-1.5595703-.8974609-.8574219-4.4462891l.5458984-2.6914062c-1.4433594,2.3793945-3.5107422,4.3291016-4.6806641,5.265625-1.2480469,1.0136719-2.7304688,1.8720703-4.0175781,1.8720703-1.3642578,0-2.4960938-1.6772461-2.4960938-4.8364258,0-3.6660156,1.6777344-7.722168,4.3300781-10.1401367,2.0273438-1.8720703,4.8359375-3.081543,7.4492188-3.081543,1.9882812,0,3.7832031.5854492,4.5234375.6630859-.7011719,2.4570312-2.0664062,8.4633789-2.8076172,12.8706055-.1943359,1.0917969-.1162109,1.5209961.1953125,1.5209961.4677734,0,1.2861328-.5068359,2.6904297-1.9501953l.546875.9750977ZM275.5855713,41.7742686c.8583984-1.0922852,1.8720703-3.0424805,2.2626953-4.6801758.3886719-1.4824219.7402344-2.8862305.8574219-3.8222656-.5458984-.2729492-1.8330078-.6240234-2.9648438-.6240234-4.6015625,0-6.7460938,5.9282227-6.7460938,10.9985352,0,1.5600586.4287109,2.5737305,1.2089844,2.5737305,1.2089844,0,2.9248047-1.2089844,5.3818359-4.4458008Z"/>
      <path class="uuid-aaa196cf-a1e8-4f80-8d71-535c6b86bfc8" d="M293.8756104,34.7146983c1.4824219-2.0668945,3.5097656-3.7832031,4.71875-3.7832031,1.0146484,0,1.5214844,1.2094727,1.6777344,4.3681641.234375,3.8222656.2734375,7.6054688.3515625,9.984375,1.7539062-2.1450195,6.2783203-7.3320312,6.2783203-10.1010742,0-.6630859-.3505859-1.4433594-.6240234-1.8720703-.15625-.2729492-.234375-.5073242-.078125-.8193359.234375-.6630859,1.3652344-1.5600586,2.2617188-1.5600586.9365234,0,1.4433594.8969727,1.4824219,2.2231445,0,1.2089844-.5458984,3.0810547-2.3398438,5.6162109-2.1835938,3.1201172-6.0839844,7.5273438-8.3847656,10.21875h-1.1308594c-.15625-3.9785156-.3515625-9.3994141-.5859375-12.7539062-.15625-2.027832-.3896484-2.4179688-.7792969-2.4179688-.2734375,0-.9755859.3510742-2.2236328,1.8330078l-.6240234-.9360352Z"/>
      <path class="uuid-aaa196cf-a1e8-4f80-8d71-535c6b86bfc8" d="M316.963501,48.9896006c-1.8730469,0-4.4082031-1.0922852-4.4082031-5.8115234,0-3.6269531,1.5605469-7.9560547,4.6425781-10.2182617,1.7539062-1.2480469,3.5878906-2.0283203,5.2646484-2.0283203,2.2236328,0,3.4716797,1.4042969,3.4716797,3.1201172,0,3.9003906-5.734375,5.7333984-10.1015625,6.5131836-.0390625.4682617-.078125,1.2480469-.078125,1.6381836,0,2.262207.6230469,4.4462891,3.0410156,4.4462891,1.7558594,0,3.8613281-1.0922852,5.7734375-3.0810547l.5839844.9750977c-3.1582031,3.6660156-6.2402344,4.4462891-8.1894531,4.4462891ZM315.987915,39.2781749c5.6552734-1.0141602,6.9814453-2.8081055,7.0205078-4.6025391,0-1.3256836-.7802734-2.0668945-2.0283203-2.0668945-1.1699219,0-3.8603516.8579102-4.9921875,6.6694336Z"/>
      <path class="uuid-aaa196cf-a1e8-4f80-8d71-535c6b86bfc8" d="M328.3892822,34.6370616c1.9501953-2.3012695,4.0175781-3.7055664,5.1484375-3.7055664,1.3261719,0,1.2089844,2.0673828.46875,5.4213867l-.234375,1.0532227c2.1054688-3.5883789,4.796875-6.4746094,6.3574219-6.4746094.9355469,0,1.7929688.7802734,1.7929688,1.7553711,0,.8579102-.8183594,2.027832-1.5205078,2.4960938-.3505859.2338867-.6630859.2338867-.8583984,0-.4287109-.4682617-.8183594-1.1313477-1.2871094-1.1313477-.8964844,0-2.8076172,2.769043-3.7050781,4.3681641-1.3652344,2.4575195-2.0664062,6.0454102-2.8466797,9.7895508-.8583984.15625-2.0673828.5068359-2.8466797.7802734l-.2734375-.2734375c.9355469-3.5878906,2.3007812-9.5161133,2.8476562-12.3632812.4277344-2.184082.3115234-2.5351562.0390625-2.5351562-.390625,0-1.3652344.6240234-2.5351562,1.7939453l-.546875-.9746094Z"/>
      <path class="uuid-aaa196cf-a1e8-4f80-8d71-535c6b86bfc8" d="M358.7701416,44.9720225c-1.9492188,2.6132812-4.5234375,4.0175781-5.6542969,4.0175781-.9755859,0-1.5605469-.7802734-.78125-4.5244141,1.4042969-6.6694336,2.9257812-13.7285156,4.1738281-19.7348633.3125-1.5600586.1953125-1.7158203-1.2089844-1.8330078-.4296875-.0390625-1.1308594-.1166992-1.4433594-.1166992l.234375-1.0141602c1.6767578-.1953125,3.6660156-.5849609,4.7578125-.9750977.7021484-.2729492.9355469-.3120117,1.1699219-.3120117.3515625,0,.3515625.3510742.15625,1.2480469-1.7558594,7.4882812-3.6660156,16.3803711-4.953125,22.894043-.234375,1.0917969-.1953125,1.4428711.1171875,1.4428711.3505859,0,1.4433594-.5458984,2.8466797-2.0668945l.5849609.9746094Z"/>
      <path class="uuid-aaa196cf-a1e8-4f80-8d71-535c6b86bfc8" d="M378.3873291,45.011085c-1.9111328,2.5742188-4.3291016,3.9785156-5.4208984,3.9785156-1.0927734,0-1.5595703-.8974609-.8583984-4.4462891l.546875-2.6914062c-1.4433594,2.3793945-3.5107422,4.3291016-4.6806641,5.265625-1.2480469,1.0136719-2.7304688,1.8720703-4.0166016,1.8720703-1.3652344,0-2.4960938-1.6772461-2.4960938-4.8364258,0-3.6660156,1.6757812-7.722168,4.328125-10.1401367,2.0283203-1.8720703,4.8359375-3.081543,7.4492188-3.081543,1.9892578,0,3.7832031.5854492,4.5244141.6630859-.7021484,2.4570312-2.0673828,8.4633789-2.8076172,12.8706055-.1953125,1.0917969-.1171875,1.5209961.1953125,1.5209961.4667969,0,1.2871094-.5068359,2.6904297-1.9501953l.5458984.9750977ZM371.3287354,41.7742686c.8574219-1.0922852,1.8710938-3.0424805,2.2617188-4.6801758.3896484-1.4824219.7402344-2.8862305.8574219-3.8222656-.5449219-.2729492-1.8320312-.6240234-2.9638672-.6240234-4.6025391,0-6.7470703,5.9282227-6.7470703,10.9985352,0,1.5600586.4296875,2.5737305,1.2089844,2.5737305,1.2089844,0,2.9257812-1.2089844,5.3828125-4.4458008Z"/>
      <path class="uuid-aaa196cf-a1e8-4f80-8d71-535c6b86bfc8" d="M395.5855713,43.8021006c-.6240234.5849609-1.0146484.9750977-1.0146484,1.4433594,0,.6240234.78125,1.3256836,3.1210938,2.4570312,4.2890625,1.9887695,5.4599609,3.2758789,5.4599609,4.9921875,0,3.2758789-5.4990234,6.0839844-9.4384766,6.0839844s-7.2929688-2.027832-7.2929688-4.5239258c.0390625-1.6381836,2.3007812-3.3544922,6.6298828-5.8505859-1.0146484-.6240234-1.3642578-1.3256836-1.3261719-1.8720703,0-.6625977.9365234-1.7158203,2.6914062-2.8081055l1.1699219.078125ZM400.2271729,53.9817881c0-.8193359-.3515625-1.7163086-1.8730469-2.6523438-1.5205078-.9360352-3.3535156-1.8330078-4.25-2.2231445-3.0820312,1.7163086-4.4082031,3.1591797-4.4082031,4.5244141,0,2.027832,2.6132812,3.4711914,5.5390625,3.4711914,3.0800781,0,4.9921875-1.5214844,4.9921875-3.1201172ZM390.7877197,39.3558116c0-3.0419922,1.7167969-5.7329102,3.8613281-7.0200195,1.4433594-.8969727,3.1992188-1.4042969,4.2910156-1.4042969,1.2480469,0,2.4179688.3120117,3.3144531,1.0532227,2.2226562,0,3.6269531-.4291992,4.3691406-.8969727l.2724609.8969727c-1.1318359,1.3652344-2.4189453,1.7548828-3.6279297,1.9111328.1171875.5458984.234375,1.0917969.234375,1.7939453,0,2.8081055-1.3652344,4.953125-2.7304688,6.0454102-1.6367188,1.3647461-3.8212891,2.3007812-5.8886719,2.262207-2.6914062-.0390625-4.0957031-2.1845703-4.0957031-4.6416016ZM400.5777588,36.1580577c0-2.418457-.9755859-3.7832031-2.6904297-3.7832031-2.3017578,0-4.1347656,3.0029297-4.1347656,6.4741211,0,2.3398438,1.1308594,3.5878906,2.5742188,3.5878906,2.3789062,0,4.2509766-2.769043,4.2509766-6.2788086Z"/>
      <path class="uuid-aaa196cf-a1e8-4f80-8d71-535c6b86bfc8" d="M425.1080322,44.9720225c-1.9101562,2.6523438-4.4453125,3.9785156-5.5371094,3.9785156-1.0146484,0-1.4824219-.9360352-.859375-4.1733398.3125-1.4819336.5078125-2.340332.703125-3.1982422-1.5996094,2.184082-3.4716797,4.2124023-5.421875,5.7333984-1.2089844.8969727-2.6132812,1.6381836-3.7832031,1.6381836-1.2480469,0-2.6523438-.8193359-1.5595703-5.6162109.5849609-2.418457,1.2861328-5.3041992,1.9501953-8.034668.3115234-1.1699219.2734375-1.5209961-.0390625-1.5209961-.4296875,0-1.5605469.8193359-2.5351562,1.7939453l-.546875-.9746094c1.8730469-2.0673828,4.4082031-3.6665039,5.6171875-3.6665039,1.0917969,0,1.1308594,1.2094727.4287109,4.2124023-.6630859,2.5742188-1.3652344,5.3823242-1.9111328,7.7612305-.5849609,2.6518555-.3515625,3.3930664.4296875,3.3930664,1.3642578,0,3.6660156-2.027832,5.6542969-4.5629883,1.1699219-1.4819336,2.2617188-3.3540039,2.8476562-5.6552734.234375-.8969727.6230469-2.4960938.9355469-4.1733398.7802734-.2338867,1.9892578-.6630859,2.8085938-1.0136719h.4287109c-1.1699219,4.5239258-2.6123047,10.4521484-3.1982422,13.8061523-.1171875.9360352,0,1.3261719.2734375,1.3261719.3505859,0,1.2871094-.4682617,2.7304688-1.9892578l.5839844.9360352Z"/>
      <path class="uuid-aaa196cf-a1e8-4f80-8d71-535c6b86bfc8" d="M435.3648682,45.1282725c-1.9501953,2.6132812-4.4072266,3.8613281-5.5771484,3.8613281-1.0136719,0-1.4433594-1.0141602-.7011719-4.1342773.6230469-2.5742188,1.7148438-6.7475586,2.4570312-9.9067383.1552734-.7407227.1162109-1.0917969-.1171875-1.0917969-.390625,0-1.5605469.7802734-2.5742188,1.7548828l-.5078125-1.0136719c1.8339844-1.9892578,4.4863281-3.6665039,5.734375-3.6665039.9746094,0,1.0136719,1.3261719.3105469,4.2124023-.7402344,2.8081055-1.6757812,6.7470703-2.3789062,9.5161133-.2724609,1.0532227-.2724609,1.4824219,0,1.4824219.390625,0,1.4433594-.5463867,2.8085938-1.9892578l.5458984.9750977ZM436.4576416,24.6912608c0,1.2094727-.8583984,2.262207-2.0683594,2.262207-.9746094,0-1.7148438-.7021484-1.7148438-1.7548828,0-1.0141602.7792969-2.3012695,2.1835938-2.3012695,1.0527344,0,1.5996094.8188477,1.5996094,1.7939453Z"/>
      <path class="uuid-aaa196cf-a1e8-4f80-8d71-535c6b86bfc8" d="M455.4498291,45.011085c-1.9121094,2.5742188-4.3300781,3.9785156-5.421875,3.9785156s-1.5595703-.8974609-.8574219-4.4462891l.5458984-2.6914062c-1.4433594,2.3793945-3.5107422,4.3291016-4.6806641,5.265625-1.2480469,1.0136719-2.7304688,1.8720703-4.0175781,1.8720703-1.3642578,0-2.4960938-1.6772461-2.4960938-4.8364258,0-3.6660156,1.6777344-7.722168,4.3300781-10.1401367,2.0273438-1.8720703,4.8359375-3.081543,7.4492188-3.081543,1.9882812,0,3.7832031.5854492,4.5234375.6630859-.7011719,2.4570312-2.0664062,8.4633789-2.8076172,12.8706055-.1943359,1.0917969-.1162109,1.5209961.1953125,1.5209961.4677734,0,1.2861328-.5068359,2.6904297-1.9501953l.546875.9750977ZM448.3902588,41.7742686c.8583984-1.0922852,1.8720703-3.0424805,2.2626953-4.6801758.3886719-1.4824219.7402344-2.8862305.8574219-3.8222656-.5458984-.2729492-1.8330078-.6240234-2.9648438-.6240234-4.6015625,0-6.7460938,5.9282227-6.7460938,10.9985352,0,1.5600586.4287109,2.5737305,1.2089844,2.5737305,1.2089844,0,2.9248047-1.2089844,5.3818359-4.4458008Z"/>
      <path class="uuid-aaa196cf-a1e8-4f80-8d71-535c6b86bfc8" d="M484.81604,45.1282725c-1.9111328,2.4960938-4.3681641,3.8999023-5.4599609,3.8999023-1.1308594,0-1.6386719-.9360352-.8583984-4.6411133l.4677734-2.184082c-2.2617188,3.3154297-5.9277344,6.8251953-8.6972656,6.8251953-1.5214844,0-2.9638672-1.3647461-2.9638672-5.0307617,0-3.4711914,1.5986328-7.7617188,4.5634766-10.2578125,1.6767578-1.4819336,4.71875-2.769043,6.5136719-2.769043.8964844,0,2.0664062.1171875,2.8457031.5073242l1.3652344-6.7084961c.3125-1.5600586.0390625-1.7158203-1.4033203-1.8330078-.3896484-.0390625-1.2099609-.078125-1.4824219-.078125l.234375-1.0527344c1.8330078-.1953125,3.7822266-.6240234,4.953125-1.0141602.5849609-.15625.8974609-.2729492,1.1308594-.2729492.3115234,0,.3896484.3510742.1943359,1.1699219-1.7929688,7.6831055-3.6269531,15.7954102-4.953125,23.0107422-.1943359,1.0532227-.0390625,1.4819336.234375,1.4819336.46875,0,1.4433594-.5849609,2.8476562-2.0668945l.4677734,1.0141602ZM478.1080322,41.3841319c.7792969-1.0922852,1.4042969-2.262207,1.8330078-4.1342773l.7802734-3.3540039c-.546875-.6240234-1.8730469-1.2089844-3.7441406-1.2089844-4.4863281,0-6.3964844,6.4350586-6.3964844,10.4521484,0,2.184082.5849609,3.3154297,1.6376953,3.3154297,1.5986328,0,3.9003906-2.184082,5.8896484-5.0703125Z"/>
      <path class="uuid-aaa196cf-a1e8-4f80-8d71-535c6b86bfc8" d="M492.3033447,48.9896006c-1.8730469,0-4.4082031-1.0922852-4.4082031-5.8115234,0-3.6269531,1.5605469-7.9560547,4.6425781-10.2182617,1.7539062-1.2480469,3.5878906-2.0283203,5.2646484-2.0283203,2.2236328,0,3.4716797,1.4042969,3.4716797,3.1201172,0,3.9003906-5.734375,5.7333984-10.1015625,6.5131836-.0390625.4682617-.078125,1.2480469-.078125,1.6381836,0,2.262207.6230469,4.4462891,3.0410156,4.4462891,1.7558594,0,3.8613281-1.0922852,5.7734375-3.0810547l.5839844.9750977c-3.1582031,3.6660156-6.2402344,4.4462891-8.1894531,4.4462891ZM491.3277588,39.2781749c5.6552734-1.0141602,6.9814453-2.8081055,7.0205078-4.6025391,0-1.3256836-.7802734-2.0668945-2.0283203-2.0668945-1.1699219,0-3.8603516.8579102-4.9921875,6.6694336Z"/>
      <path class="uuid-aaa196cf-a1e8-4f80-8d71-535c6b86bfc8" d="M537.7769775,30.9314952c1.2480469,0,2.4960938.5854492,1.2861328,5.5776367-.5449219,2.4179688-1.3642578,5.7329102-1.9492188,8.1899414-.234375,1.0141602-.234375,1.4433594.0390625,1.4433594.3515625,0,1.4824219-.5854492,2.9248047-2.1064453l.5849609.9750977c-1.9882812,2.6523438-4.6015625,3.9785156-5.7324219,3.9785156-.9755859,0-1.5214844-.9365234-.703125-4.2124023.6640625-2.690918,1.4433594-5.9672852,2.0673828-8.5805664.5068359-2.1450195.1953125-2.7299805-.4677734-2.7299805-1.2480469,0-4.5244141,2.184082-7.1757812,6.4741211-.703125,1.0922852-1.0537109,1.9501953-1.3652344,3.2373047-.3515625,1.5209961-.8193359,3.4711914-1.1308594,5.0703125-1.0146484.1171875-2.0292969.4677734-2.8085938.7412109l-.2734375-.2734375c.9755859-3.9780273,1.9511719-7.722168,2.7695312-11.7001953.5458984-2.4179688.4677734-3.5493164-.4296875-3.5493164-1.2871094,0-4.40625,2.340332-6.9804688,6.4741211-.6630859,1.0532227-1.0136719,2.0673828-1.3261719,3.2763672-.3515625,1.5209961-.8183594,3.4321289-1.1308594,5.03125-1.0136719.1557617-2.0673828.4677734-2.8085938.7412109l-.234375-.2734375c1.0146484-3.9780273,2.2626953-9.0483398,3.1992188-13.2993164.2724609-1.2871094.15625-1.5991211-.15625-1.5991211-.46875,0-1.5214844.8193359-2.4960938,1.7548828l-.5078125-1.0136719c1.7949219-2.1450195,3.8222656-3.6274414,5.109375-3.6274414,1.0917969,0,1.4042969,1.5600586.703125,4.5634766l-.5859375,2.6518555c3.5878906-4.9140625,7.2148438-7.215332,9.1660156-7.215332,1.3652344,0,2.3007812,1.0532227,1.2089844,6.0063477l-.2734375,1.3261719c3.4707031-4.875,7.4492188-7.3325195,9.4775391-7.3325195Z"/>
      <path class="uuid-aaa196cf-a1e8-4f80-8d71-535c6b86bfc8" d="M559.1490479,37.0159678c0,4.0561523-2.0292969,8.2294922-5.4609375,10.4130859-1.4042969.8583984-3.0419922,1.5605469-4.796875,1.5605469-3.7050781,0-5.2265625-2.9643555-5.2265625-6.0844727,0-5.3823242,2.8867188-9.2431641,6.2792969-10.9204102,1.2480469-.6240234,2.8476562-1.0532227,4.0175781-1.0532227,3.2753906,0,5.1875,2.1450195,5.1875,6.0844727ZM546.9801025,42.4759288c0,2.925293,1.0927734,4.8754883,3.2373047,4.8754883,3.7050781,0,5.6542969-5.9672852,5.6542969-10.1796875,0-3.2368164-1.4033203-4.6020508-3.2753906-4.6020508-3.9003906,0-5.6162109,5.8891602-5.6162109,9.90625Z"/>
      <path class="uuid-aaa196cf-a1e8-4f80-8d71-535c6b86bfc8" d="M561.7994385,34.7146983c1.4824219-2.0668945,3.5097656-3.7832031,4.71875-3.7832031,1.0146484,0,1.5214844,1.2094727,1.6777344,4.3681641.234375,3.8222656.2734375,7.6054688.3515625,9.984375,1.7539062-2.1450195,6.2783203-7.3320312,6.2783203-10.1010742,0-.6630859-.3505859-1.4433594-.6240234-1.8720703-.15625-.2729492-.234375-.5073242-.078125-.8193359.234375-.6630859,1.3652344-1.5600586,2.2617188-1.5600586.9365234,0,1.4433594.8969727,1.4824219,2.2231445,0,1.2089844-.5458984,3.0810547-2.3398438,5.6162109-2.1835938,3.1201172-6.0839844,7.5273438-8.3847656,10.21875h-1.1308594c-.15625-3.9785156-.3515625-9.3994141-.5859375-12.7539062-.15625-2.027832-.3896484-2.4179688-.7792969-2.4179688-.2734375,0-.9755859.3510742-2.2236328,1.8330078l-.6240234-.9360352Z"/>
      <path class="uuid-aaa196cf-a1e8-4f80-8d71-535c6b86bfc8" d="M587.8892822,45.1282725c-1.9492188,2.6132812-4.40625,3.8613281-5.5761719,3.8613281-1.0136719,0-1.4433594-1.0141602-.703125-4.1342773.625-2.5742188,1.7167969-6.7475586,2.4580078-9.9067383.1552734-.7407227.1162109-1.0917969-.1171875-1.0917969-.3896484,0-1.5595703.7802734-2.5742188,1.7548828l-.5068359-1.0136719c1.8330078-1.9892578,4.484375-3.6665039,5.7324219-3.6665039.9755859,0,1.0146484,1.3261719.3125,4.2124023-.7402344,2.8081055-1.6767578,6.7470703-2.3789062,9.5161133-.2734375,1.0532227-.2734375,1.4824219,0,1.4824219.390625,0,1.4433594-.5463867,2.8085938-1.9892578l.5449219.9750977ZM588.9820557,24.6912608c0,1.2094727-.8583984,2.262207-2.0673828,2.262207-.9746094,0-1.7158203-.7021484-1.7158203-1.7548828,0-1.0141602.7802734-2.3012695,2.1845703-2.3012695,1.0527344,0,1.5986328.8188477,1.5986328,1.7939453Z"/>
      <path class="uuid-aaa196cf-a1e8-4f80-8d71-535c6b86bfc8" d="M616.2818604,30.9314952c1.2480469,0,2.4960938.5854492,1.2871094,5.5776367-.5458984,2.4179688-1.3652344,5.7329102-1.9492188,8.1899414-.234375,1.0141602-.234375,1.4433594.0390625,1.4433594.3496094,0,1.4814453-.5854492,2.9238281-2.1064453l.5859375.9750977c-1.9892578,2.6523438-4.6025391,3.9785156-5.7333984,3.9785156-.9755859,0-1.5205078-.9365234-.7021484-4.2124023.6630859-2.690918,1.4433594-5.9672852,2.0664062-8.5805664.5078125-2.1450195.1953125-2.7299805-.4667969-2.7299805-1.2480469,0-4.5253906,2.184082-7.1767578,6.4741211-.7021484,1.0922852-1.0537109,1.9501953-1.3652344,3.2373047-.3505859,1.5209961-.8193359,3.4711914-1.1308594,5.0703125-1.0146484.1171875-2.0283203.4677734-2.8076172.7412109l-.2734375-.2734375c.9746094-3.9780273,1.9492188-7.722168,2.7695312-11.7001953.5449219-2.4179688.4667969-3.5493164-.4296875-3.5493164-1.2871094,0-4.4072266,2.340332-6.9804688,6.4741211-.6640625,1.0532227-1.0146484,2.0673828-1.3261719,3.2763672-.3515625,1.5209961-.8203125,3.4321289-1.1308594,5.03125-1.0146484.1557617-2.0683594.4677734-2.8085938.7412109l-.234375-.2734375c1.0136719-3.9780273,2.2617188-9.0483398,3.1982422-13.2993164.2724609-1.2871094.1552734-1.5991211-.1552734-1.5991211-.46875,0-1.5214844.8193359-2.4960938,1.7548828l-.5078125-1.0136719c1.7939453-2.1450195,3.8222656-3.6274414,5.109375-3.6274414,1.0917969,0,1.4042969,1.5600586.7011719,4.5634766l-.5839844,2.6518555c3.5878906-4.9140625,7.2148438-7.215332,9.1650391-7.215332,1.3652344,0,2.3017578,1.0532227,1.2089844,6.0063477l-.2724609,1.3261719c3.4707031-4.875,7.4492188-7.3325195,9.4765625-7.3325195Z"/>
      <path class="uuid-aaa196cf-a1e8-4f80-8d71-535c6b86bfc8" d="M629.7369385,45.1282725c-1.9501953,2.6132812-4.4082031,3.8613281-5.578125,3.8613281-1.0136719,0-1.4423828-1.0141602-.7011719-4.1342773.6230469-2.5742188,1.7158203-6.7475586,2.4570312-9.9067383.15625-.7407227.1171875-1.0917969-.1171875-1.0917969-.390625,0-1.5605469.7802734-2.5742188,1.7548828l-.5068359-1.0136719c1.8330078-1.9892578,4.4853516-3.6665039,5.7333984-3.6665039.9746094,0,1.0136719,1.3261719.3125,4.2124023-.7421875,2.8081055-1.6777344,6.7470703-2.3798828,9.5161133-.2724609,1.0532227-.2724609,1.4824219,0,1.4824219.3896484,0,1.4423828-.5463867,2.8076172-1.9892578l.546875.9750977ZM630.8287354,24.6912608c0,1.2094727-.8574219,2.262207-2.0664062,2.262207-.9755859,0-1.7167969-.7021484-1.7167969-1.7548828,0-1.0141602.7792969-2.3012695,2.1835938-2.3012695,1.0537109,0,1.5996094.8188477,1.5996094,1.7939453Z"/>
      <path class="uuid-aaa196cf-a1e8-4f80-8d71-535c6b86bfc8" d="M637.6529541,48.9896006c-1.8730469,0-4.4082031-1.0922852-4.4082031-5.8115234,0-3.6269531,1.5605469-7.9560547,4.6425781-10.2182617,1.7539062-1.2480469,3.5878906-2.0283203,5.2646484-2.0283203,2.2236328,0,3.4716797,1.4042969,3.4716797,3.1201172,0,3.9003906-5.734375,5.7333984-10.1015625,6.5131836-.0390625.4682617-.078125,1.2480469-.078125,1.6381836,0,2.262207.6230469,4.4462891,3.0410156,4.4462891,1.7558594,0,3.8613281-1.0922852,5.7734375-3.0810547l.5839844.9750977c-3.1582031,3.6660156-6.2402344,4.4462891-8.1894531,4.4462891ZM636.6773682,39.2781749c5.6552734-1.0141602,6.9814453-2.8081055,7.0205078-4.6025391,0-1.3256836-.7802734-2.0668945-2.0283203-2.0668945-1.1699219,0-3.8603516.8579102-4.9921875,6.6694336Z"/>
      <path class="uuid-aaa196cf-a1e8-4f80-8d71-535c6b86bfc8" d="M666.6685791,45.011085c-2.0664062,2.7304688-4.4453125,3.9785156-5.5771484,3.9785156-1.0537109,0-1.5986328-.9365234-.8583984-4.1342773.703125-2.769043,1.3652344-5.5385742,1.9511719-7.9956055.6230469-2.5351562.4667969-3.3930664-.5078125-3.3930664-1.2871094,0-4.2900391,2.184082-6.9414062,6.2402344-.703125,1.0532227-1.0146484,2.0673828-1.3261719,3.2763672-.390625,1.5209961-.8974609,3.6269531-1.2089844,5.2260742-.9755859.1948242-2.0292969.5068359-2.7695312.7802734l-.2734375-.2734375c1.0917969-4.2509766,2.2226562-9.0092773,3.1982422-13.3383789.2724609-1.2089844.1171875-1.5600586-.1943359-1.5600586-.4296875,0-1.4042969.8579102-2.3798828,1.7939453l-.5458984-1.0136719c1.7939453-2.262207,3.8222656-3.6665039,5.109375-3.6665039,1.1308594,0,1.4433594,1.3652344.6240234,4.7583008l-.5458984,2.3012695c3.4707031-4.5244141,6.9804688-7.0595703,9.3212891-7.0595703,1.2861328,0,2.4960938.8969727,1.2480469,6.1235352-.5068359,2.1450195-1.2480469,5.1479492-1.8330078,7.6049805-.234375,1.0532227-.234375,1.5209961.0390625,1.5209961.3505859,0,1.4824219-.6240234,2.8857422-2.105957l.5849609.9360352Z"/>
      <path class="uuid-aaa196cf-a1e8-4f80-8d71-535c6b86bfc8" d="M679.8892822,32.7649913c-.7792969.0776367-2.7695312.2338867-3.9394531.2338867-1.7539062,8.1123047-2.3007812,10.6083984-2.4960938,11.7783203-.1943359,1.2089844.0390625,1.5600586.390625,1.5600586.7792969,0,2.0664062-1.0141602,3.5097656-2.4570312l.5078125.9750977c-1.2480469,1.9111328-4.2910156,4.1342773-5.9677734,4.1342773-1.3652344,0-2.0283203-1.0532227-1.0146484-5.6552734l2.2626953-10.3354492h-3.1201172v-.3510742l1.1308594-1.2480469h2.3398438l.8974609-4.1733398c.6240234-.3510742,2.2626953-1.4038086,3.0810547-2.1450195l.3515625.1953125c-.46875,1.5595703-1.0917969,4.0947266-1.5214844,6.1230469h4.3291016l-.7412109,1.3652344Z"/>
      <path class="uuid-aaa196cf-a1e8-4f80-8d71-535c6b86bfc8" d="M696.3863525,37.0159678c0,4.0561523-2.0283203,8.2294922-5.4599609,10.4130859-1.4042969.8583984-3.0429688,1.5605469-4.796875,1.5605469-3.7050781,0-5.2265625-2.9643555-5.2265625-6.0844727,0-5.3823242,2.8857422-9.2431641,6.2792969-10.9204102,1.2480469-.6240234,2.8466797-1.0532227,4.0175781-1.0532227,3.2753906,0,5.1865234,2.1450195,5.1865234,6.0844727ZM684.2174072,42.4759288c0,2.925293,1.0917969,4.8754883,3.2382812,4.8754883,3.7050781,0,5.6542969-5.9672852,5.6542969-10.1796875,0-3.2368164-1.4042969-4.6020508-3.2753906-4.6020508-3.9003906,0-5.6171875,5.8891602-5.6171875,9.90625Z"/>
    </g>
  </g>
</svg>