<?xml version="1.0" encoding="UTF-8"?>
<svg id="uuid-a29e1e32-a7ab-40ce-8acb-2353e78e3009" data-name="Capa 2" xmlns="http://www.w3.org/2000/svg" viewBox="0 0 144.642871 75.4620211">
  <defs>
    <style>
      .uuid-bec82314-6361-4cdb-a753-1d3ca93d3803 {
        fill: #8bc53f;
        fill-rule: evenodd;
      }

      .uuid-bec82314-6361-4cdb-a753-1d3ca93d3803, .uuid-03512f7e-3001-49a8-a448-0c51c728507a {
        stroke-width: 0px;
      }

      .uuid-03512f7e-3001-49a8-a448-0c51c728507a {
        fill: #fff;
      }
    </style>
  </defs>
  <g id="uuid-c4e862fe-5ad3-4e45-b618-60fea9f1e44f" data-name="Capa 1">
    <path class="uuid-bec82314-6361-4cdb-a753-1d3ca93d3803" d="M30.7440296,62.2551489c3.6806729,1.8559135,8.0560836,2.2952729,12.0599577,1.4092167,8.1107418-1.7952745,17.950457-8.3859438,17.1719123-16.0417727-.7767634-7.6382229-10.7153553-10.9701851-17.2918277-10.2653673-7.7558321.8313037-17.6835478,7.9686316-18.4527793,15.17856-.3922627,3.6759013,2.6685849,5.9997744,5.6780064,7.6078474,4.5003218,2.4045776,9.8438203,2.2063819,15.8517931-.8386115-4.0608444,2.9484641-10.2256669,4.6225965-15.0170626,2.9501274ZM29.722534,27.7997017c.5427895-6.7658976-1.8331879-13.5204972-5.3681115-18.2258831C18.8943293,2.3058111,8.5106037-.2591314,1.0739945.0203851c-3.9838086,14.1739007,2.9936882,32.8063614,22.9688521,32.7066,1.0472115-3.8012607-.3975946-9.9112126-7.2670107-16.5702651,7.1907594,3.8314121,11.8041311,13.1875434,7.7748714,21.0115169-6.463216,12.5497641-5.0987545,21.0854621,5.0719238,25.6060794-8.1897594-4.5851196-8.9613147-13.1150492-2.3155508-25.5892284,1.4937845-2.8038178,2.5967571-4.799488,4.4954499-7.3387323,3.2089267-4.2916215,8.3269623-5.9963299,13.4978925-6.4671855-6.095006,1.4125374-9.8265328,4.4786992-11.3900511,7.3655512,12.5623861,7.5324867,24.7608089-.3808498,28.1510567-11.0836685-4.6240356-3.289407-12.3168872-5.9984444-18.838495-3.6494186-3.8167787,1.3747449-7.729892,4.2137098-10.281658,8.1003227.8448222-4.1205927.4849286-8.5432299-1.9497826-14.2231267,1.4031298,9.9216435.7857522,13.7411885-1.2690058,17.9108833l.0000472-.0000118Z"/>
    <g>
      <path class="uuid-03512f7e-3001-49a8-a448-0c51c728507a" d="M94.7454101,21.1749117c.9179688.4101562,1.5859375,1.0795898,2.0068359,2.0068359.4199219.9277344.6298828,2.2998047.6298828,4.1162109,0,2.7539062-.5527344,5.7231445-1.6552734,8.90625-1.1035156,3.1835938-2.6474609,6.171875-4.6289062,8.9648438-1.9824219,2.793457-4.2529297,5.0976562-6.8115234,6.9140625-2.8710938,2.0317383-5.2255859,3.046875-7.0605469,3.046875-1.4257812,0-2.7646484-.4291992-4.0136719-1.2890625-1.25-.859375-2.2460938-2.0844727-2.9882812-3.6767578-.7431641-1.5917969-1.1132812-3.4521484-1.1132812-5.5810547,0-2.96875.8154297-6.0888672,2.4462891-9.3603516,1.6298828-3.2709961,3.7011719-6.2255859,6.2109375-8.8623047,2.5087891-2.6367188,5.1269531-4.6679688,7.8515625-6.09375,2.7246094-1.425293,5.0634766-1.9233398,7.0166016-1.4941406,1.2695312.2739258,1.9726562,1.0742188,2.109375,2.4023438ZM88.0071288,26.9170992l1.0253906-2.1386719c-1.1533203.5859375-2.1679688,1.1621094-3.046875,1.7285156-.8789062.5668945-1.8896484,1.3671875-3.0322266,2.4023438-1.1425781,1.0356445-2.3398438,2.3339844-3.5888672,3.8964844-2.0322266,2.5976562-3.5644531,5.1123047-4.5996094,7.5439453-1.0361328,2.4316406-1.5527344,4.4970703-1.5527344,6.1962891,0,2.4418945.8203125,3.6621094,2.4609375,3.6621094.9375,0,2.2802734-.5078125,4.0283203-1.5234375,1.7470703-1.0151367,3.5986328-2.4121094,5.5517578-4.1894531,1.875-1.7182617,3.5195312-3.6425781,4.9365234-5.7714844,1.4160156-2.128418,2.5-4.2285156,3.2519531-6.2988281.7509766-2.0698242,1.1279297-3.8378906,1.1279297-5.3027344,0-.9375-.2050781-1.6650391-.6152344-2.1826172-.4101562-.5170898-.9277344-.7763672-1.5527344-.7763672-.5859375,0-1.2060547.2246094-1.8603516.6738281-.6552734.449707-1.4990234,1.1425781-2.5341797,2.0800781Z"/>
      <path class="uuid-03512f7e-3001-49a8-a448-0c51c728507a" d="M99.4329101,59.1436617h-4.2773438l12.421875-44.3847656h4.2480469l-12.3925781,44.3847656Z"/>
      <path class="uuid-03512f7e-3001-49a8-a448-0c51c728507a" d="M121.2297851,28.381943c-.5673828-.3320312-.9667969-.6928711-1.2011719-1.0839844-.234375-.390625-.3515625-1.0351562-.3515625-1.9335938,0-1.2495117.6542969-2.3828125,1.9628906-3.3984375,1.3076172-1.0151367,3.1533203-1.8115234,5.5371094-2.3876953,2.3828125-.5756836,5.0488281-.8642578,7.9980469-.8642578,3.1445312,0,5.5078125.5761719,7.0898438,1.7285156,1.5820312,1.152832,2.3730469,2.8520508,2.3730469,5.0976562,0,1.3286133-.2978516,2.5048828-.8935547,3.5302734-.5966797,1.0253906-1.578125,1.9677734-2.9443359,2.8271484-1.5234375.9375-6.640625,2.3046875-15.3515625,4.1015625,2.6367188.234375,4.8730469.5961914,6.7089844,1.0839844,1.8349609.4882812,3.2958984,1.25,4.3798828,2.2851562,1.0839844,1.0356445,1.6259766,2.4316406,1.6259766,4.1894531,0,1.9145508-.8349609,3.8188477-2.5048828,5.7128906-1.6699219,1.8945312-3.9990234,3.4526367-6.9873047,4.6728516-2.9882812,1.2207031-6.3095703,1.8310547-9.9609375,1.8310547-2.6181641,0-4.6484375-.4057617-6.09375-1.2158203s-2.1679688-1.8408203-2.1679688-3.0908203c0-.722168.234375-1.4892578.703125-2.2998047.46875-.8100586,1.0253906-1.5087891,1.6699219-2.0947266s1.1904297-.8789062,1.640625-.8789062c.2734375,0,.4101562.0981445.4101562.2929688,0,.1367188-.0986328.4003906-.2929688.7910156-.1953125.1953125-.2929688.4101562-.2929688.6445312,0,.46875.4541016.8691406,1.3623047,1.2011719.9082031.3325195,2.0751953.4980469,3.5009766.4980469,1.9521484,0,3.8476562-.2197266,5.6835938-.6591797,1.8349609-.4394531,3.4814453-1.0151367,4.9365234-1.7285156,1.4541016-.7128906,2.6074219-1.4692383,3.4570312-2.2705078.8496094-.8007812,1.2744141-1.5332031,1.2744141-2.1972656,0-1.3476562-.8642578-2.265625-2.5927734-2.7539062-1.7285156-.487793-4.3408203-.7324219-7.8369141-.7324219-1.1914062,0-2.3398438.1025391-3.4423828.3076172-1.1035156.2050781-1.6367188.3076172-1.5966797.3076172-.2929688,0-.4394531-.2441406-.4394531-.7324219,0-.7617188.2089844-1.7382812.6298828-2.9296875.4199219-1.190918.9121094-1.9726562,1.4794922-2.34375.3515625-.234375,1.7138672-.5566406,4.0869141-.9667969s4.4130859-.7954102,6.1230469-1.1572266c1.7089844-.3613281,3.7451172-.9711914,6.1083984-1.8310547,1.4833984-.5664062,2.5966797-1.2255859,3.3398438-1.9775391.7421875-.7514648,1.1132812-1.4306641,1.1132812-2.0361328,0-1.5234375-1.8857422-2.2851562-5.6542969-2.2851562-1.8359375,0-3.6230469.112793-5.3613281.3369141-1.7392578.2246094-3.1015625.4980469-4.0869141.8203125-.9863281.3222656-1.4794922.6298828-1.4794922.9228516,0,.2539062.1025391.4589844.3076172.6152344.2050781.1567383.4101562.2739258.6152344.3515625.2050781.078125.5419922.1953125,1.0107422.3515625.1171875.0395508.234375.1220703.3515625.2490234.1171875.1274414.1757812.2685547.1757812.4248047,0,.546875-2.0410156.7719727-6.1230469.6738281Z"/>
    </g>
  </g>
</svg>