<?xml version="1.0" encoding="UTF-8"?>
<svg id="uuid-2ca5d3c0-62b1-45db-914a-17ef3aec6104" data-name="Capa 2" xmlns="http://www.w3.org/2000/svg" viewBox="0 0 144.6426373 75.4619516">
  <defs>
    <style>
      .uuid-88278bfb-9989-4df3-ba0e-01ef159c9353 {
        fill: #8bc53f;
        fill-rule: evenodd;
      }

      .uuid-88278bfb-9989-4df3-ba0e-01ef159c9353, .uuid-73be6f62-6458-4fb1-9316-f8e9a92e3db8 {
        stroke-width: 0px;
      }

      .uuid-73be6f62-6458-4fb1-9316-f8e9a92e3db8 {
        fill: #fff;
      }
    </style>
  </defs>
  <g id="uuid-adf87833-9daa-4c9e-93d1-3c49dac8c427" data-name="Capa 1">
    <path class="uuid-88278bfb-9989-4df3-ba0e-01ef159c9353" d="M30.7440296,62.2551489c3.6806729,1.8559135,8.0560836,2.2952729,12.0599577,1.4092167,8.1107418-1.7952745,17.950457-8.3859438,17.1719123-16.0417727-.7767634-7.6382229-10.7153553-10.9701851-17.2918277-10.2653673-7.7558321.8313037-17.6835478,7.9686316-18.4527793,15.17856-.3922627,3.6759013,2.6685849,5.9997744,5.6780064,7.6078474,4.5003218,2.4045776,9.8438203,2.2063819,15.8517931-.8386115-4.0608444,2.9484641-10.2256669,4.6225965-15.0170626,2.9501274ZM29.722534,27.7997017c.5427895-6.7658976-1.8331879-13.5204972-5.3681115-18.2258831C18.8943293,2.3058111,8.5106037-.2591314,1.0739945.0203851c-3.9838086,14.1739007,2.9936882,32.8063614,22.9688521,32.7066,1.0472115-3.8012607-.3975946-9.9112126-7.2670107-16.5702651,7.1907594,3.8314121,11.8041311,13.1875434,7.7748714,21.0115169-6.463216,12.5497641-5.0987545,21.0854621,5.0719238,25.6060794-8.1897594-4.5851196-8.9613147-13.1150492-2.3155508-25.5892284,1.4937845-2.8038178,2.5967571-4.799488,4.4954499-7.3387323,3.2089267-4.2916215,8.3269623-5.9963299,13.4978925-6.4671855-6.095006,1.4125374-9.8265328,4.4786992-11.3900511,7.3655512,12.5623861,7.5324867,24.7608089-.3808498,28.1510567-11.0836685-4.6240356-3.289407-12.3168872-5.9984444-18.838495-3.6494186-3.8167787,1.3747449-7.729892,4.2137098-10.281658,8.1003227.8448222-4.1205927.4849286-8.5432299-1.9497826-14.2231267,1.4031298,9.9216435.7857522,13.7411885-1.2690058,17.9108833l.0000472-.0000118Z"/>
    <g>
      <path class="uuid-73be6f62-6458-4fb1-9316-f8e9a92e3db8" d="M77.8701763,29.436561c2.0507812.0981445,3.515625.234375,4.3945312.4101562s1.3183594.5273438,1.3183594,1.0546875c0,.234375-.0732422.3955078-.2197266.4833984s-.3857422.1567383-.7177734.2050781c-.3330078.0488281-.7226562.112793-1.171875.1904297-.6640625.1171875-1.7578125.347168-3.28125.6884766-1.5234375.3417969-2.3632812.5126953-2.5195312.5126953-.7617188,0-1.1425781-.4785156-1.1425781-1.4355469,0-.859375.1796875-1.9628906.5419922-3.3105469.3613281-1.3476562.8496094-2.6025391,1.4648438-3.7646484.6152344-1.1616211,1.2636719-1.9873047,1.9482422-2.4755859.8007812-.5664062,2.0458984-1.1376953,3.7353516-1.7138672,1.6884766-.5756836,3.5839844-1.0644531,5.6835938-1.4648438,2.0986328-.3999023,4.0175781-.6005859,5.7568359-.6005859.8789062,0,1.5273438.1220703,1.9482422.3662109.4199219.2446289.7177734.5761719.8935547.9960938.1757812.4204102.46875,1.2744141.8789062,2.5634766.390625,1.1914062.5859375,2.5488281.5859375,4.0722656,0,1.855957-.4296875,3.4570312-1.2890625,4.8046875-.8603516,1.3476562-2.0507812,2.5883789-3.5742188,3.7207031-1.5234375,1.1328125-4.1855469,2.8857422-7.9833984,5.2587891-3.7988281,2.3730469-6.7529297,4.2729492-8.8623047,5.6982422-.1953125.1367188-.5966797.3955078-1.2011719.7763672-.6054688.3808594-1.1425781.7763672-1.6113281,1.1865234s-.9482422.9375-1.4355469,1.5820312c2.6171875-.253418,6.7568359-.9667969,12.421875-2.1386719,1.5419922-.3320312,3.0419922-.6982422,4.4970703-1.0986328,1.4541016-.3999023,2.3291016-.6005859,2.6220703-.6005859.4873047,0,.7324219.2446289.7324219.7324219,0,.449707-.1025391,1.0009766-.3076172,1.6552734-.2050781.6547852-.5029297,1.3183594-.8935547,1.9921875-.3916016.6738281-.8496094,1.2553711-1.3769531,1.7431641-2.578125,2.4023438-7.5585938,3.6035156-14.9414062,3.6035156-1.9150391,0-3.1933594-.3027344-3.8378906-.9082031-.3916016-.3515625-.8017578-1.1425781-1.2304688-2.3730469-.4296875-1.2304688-.6445312-2.1386719-.6445312-2.7246094,0-1.0151367.4980469-2.2602539,1.4941406-3.7353516.9960938-1.4746094,2.3623047-2.9882812,4.1015625-4.5410156,1.7382812-1.5527344,3.6513672-2.934082,5.7421875-4.1455078,6.3671875-3.6328125,9.7451172-5.5854492,10.1367188-5.859375,1.4248047-.9765625,2.5439453-1.9628906,3.3544922-2.9589844.8095703-.9960938,1.2158203-1.796875,1.2158203-2.4023438,0-.5463867-.2197266-.9711914-.6591797-1.2744141-.4394531-.3027344-1.0595703-.4541016-1.8603516-.4541016-1.2705078,0-2.7978516.2299805-4.5849609.6884766-1.7871094.4589844-3.59375,1.1235352-5.4199219,1.9921875-1.8271484.8691406-3.3945312,1.8706055-4.7021484,3.0029297Z"/>
      <path class="uuid-73be6f62-6458-4fb1-9316-f8e9a92e3db8" d="M99.4326763,59.1435922h-4.2773438l12.421875-44.3847656h4.2480469l-12.3925781,44.3847656Z"/>
      <path class="uuid-73be6f62-6458-4fb1-9316-f8e9a92e3db8" d="M121.2295513,28.3818735c-.5673828-.3320312-.9667969-.6928711-1.2011719-1.0839844-.234375-.390625-.3515625-1.0351562-.3515625-1.9335938,0-1.2495117.6542969-2.3828125,1.9628906-3.3984375,1.3076172-1.0151367,3.1533203-1.8115234,5.5371094-2.3876953,2.3828125-.5756836,5.0488281-.8642578,7.9980469-.8642578,3.1445312,0,5.5078125.5761719,7.0898438,1.7285156,1.5820312,1.152832,2.3730469,2.8520508,2.3730469,5.0976562,0,1.3286133-.2978516,2.5048828-.8935547,3.5302734-.5966797,1.0253906-1.578125,1.9677734-2.9443359,2.8271484-1.5234375.9375-6.640625,2.3046875-15.3515625,4.1015625,2.6367188.234375,4.8730469.5961914,6.7089844,1.0839844,1.8349609.4882812,3.2958984,1.25,4.3798828,2.2851562,1.0839844,1.0356445,1.6259766,2.4316406,1.6259766,4.1894531,0,1.9145508-.8349609,3.8188477-2.5048828,5.7128906-1.6699219,1.8945312-3.9990234,3.4526367-6.9873047,4.6728516-2.9882812,1.2207031-6.3095703,1.8310547-9.9609375,1.8310547-2.6181641,0-4.6484375-.4057617-6.09375-1.2158203s-2.1679688-1.8408203-2.1679688-3.0908203c0-.722168.234375-1.4892578.703125-2.2998047.46875-.8100586,1.0253906-1.5087891,1.6699219-2.0947266s1.1904297-.8789062,1.640625-.8789062c.2734375,0,.4101562.0981445.4101562.2929688,0,.1367188-.0986328.4003906-.2929688.7910156-.1953125.1953125-.2929688.4101562-.2929688.6445312,0,.46875.4541016.8691406,1.3623047,1.2011719.9082031.3325195,2.0751953.4980469,3.5009766.4980469,1.9521484,0,3.8476562-.2197266,5.6835938-.6591797,1.8349609-.4394531,3.4814453-1.0151367,4.9365234-1.7285156,1.4541016-.7128906,2.6074219-1.4692383,3.4570312-2.2705078.8496094-.8007812,1.2744141-1.5332031,1.2744141-2.1972656,0-1.3476562-.8642578-2.265625-2.5927734-2.7539062-1.7285156-.487793-4.3408203-.7324219-7.8369141-.7324219-1.1914062,0-2.3398438.1025391-3.4423828.3076172-1.1035156.2050781-1.6367188.3076172-1.5966797.3076172-.2929688,0-.4394531-.2441406-.4394531-.7324219,0-.7617188.2089844-1.7382812.6298828-2.9296875.4199219-1.190918.9121094-1.9726562,1.4794922-2.34375.3515625-.234375,1.7138672-.5566406,4.0869141-.9667969s4.4130859-.7954102,6.1230469-1.1572266c1.7089844-.3613281,3.7451172-.9711914,6.1083984-1.8310547,1.4833984-.5664062,2.5966797-1.2255859,3.3398438-1.9775391.7421875-.7514648,1.1132812-1.4306641,1.1132812-2.0361328,0-1.5234375-1.8857422-2.2851562-5.6542969-2.2851562-1.8359375,0-3.6230469.112793-5.3613281.3369141-1.7392578.2246094-3.1015625.4980469-4.0869141.8203125-.9863281.3222656-1.4794922.6298828-1.4794922.9228516,0,.2539062.1025391.4589844.3076172.6152344.2050781.1567383.4101562.2739258.6152344.3515625.2050781.078125.5419922.1953125,1.0107422.3515625.1171875.0395508.234375.1220703.3515625.2490234.1171875.1274414.1757812.2685547.1757812.4248047,0,.546875-2.0410156.7719727-6.1230469.6738281Z"/>
    </g>
  </g>
</svg>