<?xml version="1.0" standalone="no"?>
<!DOCTYPE svg PUBLIC "-//W3C//DTD SVG 20010904//EN"
 "http://www.w3.org/TR/2001/REC-SVG-20010904/DTD/svg10.dtd">
<svg version="1.0" xmlns="http://www.w3.org/2000/svg"
 width="861.000000pt" height="367.000000pt" viewBox="0 0 861.000000 367.000000"
 preserveAspectRatio="xMidYMid meet">

<g transform="translate(0.000000,367.000000) scale(0.100000,-0.100000)"
fill="#000000" stroke="none">
<path d="M5753 3253 c313 -2 821 -2 1130 0 309 1 54 2 -568 2 -621 0 -874 -1
-562 -2z"/>
<path d="M7520 3206 c0 -2 8 -10 18 -17 15 -13 16 -12 3 4 -13 16 -21 21 -21
13z"/>
<path d="M4018 3173 l-438 -3 0 -142 c0 -121 -3 -148 -20 -183 -53 -110 -217
-113 -272 -4 -15 28 -18 61 -18 177 l0 143 -569 -3 -570 -3 -32 -30 c-17 -16
-44 -57 -60 -90 l-29 -60 0 -352 0 -353 -34 0 c-53 0 -159 -37 -215 -74 -105
-71 -190 -197 -211 -316 -11 -63 0 -183 24 -247 21 -58 88 -155 133 -193 67
-55 174 -102 247 -107 l66 -6 0 -261 c1 -326 10 -448 39 -504 33 -65 77 -108
143 -142 l61 -30 353 0 353 0 6 -37 c19 -132 50 -196 134 -285 l66 -68 267 0
267 0 59 55 c76 71 128 167 144 268 l12 74 347 6 c320 7 351 9 396 28 60 25
127 89 161 154 l27 50 0 512 0 513 -152 0 c-83 0 -154 4 -157 8 -3 5 -18 7
-33 5 -37 -6 -92 32 -116 77 -23 44 -18 121 10 158 11 15 35 36 54 47 31 18
49 19 212 16 l179 -3 -7 509 c-8 575 -8 570 -89 657 l-42 46 -130 -2 c-71 -2
-326 -4 -566 -5z m-1586 -620 c10 -9 18 -20 18 -25 0 -13 -30 -9 -46 7 -30 29
-66 -14 -44 -55 13 -24 33 -26 51 -4 7 8 20 14 28 11 9 -2 30 3 46 10 30 14
30 14 3 8 -32 -6 -37 9 -8 25 34 18 60 -4 60 -49 0 -36 -2 -39 -32 -44 -24 -4
-37 0 -49 13 -13 16 -18 16 -30 5 -26 -25 -55 -26 -82 -4 -32 24 -36 72 -10
101 20 22 70 23 95 1z m289 -23 c28 -16 23 -31 -8 -25 l-28 5 28 -11 c32 -13
36 -43 7 -59 -14 -8 -26 -8 -40 0 -29 16 -24 31 8 25 l27 -6 -27 16 c-32 18
-36 39 -10 54 21 13 20 13 43 1z m100 0 c14 -8 19 -21 19 -49 0 -36 -2 -39
-32 -44 -61 -9 -80 34 -25 59 l32 15 -32 -6 c-27 -5 -32 -4 -27 9 3 8 13 17
22 19 10 3 18 5 20 6 2 0 12 -4 23 -9z m109 -21 c0 -5 -12 -7 -27 -4 -26 6
-25 5 5 -9 17 -8 32 -19 32 -23 -1 -28 -43 -48 -71 -33 -31 17 -23 32 14 25
l32 -6 -32 15 c-38 17 -43 43 -10 55 23 9 57 -3 57 -20z m-348 -11 c4 -46 28
-49 28 -4 0 29 4 36 20 36 17 0 20 -7 20 -44 0 -43 -1 -44 -35 -48 -50 -6 -65
6 -65 52 0 50 27 57 32 8z m-412 -333 c0 -25 -4 -45 -10 -45 -5 0 -10 14 -10
30 0 17 -5 30 -12 30 -11 1 18 30 29 30 2 0 3 -20 3 -45z m91 -25 c10 0 19 -4
19 -10 0 -5 -11 -10 -25 -10 -23 0 -25 3 -23 48 1 43 2 44 5 10 3 -30 9 -38
24 -38z m129 25 c0 -25 -4 -45 -10 -45 -11 0 -14 73 -3 83 11 12 13 8 13 -38z
m17 -22 c-2 -16 -4 -5 -4 22 0 28 2 40 4 28 2 -13 2 -35 0 -50z m413 20 c-1
-42 -2 -46 -14 -30 -13 17 -62 25 -51 7 3 -5 13 -6 23 -3 13 5 15 3 5 -7 -18
-19 -45 -4 -41 22 2 17 10 23 28 23 14 0 28 7 32 18 12 29 18 19 18 -30z m90
1 c0 -27 -4 -43 -10 -39 -5 3 -10 15 -10 26 0 30 -20 22 -21 -8 l-1 -28 -7 30
c-9 37 4 65 29 65 17 0 20 -7 20 -46z m250 0 c0 -44 -1 -45 -27 -42 -34 4 -46
44 -16 55 10 3 22 12 26 20 13 22 17 15 17 -33z m-820 -15 c0 -24 -4 -29 -25
-29 -21 0 -24 4 -23 28 4 50 48 52 48 1z m290 -11 c0 -15 -7 -18 -40 -16 -36
3 -40 6 -40 31 0 29 19 39 21 10 0 -14 2 -15 6 -3 15 38 53 22 53 -22z m438 8
c-2 -15 -10 -21 -28 -21 -31 0 -40 33 -14 52 22 16 46 -1 42 -31z m156 18 c4
-10 -2 -14 -20 -14 -14 0 -23 -4 -19 -10 3 -5 13 -6 23 -3 13 5 15 3 5 -7 -17
-19 -43 -4 -43 24 0 36 41 44 54 10z m76 -15 c0 -26 -3 -30 -22 -27 -18 2 -22
9 -20 28 3 25 20 42 34 34 4 -3 8 -19 8 -35z m68 -8 c-2 -29 -8 -37 -26 -39
-15 -2 -22 1 -21 10 1 7 -2 22 -6 32 -6 13 -3 23 9 32 29 21 47 6 44 -35z
m132 8 c0 -24 -4 -29 -25 -29 -29 0 -34 23 -7 40 16 11 16 11 0 6 -20 -6 -25
10 -5 17 23 8 37 -5 37 -34z m-1047 -16 c6 2 14 14 18 28 7 22 7 22 8 -6 1
-26 -3 -31 -24 -33 -22 -2 -25 2 -24 31 2 31 2 31 6 4 3 -16 10 -26 16 -24z
m71 33 c4 9 9 15 12 12 2 -3 0 -18 -6 -33 -12 -31 -24 -25 -34 15 -7 23 -6 24
7 7 14 -16 15 -16 21 -1z m152 -1 c6 -14 8 -13 20 2 18 24 17 13 -3 -33 l-16
-39 -7 31 c-4 17 -10 36 -14 42 -4 7 -2 12 4 12 6 0 13 -7 16 -15z m264 -11
c0 -14 4 -23 10 -19 6 3 10 15 10 26 0 10 5 19 11 19 6 0 9 -12 7 -27 -2 -22
-8 -28 -28 -28 -20 0 -26 6 -28 28 -2 15 1 27 7 27 6 0 11 -12 11 -26z m60
-14 c0 -32 -4 -40 -17 -39 -11 0 -13 3 -5 6 6 2 12 20 12 39 0 19 2 34 5 34 3
0 5 -18 5 -40z m400 14 c0 -14 4 -23 10 -19 6 3 10 15 10 26 0 10 5 19 10 19
6 0 10 -13 10 -29 0 -24 -4 -28 -27 -27 -23 1 -29 6 -31 29 -2 15 1 27 7 27 6
0 11 -12 11 -26z m-1214 -238 c3 -8 1 -24 -6 -35 -7 -14 -7 -21 0 -21 5 0 10
-4 10 -10 0 -5 -14 -10 -32 -10 l-31 0 21 23 c23 25 33 72 10 49 -17 -17 -33
-15 -18 3 16 19 39 19 46 1z m95 -56 c10 0 19 -4 19 -10 0 -5 -11 -10 -25 -10
-23 0 -25 3 -23 48 1 43 2 44 5 10 3 -30 9 -38 24 -38z m1469 26 c0 -38 -3
-43 -21 -42 -31 1 -47 30 -29 51 7 9 19 14 27 11 7 -3 13 1 13 9 0 8 2 15 5
15 3 0 5 -20 5 -44z m330 34 c0 -5 -4 -10 -10 -10 -5 0 -10 5 -10 10 0 6 5 10
10 10 6 0 10 -4 10 -10z m147 -57 c-2 -16 -4 -5 -4 22 0 28 2 40 4 28 2 -13 2
-35 0 -50z m-1648 26 c-7 -4 -9 -14 -4 -25 6 -16 9 -14 22 14 17 40 37 37 41
-6 3 -32 2 -32 -34 -30 -32 3 -39 8 -45 32 -10 36 -2 51 17 35 11 -9 12 -14 3
-20z m367 -14 c-1 -39 -17 -41 -27 -4 -7 30 -1 49 15 43 7 -3 12 -20 12 -39z
m209 2 c0 -41 -16 -44 -26 -6 -7 29 0 51 15 46 6 -2 11 -20 11 -40z m440 0 c0
-39 -18 -46 -23 -9 -5 32 -32 28 -32 -5 0 -20 -3 -24 -11 -16 -9 9 -17 9 -31
0 -16 -10 -22 -9 -33 6 -10 15 -15 16 -22 5 -4 -7 -18 -19 -30 -26 -22 -12
-23 -11 -23 27 0 46 23 61 51 35 11 -10 19 -12 19 -7 0 18 29 23 44 8 9 -9 16
-11 18 -4 2 5 13 11 26 12 12 0 22 5 22 10 0 5 6 7 12 5 7 -3 13 -21 13 -41z
m485 -7 c0 -20 -5 -26 -25 -28 -21 -1 -25 3 -25 23 0 37 -37 35 -43 -2 -3 -23
-4 -21 -6 9 -1 32 2 36 19 33 11 -2 22 0 25 5 3 4 16 3 30 -3 17 -8 25 -20 25
-37z m-1720 14 c0 -8 -9 -14 -21 -14 -11 0 -18 -4 -14 -10 3 -5 13 -6 22 -3
11 4 14 3 9 -5 -11 -18 -34 -14 -46 7 -7 15 -6 23 5 35 18 17 45 11 45 -10z
m113 4 c14 -21 2 -48 -22 -48 -24 0 -31 18 -20 48 10 25 27 25 42 0z m63 -19
c1 -26 1 -28 -3 -6 -2 15 -10 27 -18 27 -8 0 -16 -12 -18 -27 -4 -27 -4 -27
-6 4 -1 30 12 44 34 39 6 -1 11 -18 11 -37z m207 32 c4 -1 7 -15 7 -32 0 -17
-4 -28 -10 -24 -5 3 -10 15 -10 26 0 10 -4 19 -10 19 -5 0 -10 -12 -10 -26 0
-14 -4 -23 -10 -19 -5 3 -10 15 -10 26 0 29 -18 23 -23 -8 -4 -27 -4 -27 -6 4
-1 34 10 42 49 37 14 -1 28 -3 33 -3z m81 3 c23 -9 20 -34 -5 -34 -11 0 -18
-4 -14 -10 3 -5 13 -6 23 -3 14 5 15 4 4 -8 -10 -10 -17 -11 -31 -2 -14 9 -21
9 -30 0 -8 -8 -11 -2 -11 22 0 25 4 32 15 28 8 -4 17 -2 20 3 7 12 9 12 29 4z
m79 -16 c6 -9 7 -23 2 -34 -8 -17 -9 -16 -13 9 -4 31 -22 37 -22 8 0 -11 -4
-23 -10 -26 -6 -4 -10 6 -10 24 0 41 32 53 53 19z m101 6 c19 -19 4 -57 -21
-52 -26 5 -39 34 -24 52 17 20 26 20 45 0z m189 -6 c-6 -7 -13 -22 -16 -33 -3
-13 -5 -10 -6 12 0 17 5 33 12 36 17 6 22 0 10 -15z m51 16 c10 -4 16 -18 16
-36 0 -25 -4 -29 -22 -26 -23 3 -34 28 -24 54 6 16 8 16 30 8z m81 -22 c11
-25 32 -36 40 -22 4 6 -1 10 -10 10 -10 0 -15 7 -13 18 6 30 33 20 33 -13 0
-27 -3 -30 -32 -30 -28 -1 -33 3 -33 23 0 30 -22 24 -31 -9 -6 -22 -7 -21 -8
8 -1 46 35 56 54 15z m335 2 c0 -8 -9 -14 -21 -14 -11 0 -18 -4 -14 -10 3 -5
13 -6 22 -3 11 4 14 3 9 -5 -11 -18 -34 -14 -46 7 -7 15 -6 23 5 35 18 17 45
11 45 -10z m148 14 c18 -18 15 -28 -10 -29 -21 0 -21 -1 -4 -8 12 -5 16 -10 9
-14 -17 -11 -43 3 -43 22 0 17 18 41 30 41 3 0 11 -5 18 -12z m96 -10 c13 -18
16 -19 16 -6 0 23 18 32 35 18 34 -28 3 -76 -34 -53 -16 10 -48 -1 -63 -22 -4
-5 -8 9 -8 32 0 37 8 49 32 52 4 1 14 -9 22 -21z m236 2 c0 -5 -9 -6 -20 -3
-13 4 -20 0 -20 -9 0 -23 12 -29 28 -15 13 10 14 9 10 -3 -2 -8 -13 -15 -24
-15 -22 0 -33 43 -13 55 14 9 39 2 39 -10z m148 -17 c3 -26 0 -30 -20 -29 -17
1 -23 7 -24 26 -3 49 39 52 44 3z m52 27 c12 -8 12 -10 -5 -10 -17 0 -16 -3 8
-18 36 -22 34 -31 -5 -29 -28 2 -33 6 -34 27 -3 40 8 48 36 30z m-1936 -14 c4
9 9 15 12 12 2 -3 -1 -18 -8 -33 -11 -25 -13 -25 -25 -9 -7 10 -13 25 -13 33
1 13 3 13 14 -2 13 -16 14 -16 20 -1z m660 2 c5 -10 7 -10 12 0 3 6 9 12 14
12 5 0 1 -18 -7 -40 -9 -22 -20 -40 -24 -40 -5 0 -6 6 -3 13 3 8 0 26 -5 40
-10 26 2 39 13 15z m1111 -29 c6 0 13 10 17 23 5 20 6 19 7 -8 1 -26 -3 -31
-21 -30 -18 1 -23 8 -25 31 -2 25 -1 26 5 7 4 -13 12 -23 17 -23z m-1987 -252
c4 -44 -19 -60 -46 -33 -16 16 -15 17 11 11 17 -5 27 -3 27 4 0 6 -8 11 -17
11 -17 1 -17 1 -1 14 10 7 15 16 11 19 -3 4 -12 2 -20 -4 -13 -12 -19 2 -6 15
18 17 38 -1 41 -37z m93 -27 c10 0 19 -4 19 -10 0 -5 -11 -10 -25 -10 -23 0
-25 3 -23 48 1 43 2 44 5 10 3 -30 9 -38 24 -38z m186 3 c-2 -16 -4 -5 -4 22
0 28 2 40 4 28 2 -13 2 -35 0 -50z m33 20 c0 -35 -3 -44 -11 -36 -7 7 -9 25
-5 47 9 50 16 45 16 -11z m127 -20 c-2 -16 -4 -5 -4 22 0 28 2 40 4 28 2 -13
2 -35 0 -50z m210 0 c-2 -16 -4 -5 -4 22 0 28 2 40 4 28 2 -13 2 -35 0 -50z
m57 52 c-4 -8 -1 -15 6 -15 6 0 10 -11 8 -27 -2 -20 -9 -28 -22 -28 -31 0 -41
28 -21 58 19 29 38 37 29 12z m176 -24 c0 -31 -4 -41 -20 -46 -27 -9 -40 1
-40 32 0 16 7 27 20 30 11 3 20 9 20 14 0 5 5 9 10 9 6 0 10 -18 10 -39z m138
-7 c3 -42 1 -45 -19 -42 -31 4 -35 26 -7 37 18 8 19 10 5 10 -15 1 -16 5 -7
21 17 31 25 24 28 -26z m83 22 c6 3 16 0 24 -6 11 -9 18 -10 29 -1 20 17 46 2
46 -25 0 -29 -24 -41 -45 -24 -10 8 -19 9 -27 3 -7 -6 -21 -10 -30 -10 -15 0
-18 9 -17 46 1 25 3 38 6 28 2 -9 9 -15 14 -11z m129 -3 c0 -25 1 -26 14 -8 8
11 19 16 30 12 24 -9 20 -37 -6 -38 -22 -1 -22 -1 2 -9 23 -7 23 -8 6 -15 -13
-6 -23 -3 -32 10 -8 10 -14 13 -14 7 0 -7 -4 -12 -10 -12 -5 0 -10 18 -10 40
0 22 5 40 10 40 6 0 10 -12 10 -27z m660 17 c0 -5 -2 -10 -4 -10 -3 0 -8 5
-11 10 -3 6 -1 10 4 10 6 0 11 -4 11 -10z m47 3 c-4 -3 1 -15 10 -25 13 -15
15 -23 6 -36 -14 -23 -47 -22 -51 2 -5 22 17 66 31 66 6 0 7 -3 4 -7z m-203
-38 c-3 -12 -1 -26 5 -29 6 -4 11 -2 11 4 0 6 10 15 23 20 l22 9 -24 0 c-19 1
-22 4 -14 12 19 19 43 2 43 -31 0 -29 -2 -30 -37 -28 -31 3 -38 8 -44 32 -9
32 -3 50 12 41 5 -4 6 -17 3 -30z m-1566 -11 c3 -27 0 -31 -20 -30 -17 1 -23
7 -24 26 -2 32 4 42 24 38 11 -2 18 -15 20 -34z m80 24 c18 -18 15 -28 -10
-29 -21 0 -21 -1 -4 -8 14 -5 16 -10 7 -15 -13 -9 -41 10 -41 28 0 13 20 36
30 36 3 0 11 -5 18 -12z m158 -28 c1 -27 1 -28 -3 -7 -5 31 -23 37 -23 8 0
-11 -4 -23 -10 -26 -6 -4 -10 5 -10 19 0 14 -4 26 -10 26 -5 0 -10 -9 -10 -20
0 -11 -4 -20 -10 -20 -15 0 -12 48 3 53 6 2 26 3 42 3 27 -1 30 -5 31 -36z
m102 7 c2 -15 -1 -27 -7 -27 -6 0 -11 9 -11 20 0 11 -4 20 -10 20 -5 0 -10 -9
-10 -20 0 -11 -4 -20 -10 -20 -15 0 -12 47 3 53 25 11 42 1 45 -26z m60 -3 c3
-27 0 -31 -20 -30 -24 1 -34 25 -24 52 10 27 41 11 44 -22z m59 19 c3 -7 -3
-9 -16 -6 -15 4 -21 1 -21 -12 0 -13 6 -16 21 -12 13 3 19 1 16 -6 -2 -7 -12
-12 -23 -12 -20 0 -30 26 -20 51 7 17 37 15 43 -3z m147 11 c17 -7 22 -54 6
-54 -5 0 -10 9 -10 20 0 11 -4 20 -10 20 -5 0 -10 -9 -10 -20 0 -11 -4 -20
-10 -20 -15 0 -12 47 3 53 6 3 13 6 14 6 1 1 8 -2 17 -5z m164 -17 c2 -12 -3
-17 -20 -18 -23 -1 -23 -1 2 -9 21 -6 22 -8 8 -15 -9 -4 -22 -4 -28 0 -11 7
-14 48 -3 59 12 12 38 2 41 -17z m132 11 c0 -4 -4 -8 -9 -8 -5 0 -12 -12 -14
-27 -3 -24 -4 -22 -6 8 -1 26 3 36 14 36 8 0 15 -4 15 -9z m270 2 c13 -8 12
-10 -4 -10 -20 0 -20 0 0 -14 15 -11 16 -17 7 -27 -19 -20 -42 -3 -39 28 5 39
8 41 36 23z m74 -8 c3 12 8 20 11 16 7 -7 -24 -88 -34 -88 -3 0 -6 12 -7 28 0
15 -4 36 -8 47 -7 18 -6 18 12 -2 l20 -22 6 21z m80 -1 c5 15 9 19 13 11 3 -9
9 -10 18 -2 16 13 45 3 45 -16 0 -8 -10 -14 -22 -15 -22 -1 -22 -1 2 -9 23 -7
23 -8 6 -15 -14 -6 -24 -2 -37 14 l-18 21 -7 -22 c-6 -21 -7 -21 -20 -3 -8 10
-14 28 -14 39 1 20 2 19 14 -3 l13 -23 7 23z m138 5 c11 -11 14 -11 24 2 13
18 44 9 44 -13 0 -9 -9 -15 -22 -16 -22 -1 -22 -1 2 -9 23 -7 24 -8 6 -15 -14
-6 -23 -4 -30 7 -9 15 -11 14 -21 -5 -16 -33 -47 -28 -52 7 -7 52 19 75 49 42z
m223 4 c3 -5 12 -7 20 -3 11 4 15 -2 15 -21 0 -14 -4 -26 -10 -26 -5 0 -10 6
-10 14 0 16 -27 29 -41 20 -14 -9 1 -26 18 -20 9 4 13 1 11 -6 -6 -18 -29 -16
-41 4 -8 12 -7 21 2 32 15 18 27 20 36 6z m161 -30 c1 -26 1 -28 -3 -7 -2 15
-10 27 -18 27 -8 0 -16 -12 -18 -27 -3 -23 -4 -22 -6 8 -1 32 2 36 22 35 18
-1 22 -7 23 -36z m-2016 -260 c0 -45 1 -44 -35 -30 l-26 10 23 30 c29 40 38
38 38 -10z m118 7 c16 -44 15 -52 -4 -36 -12 10 -20 10 -35 1 -23 -15 -23 -12
-5 33 19 44 29 44 44 2z m302 24 c0 -5 8 -8 17 -7 13 1 17 -8 18 -36 1 -30 -1
-35 -11 -27 -7 6 -15 20 -17 32 -4 18 -5 17 -6 -5 -2 -44 -21 -33 -21 12 0 22
5 40 10 40 6 0 10 -4 10 -9z m567 -53 c-2 -13 -4 -3 -4 22 0 25 2 35 4 23 2
-13 2 -33 0 -45z m-197 31 c0 -5 -4 -9 -10 -9 -5 0 -10 -7 -10 -15 0 -8 5 -15
10 -15 6 0 10 -5 10 -11 0 -6 -5 -9 -12 -7 -13 5 -30 57 -22 69 6 10 34 0 34
-12z m-602 2 c18 -11 11 -61 -10 -75 -13 -8 -21 -7 -30 3 -11 12 -10 13 4 8
10 -3 20 -2 23 4 4 5 3 9 -2 8 -23 -4 -33 3 -33 24 0 36 19 47 48 28z m52 3
c0 -1 -7 -15 -15 -30 l-15 -29 0 31 c0 21 5 31 15 31 8 0 15 -1 15 -3z m47 -3
c14 12 43 5 43 -10 0 -5 -9 -7 -20 -4 -14 4 -20 0 -20 -12 0 -13 6 -16 22 -12
20 6 20 5 5 -11 -13 -12 -20 -13 -28 -5 -6 6 -18 9 -25 6 -10 -4 -14 4 -14 28
0 25 3 30 12 21 8 -8 15 -9 25 -1z m76 -38 c6 2 14 14 18 28 6 22 7 21 8 -7 1
-21 -5 -34 -15 -38 -24 -9 -34 2 -33 37 2 31 2 31 6 4 3 -16 10 -26 16 -24z
m127 16 c0 -10 5 -19 10 -19 6 0 10 12 10 26 0 14 4 23 10 19 19 -12 11 -52
-12 -58 -30 -8 -38 -1 -38 34 0 18 4 28 10 24 6 -3 10 -15 10 -26z m80 19 c0
-4 -4 -8 -9 -8 -5 0 -12 -12 -14 -27 -3 -24 -4 -22 -6 8 -1 26 3 36 14 36 8 0
15 -4 15 -9z m58 -19 c4 -32 -24 -47 -47 -25 -13 14 -12 16 10 25 18 7 20 10
6 10 -10 1 -15 6 -12 12 12 19 40 5 43 -22z m52 -5 c0 -13 -4 -24 -10 -24 -5
0 -10 14 -10 31 0 17 4 28 10 24 6 -3 10 -17 10 -31z m56 -4 c1 -26 1 -28 -3
-7 -2 15 -10 27 -18 27 -8 0 -16 -12 -18 -27 -3 -23 -4 -22 -6 8 -1 32 2 36
22 35 18 -1 22 -7 23 -36z m98 34 c24 -9 19 -34 -6 -35 -21 0 -21 -1 -4 -8 14
-5 16 -10 7 -15 -13 -9 -41 10 -41 28 0 7 5 17 12 24 14 14 12 14 32 6z m73
-29 c1 -20 0 -23 -4 -7 -6 31 -31 28 -36 -5 -3 -23 -4 -22 -6 8 -1 32 2 36 22
35 17 -1 22 -7 24 -31z m58 25 c3 -5 -2 -11 -12 -11 -17 -1 -17 -2 0 -6 18 -5
23 -28 8 -37 -19 -12 -40 6 -36 32 1 15 3 28 4 30 3 6 31 1 36 -8z m75 -9 c5
9 21 16 37 15 22 -1 29 -6 31 -27 3 -29 -24 -48 -42 -29 -8 8 -6 15 8 26 19
14 19 14 -1 14 -13 0 -24 -8 -28 -20 -9 -27 -24 -25 -35 6 -14 36 -12 42 6 19
13 -18 16 -18 24 -4z m-1057 -248 c-28 -5 -30 -19 -3 -26 24 -6 27 -42 3 -51
-9 -4 -23 0 -32 9 -15 15 -14 16 13 9 22 -5 28 -4 24 7 -3 8 -13 13 -22 13
-11 -1 -16 6 -16 22 0 20 5 24 28 23 23 -2 24 -2 5 -6z m145 -13 c5 -13 3 -13
-11 -1 -22 17 -47 7 -47 -19 0 -25 25 -37 45 -20 10 8 15 9 15 2 0 -18 -33
-31 -52 -21 -18 10 -25 59 -11 73 12 12 56 2 61 -14z m527 10 c-3 -6 1 -13 9
-16 22 -8 20 -41 -2 -53 -37 -20 -56 27 -25 61 17 19 28 24 18 8z m340 -14 c8
3 19 -3 26 -14 12 -19 49 -20 49 -1 0 5 -7 5 -17 2 -11 -4 -14 -3 -9 5 12 21
35 13 42 -13 9 -36 5 -38 -56 -34 -8 0 -25 -2 -37 -5 -21 -5 -23 -2 -22 42 1
26 3 39 6 30 2 -9 10 -15 18 -12z m431 15 c-3 -5 1 -14 9 -21 20 -17 19 -37
-2 -48 -24 -13 -43 -4 -43 19 0 22 21 59 33 59 4 0 6 -4 3 -9z m-1071 -43 c1
-26 -2 -35 -12 -31 -7 3 -13 15 -13 27 0 15 -6 22 -20 22 -25 0 -25 -5 -2 -22
14 -11 15 -15 3 -23 -15 -10 -41 -4 -41 9 0 5 10 6 23 4 22 -5 22 -4 -1 6 -28
12 -24 35 6 35 11 0 24 4 28 8 15 15 28 0 29 -35z m-161 9 c9 -15 7 -21 -8
-32 -22 -17 -46 -4 -46 25 0 35 34 39 54 7z m63 -17 c1 -34 1 -34 -5 -5 -8 35
-24 36 -34 3 -5 -20 -6 -19 -7 8 -1 26 3 31 22 30 18 -1 22 -7 24 -36z m143
34 c0 -1 -7 -15 -15 -30 l-15 -29 0 31 c0 21 5 31 15 31 8 0 15 -1 15 -3z m30
-25 c0 -10 5 -19 10 -19 6 0 10 12 10 27 0 20 3 24 11 16 9 -9 16 -9 30 0 14
9 21 9 31 -1 8 -8 15 -9 25 -1 15 13 43 5 43 -12 0 -8 -4 -9 -13 0 -15 12 -27
5 -27 -17 0 -10 7 -13 22 -9 20 6 20 5 5 -10 -13 -13 -19 -14 -31 -3 -13 10
-19 10 -31 0 -10 -8 -19 -9 -27 -2 -7 5 -22 6 -33 2 -30 -11 -45 -1 -45 32 0
17 4 27 10 23 6 -3 10 -15 10 -26z m177 -16 c-3 -10 -5 -2 -5 17 0 19 2 27 5
18 2 -10 2 -26 0 -35z m132 14 c-1 -23 -3 -26 -6 -9 -6 31 -31 28 -36 -5 -3
-24 -4 -23 -6 7 -1 31 2 36 24 38 22 2 25 -2 24 -31z m74 14 c3 13 9 21 12 17
3 -3 -2 -25 -12 -49 l-18 -44 -6 30 c-4 17 -7 39 -7 50 -1 18 0 17 12 -4 l13
-23 6 23z m72 -31 c8 0 16 12 18 28 4 26 4 26 6 -4 0 -21 -5 -34 -15 -38 -24
-9 -34 2 -33 37 2 30 2 31 6 5 2 -16 10 -28 18 -28z m75 40 c0 -5 -4 -10 -9
-10 -5 0 -12 -10 -14 -22 -3 -17 -5 -14 -6 10 -1 22 3 32 14 32 8 0 15 -4 15
-10z m187 -30 c1 -34 1 -34 -5 -5 -8 35 -24 36 -34 3 -5 -20 -6 -19 -7 8 -1
26 3 31 22 30 18 -1 22 -7 24 -36z m33 10 c0 -16 -4 -30 -10 -30 -11 0 -14 43
-3 53 11 12 13 8 13 -23z m50 17 c0 -7 -5 -18 -12 -25 -9 -9 -9 -12 3 -12 15
1 49 23 49 33 0 4 -8 4 -17 0 -14 -5 -16 -3 -6 7 17 19 43 4 43 -25 0 -14 -3
-25 -7 -26 -89 -12 -113 -3 -81 29 9 9 9 12 0 12 -7 0 -12 5 -12 10 0 6 9 10
20 10 11 0 20 -6 20 -13z m116 1 c4 -6 3 -8 -3 -5 -6 4 -16 0 -22 -7 -7 -9 -8
-17 -2 -20 14 -9 41 4 41 19 0 8 5 17 10 20 6 4 10 -7 10 -25 0 -21 -4 -30
-12 -27 -7 2 -20 1 -29 -4 -22 -11 -43 13 -34 41 7 22 30 27 41 8z m161 -23
c2 -25 1 -26 -5 -7 -4 13 -11 23 -17 23 -5 0 -13 -10 -17 -23 -5 -19 -6 -18
-7 10 -1 29 2 33 22 30 17 -2 22 -10 24 -33z m33 -19 c0 -3 -4 -8 -10 -11 -5
-3 -10 -1 -10 4 0 6 5 11 10 11 6 0 10 -2 10 -4z"/>
<path d="M2485 2470 c-3 -5 1 -10 9 -10 9 0 16 5 16 10 0 6 -4 10 -9 10 -6 0
-13 -4 -16 -10z"/>
<path d="M2785 2470 c-3 -5 1 -10 9 -10 9 0 16 5 16 10 0 6 -4 10 -9 10 -6 0
-13 -4 -16 -10z"/>
<path d="M2758 2163 c7 -3 16 -2 19 1 4 3 -2 6 -13 5 -11 0 -14 -3 -6 -6z"/>
<path d="M3115 2160 c-8 -13 4 -32 16 -25 12 8 12 35 0 35 -6 0 -13 -4 -16
-10z"/>
<path d="M2305 2140 c-3 -5 -1 -10 4 -10 6 0 11 5 11 10 0 6 -2 10 -4 10 -3 0
-8 -4 -11 -10z"/>
<path d="M2590 2139 c0 -5 5 -7 10 -4 6 3 10 8 10 11 0 2 -4 4 -10 4 -5 0 -10
-5 -10 -11z"/>
<path d="M3026 2162 c-2 -4 -1 -14 4 -22 7 -11 12 -12 21 -3 6 6 8 16 5 22 -8
13 -23 14 -30 3z"/>
<path d="M3188 2163 c7 -3 16 -2 19 1 4 3 -2 6 -13 5 -11 0 -14 -3 -6 -6z"/>
<path d="M3270 2139 c0 -5 5 -7 10 -4 6 3 10 8 10 11 0 2 -4 4 -10 4 -5 0 -10
-5 -10 -11z"/>
<path d="M3330 2156 c0 -8 5 -18 11 -22 8 -4 7 -9 -2 -16 -11 -8 -11 -9 1 -5
18 4 20 49 3 54 -7 3 -13 -2 -13 -11z"/>
<path d="M3465 2140 c-3 -5 -1 -10 4 -10 6 0 11 5 11 10 0 6 -2 10 -4 10 -3 0
-8 -4 -11 -10z"/>
<path d="M3710 1876 c0 -9 7 -16 16 -16 17 0 14 22 -4 28 -7 2 -12 -3 -12 -12z"/>
<path d="M2610 1859 c0 -5 5 -7 10 -4 6 3 10 8 10 11 0 2 -4 4 -10 4 -5 0 -10
-5 -10 -11z"/>
<path d="M3405 1881 c-7 -12 12 -24 25 -16 11 7 4 25 -10 25 -5 0 -11 -4 -15
-9z"/>
<path d="M3472 1874 c4 -21 22 -23 26 -1 2 10 -3 17 -13 17 -10 0 -15 -6 -13
-16z"/>
<path d="M4040 1870 c0 -11 5 -20 10 -20 6 0 10 9 10 20 0 11 -4 20 -10 20 -5
0 -10 -9 -10 -20z"/>
<path d="M2328 1883 c7 -3 16 -2 19 1 4 3 -2 6 -13 5 -11 0 -14 -3 -6 -6z"/>
<path d="M2440 1859 c0 -5 5 -7 10 -4 6 3 10 8 10 11 0 2 -4 4 -10 4 -5 0 -10
-5 -10 -11z"/>
<path d="M2808 1883 c7 -3 16 -2 19 1 4 3 -2 6 -13 5 -11 0 -14 -3 -6 -6z"/>
<path d="M2972 1874 c4 -21 22 -23 26 -1 2 10 -3 17 -13 17 -10 0 -15 -6 -13
-16z"/>
<path d="M3220 1859 c0 -5 5 -7 10 -4 6 3 10 8 10 11 0 2 -4 4 -10 4 -5 0 -10
-5 -10 -11z"/>
<path d="M3628 1883 c7 -3 16 -2 19 1 4 3 -2 6 -13 5 -11 0 -14 -3 -6 -6z"/>
<path d="M3867 1883 c-12 -11 -8 -23 8 -23 8 0 15 7 15 15 0 16 -12 20 -23 8z"/>
<path d="M3930 1859 c0 -5 5 -7 10 -4 6 3 10 8 10 11 0 2 -4 4 -10 4 -5 0 -10
-5 -10 -11z"/>
<path d="M4258 1883 c7 -3 16 -2 19 1 4 3 -2 6 -13 5 -11 0 -14 -3 -6 -6z"/>
<path d="M4260 1859 c0 -5 5 -7 10 -4 6 3 10 8 10 11 0 2 -4 4 -10 4 -5 0 -10
-5 -10 -11z"/>
<path d="M4315 1860 c3 -5 8 -10 11 -10 2 0 4 5 4 10 0 6 -5 10 -11 10 -5 0
-7 -4 -4 -10z"/>
<path d="M2870 1595 c0 -8 7 -15 15 -15 8 0 15 7 15 15 0 8 -7 15 -15 15 -8 0
-15 -7 -15 -15z"/>
<path d="M3020 1595 c0 -8 7 -15 15 -15 8 0 15 7 15 15 0 8 -7 15 -15 15 -8 0
-15 -7 -15 -15z"/>
<path d="M3280 1595 c0 -8 7 -15 15 -15 8 0 15 7 15 15 0 8 -7 15 -15 15 -8 0
-15 -7 -15 -15z"/>
<path d="M3350 1595 c0 -8 7 -15 15 -15 8 0 15 7 15 15 0 8 -7 15 -15 15 -8 0
-15 -7 -15 -15z"/>
<path d="M3448 1603 c7 -3 16 -2 19 1 4 3 -2 6 -13 5 -11 0 -14 -3 -6 -6z"/>
<path d="M4100 1595 c0 -8 7 -15 15 -15 8 0 15 7 15 15 0 8 -7 15 -15 15 -8 0
-15 -7 -15 -15z"/>
<path d="M2328 1583 c7 -3 16 -2 19 1 4 3 -2 6 -13 5 -11 0 -14 -3 -6 -6z"/>
<path d="M3098 1603 c7 -3 16 -2 19 1 4 3 -2 6 -13 5 -11 0 -14 -3 -6 -6z"/>
<path d="M3728 1603 c7 -3 16 -2 19 1 4 3 -2 6 -13 5 -11 0 -14 -3 -6 -6z"/>
<path d="M3780 1595 c0 -8 7 -15 15 -15 8 0 15 7 15 15 0 8 -7 15 -15 15 -8 0
-15 -7 -15 -15z"/>
<path d="M3858 1603 c7 -3 16 -2 19 1 4 3 -2 6 -13 5 -11 0 -14 -3 -6 -6z"/>
<path d="M2276 1335 c-3 -9 0 -15 9 -15 9 0 12 6 9 15 -4 8 -7 15 -9 15 -2 0
-5 -7 -9 -15z"/>
<path d="M2340 1315 c0 -8 7 -15 15 -15 8 0 15 7 15 15 0 8 -7 15 -15 15 -8 0
-15 -7 -15 -15z"/>
<path d="M3128 1303 c7 -3 16 -2 19 1 4 3 -2 6 -13 5 -11 0 -14 -3 -6 -6z"/>
<path d="M3268 1303 c7 -3 16 -2 19 1 4 3 -2 6 -13 5 -11 0 -14 -3 -6 -6z"/>
<path d="M2824 1049 c-8 -14 11 -33 25 -25 11 7 4 36 -9 36 -5 0 -12 -5 -16
-11z"/>
<path d="M3175 1050 c-7 -12 2 -30 16 -30 12 0 12 27 0 35 -5 3 -12 1 -16 -5z"/>
<path d="M3596 1053 c-12 -12 -6 -33 9 -33 8 0 15 6 15 14 0 17 -14 28 -24 19z"/>
<path d="M2346 1053 c-12 -12 -6 -33 9 -33 8 0 15 6 15 14 0 17 -14 28 -24 19z"/>
<path d="M2687 1053 c-4 -3 -7 -12 -7 -20 0 -15 26 -18 34 -4 7 11 -18 33 -27
24z"/>
<path d="M4924 2780 c0 -58 1 -81 3 -52 2 28 2 76 0 105 -2 28 -3 5 -3 -53z"/>
<path d="M4923 2625 c0 -27 2 -38 4 -22 2 15 2 37 0 50 -2 12 -4 0 -4 -28z"/>
<path d="M5540 2658 c-30 -11 -40 -25 -40 -60 0 -56 68 -89 103 -50 21 23 21
32 2 32 -8 0 -15 -4 -15 -9 0 -15 -32 -22 -47 -10 -8 7 -13 25 -11 43 4 37 30
46 59 20 22 -20 38 -11 23 13 -14 23 -45 32 -74 21z"/>
<path d="M6580 2656 c0 -9 7 -16 16 -16 9 0 14 5 12 12 -6 18 -28 21 -28 4z"/>
<path d="M5645 2610 c-38 -42 12 -98 64 -70 28 14 29 65 2 80 -29 15 -46 12
-66 -10z m53 -36 c-4 -25 -32 -24 -36 0 -4 21 18 40 31 27 5 -5 7 -17 5 -27z"/>
<path d="M5750 2580 c0 -55 17 -69 22 -18 2 22 9 34 21 36 14 3 17 -4 17 -32
0 -25 4 -36 15 -36 11 0 15 11 15 39 0 48 -22 71 -51 53 -11 -7 -19 -8 -19 -2
0 5 -4 10 -10 10 -5 0 -10 -22 -10 -50z"/>
<path d="M5860 2615 c-16 -19 3 -45 31 -45 11 0 19 -5 19 -11 0 -7 -11 -8 -32
-3 -30 6 -31 5 -19 -10 8 -10 25 -16 40 -14 35 4 38 51 4 56 -13 2 -23 8 -23
14 0 6 10 8 25 4 27 -7 35 8 9 18 -25 10 -41 7 -54 -9z"/>
<path d="M5960 2610 c-24 -24 -24 -29 -4 -58 18 -26 56 -29 75 -6 12 15 10 16
-18 10 -18 -4 -34 -3 -38 3 -4 7 7 11 29 11 29 0 36 4 36 20 0 18 -26 40 -49
40 -6 0 -20 -9 -31 -20z m45 -10 c3 -5 -3 -10 -15 -10 -12 0 -18 5 -15 10 3 6
10 10 15 10 5 0 12 -4 15 -10z"/>
<path d="M6066 2614 c-9 -8 -16 -24 -16 -34 0 -42 55 -65 80 -35 16 20 5 32
-14 16 -18 -15 -36 -6 -36 18 0 26 10 32 32 20 27 -14 38 -1 14 17 -25 18 -41
18 -60 -2z"/>
<path d="M6157 2623 c-10 -9 -8 -56 3 -73 5 -8 25 -15 45 -16 l35 -1 0 48 c0
27 -4 49 -10 49 -5 0 -10 -13 -10 -29 0 -29 -21 -57 -33 -44 -4 3 -7 21 -7 40
0 31 -9 41 -23 26z"/>
<path d="M6276 2617 c-28 -20 -18 -69 17 -81 22 -8 31 -6 45 8 16 18 16 18
-10 12 -15 -3 -30 -2 -33 4 -4 6 6 10 24 10 24 0 31 4 31 20 0 10 -9 24 -19
30 -25 13 -33 13 -55 -3z m49 -17 c3 -5 -3 -10 -15 -10 -12 0 -18 5 -15 10 3
6 10 10 15 10 5 0 12 -4 15 -10z"/>
<path d="M6370 2578 c0 -57 23 -64 28 -10 2 19 9 32 17 32 8 0 15 -13 17 -32
5 -48 28 -48 28 0 0 46 -13 59 -57 59 -33 0 -33 -1 -33 -49z"/>
<path d="M6490 2610 c-25 -25 -25 -42 0 -65 22 -20 70 -14 70 10 0 18 -12 19
-27 4 -15 -15 -33 -3 -33 21 0 20 26 35 35 20 9 -15 25 -12 25 4 0 13 -20 26
-41 26 -5 0 -18 -9 -29 -20z"/>
<path d="M6580 2580 c0 -37 4 -50 13 -47 7 2 12 21 12 47 0 26 -5 45 -12 48
-9 2 -13 -11 -13 -48z"/>
<path d="M6643 2623 c-21 -8 -15 -26 7 -20 11 3 22 1 25 -3 3 -5 -4 -10 -16
-12 -12 -2 -27 -11 -33 -21 -14 -23 4 -35 50 -35 33 0 34 1 34 39 0 47 -28 68
-67 52z m32 -63 c-3 -5 -10 -10 -16 -10 -5 0 -9 5 -9 10 0 6 7 10 16 10 8 0
12 -4 9 -10z"/>
<path d="M6730 2615 c-10 -12 -10 -18 0 -30 7 -8 18 -15 26 -15 7 0 16 -5 20
-11 4 -8 -3 -9 -25 -4 -37 8 -43 -12 -6 -21 36 -9 57 2 53 28 -2 15 -11 24
-25 26 -13 2 -23 8 -23 13 0 5 11 7 25 3 27 -7 35 10 9 20 -25 10 -41 7 -54
-9z"/>
<path d="M4923 2525 c0 -27 2 -38 4 -22 2 15 2 37 0 50 -2 12 -4 0 -4 -28z"/>
<path d="M5350 2080 c-9 -6 -10 -10 -3 -10 6 0 14 -12 16 -27 3 -23 4 -21 6
10 0 20 0 37 -1 37 -2 0 -10 -5 -18 -10z"/>
<path d="M5441 2048 c1 -24 3 -36 5 -28 3 9 15 20 27 25 31 14 28 39 -5 43
-27 3 -28 2 -27 -40z m47 20 c-7 -19 -38 -22 -38 -4 0 10 9 16 21 16 12 0 19
-5 17 -12z"/>
<path d="M5650 2081 c0 -5 -9 -11 -21 -14 -29 -8 -22 -51 9 -55 20 -3 22 1 22
37 0 23 -2 41 -5 41 -3 0 -5 -4 -5 -9z m0 -41 c0 -11 -7 -20 -15 -20 -8 0 -15
9 -15 20 0 11 7 20 15 20 8 0 15 -9 15 -20z"/>
<path d="M5750 2080 c0 -5 -6 -10 -14 -10 -20 0 -37 -25 -30 -44 3 -9 17 -16
30 -16 21 0 24 4 24 40 0 22 -2 40 -5 40 -3 0 -5 -4 -5 -10z m-4 -31 c10 -17
-13 -36 -27 -22 -12 12 -4 33 11 33 5 0 12 -5 16 -11z"/>
<path d="M5900 2080 c0 -5 -6 -10 -14 -10 -20 0 -37 -25 -30 -44 3 -9 16 -15
30 -14 21 2 24 7 24 40 0 21 -2 38 -5 38 -3 0 -5 -4 -5 -10z m-4 -31 c10 -17
-13 -36 -27 -22 -12 12 -4 33 11 33 5 0 12 -5 16 -11z"/>
<path d="M6018 2078 c-2 -7 -1 -26 2 -43 l6 -30 5 32 c6 34 -4 66 -13 41z"/>
<path d="M6233 2050 c0 -25 2 -35 4 -22 2 12 2 32 0 45 -2 12 -4 2 -4 -23z"/>
<path d="M6320 2081 c0 -5 -9 -11 -21 -14 -29 -8 -22 -51 9 -55 20 -3 22 1 22
37 0 23 -2 41 -5 41 -3 0 -5 -4 -5 -9z m0 -41 c0 -11 -7 -20 -15 -20 -8 0 -15
9 -15 20 0 11 7 20 15 20 8 0 15 -9 15 -20z"/>
<path d="M6450 2080 c0 -5 -6 -10 -14 -10 -20 0 -37 -25 -30 -44 3 -9 13 -16
22 -16 13 0 12 3 -4 14 -15 12 -17 17 -6 27 14 15 28 5 35 -26 3 -11 5 -1 6
23 0 23 -1 42 -4 42 -3 0 -5 -4 -5 -10z"/>
<path d="M6157 2074 c-9 -9 9 -58 21 -60 7 -1 8 0 2 3 -14 7 -13 40 2 45 8 3
6 6 -4 10 -9 4 -18 4 -21 2z"/>
<path d="M5510 2055 c-15 -18 2 -46 29 -44 13 1 13 2 -1 6 -25 6 -22 23 3 23
12 0 19 5 17 13 -7 18 -33 20 -48 2z m37 -1 c-3 -3 -12 -4 -19 -1 -8 3 -5 6 6
6 11 1 17 -2 13 -5z"/>
<path d="M5571 2038 c1 -22 3 -26 6 -13 3 11 10 26 15 33 8 9 6 12 -6 12 -12
0 -16 -9 -15 -32z"/>
<path d="M5682 2040 c0 -19 2 -27 5 -17 2 9 2 25 0 35 -3 9 -5 1 -5 -18z"/>
<path d="M5790 2062 c21 -10 25 -42 5 -42 -9 0 -13 5 -10 10 3 6 1 10 -5 10
-21 0 -4 -25 19 -28 19 -3 22 0 19 25 -2 19 -9 29 -23 30 -15 2 -16 1 -5 -5z"/>
<path d="M5926 2055 c-8 -21 3 -45 22 -45 13 0 12 3 -4 15 -18 14 -18 14 8 15
20 0 26 4 22 15 -4 8 -14 15 -24 15 -10 0 -20 -7 -24 -15z"/>
<path d="M6054 2056 c-12 -33 23 -65 40 -37 4 5 -3 7 -14 4 -11 -3 -20 0 -20
6 0 6 9 11 21 11 12 0 19 5 17 13 -7 18 -37 21 -44 3z m33 -2 c-3 -3 -12 -4
-19 -1 -8 3 -5 6 6 6 11 1 17 -2 13 -5z"/>
<path d="M6111 2038 c1 -22 3 -26 6 -13 3 11 10 26 15 33 8 9 6 12 -6 12 -12
0 -16 -9 -15 -32z"/>
<path d="M6202 2040 c0 -19 2 -27 5 -17 2 9 2 25 0 35 -3 9 -5 1 -5 -18z"/>
<path d="M6252 2040 c0 -19 2 -27 5 -17 2 9 2 25 0 35 -3 9 -5 1 -5 -18z"/>
<path d="M6350 2060 c0 -5 6 -7 13 -4 7 2 13 -4 14 -16 1 -12 -4 -20 -13 -20
-9 0 -12 5 -8 12 4 7 3 8 -5 4 -16 -10 -4 -26 20 -26 14 0 19 7 19 30 0 23 -4
30 -20 30 -11 0 -20 -4 -20 -10z"/>
<path d="M4932 2010 c0 -19 2 -27 5 -17 2 9 2 25 0 35 -3 9 -5 1 -5 -18z"/>
<path d="M4484 1918 l-19 -23 23 19 c12 11 22 21 22 23 0 8 -8 2 -26 -19z"/>
<path d="M5470 1810 c-16 -10 -6 -40 15 -40 8 0 15 -7 15 -16 0 -12 -6 -15
-21 -11 -16 4 -19 3 -11 -5 14 -14 42 -3 42 18 0 9 -9 18 -20 21 -20 5 -25 15
-13 26 3 4 12 2 20 -4 8 -7 13 -8 13 -1 0 14 -24 22 -40 12z"/>
<path d="M5385 1802 c4 -9 -3 -25 -21 -43 l-28 -29 35 1 c31 1 32 2 9 9 -14 4
-20 8 -13 9 21 2 37 41 22 55 -9 8 -10 8 -4 -2z"/>
<path d="M5630 1801 c0 -5 -9 -11 -21 -14 -29 -8 -22 -51 9 -55 20 -3 22 1 22
37 0 23 -2 41 -5 41 -3 0 -5 -4 -5 -9z m0 -41 c0 -11 -7 -20 -15 -20 -8 0 -15
9 -15 20 0 11 7 20 15 20 8 0 15 -9 15 -20z"/>
<path d="M6300 1801 c0 -5 -9 -11 -21 -14 -29 -8 -22 -51 9 -55 20 -3 22 1 22
37 0 23 -2 41 -5 41 -3 0 -5 -4 -5 -9z m0 -41 c0 -11 -7 -20 -15 -20 -8 0 -15
9 -15 20 0 11 7 20 15 20 8 0 15 -9 15 -20z"/>
<path d="M6900 1800 c0 -5 -9 -10 -19 -10 -23 0 -35 -28 -21 -46 6 -7 20 -12
31 -11 15 1 19 9 19 39 0 21 -2 38 -5 38 -3 0 -5 -4 -5 -10z m0 -34 c0 -8 -5
-18 -11 -22 -14 -8 -33 11 -25 25 10 16 36 13 36 -3z"/>
<path d="M4451 1784 c0 -11 3 -14 6 -6 3 7 2 16 -1 19 -3 4 -6 -2 -5 -13z"/>
<path d="M5917 1794 c-9 -9 9 -58 21 -60 7 -1 8 0 2 3 -14 7 -13 40 2 45 8 3
6 6 -4 10 -9 4 -18 4 -21 2z"/>
<path d="M5526 1774 c-10 -25 19 -53 36 -35 11 10 10 11 -3 6 -10 -4 -20 -2
-24 4 -4 7 4 11 20 11 17 0 25 5 23 13 -7 19 -45 20 -52 1z"/>
<path d="M5662 1760 c0 -19 2 -27 5 -17 2 9 2 25 0 35 -3 9 -5 1 -5 -18z"/>
<path d="M5691 1762 c2 -24 2 -24 6 -4 2 12 9 22 14 22 5 0 9 -10 10 -22 l0
-23 9 23 c13 30 28 28 33 -5 4 -27 4 -27 6 3 1 30 -1 32 -39 32 -37 1 -40 -1
-39 -26z"/>
<path d="M5794 1776 c-12 -33 23 -65 40 -37 4 5 -3 7 -14 4 -11 -3 -20 0 -20
6 0 6 9 11 21 11 12 0 19 5 17 13 -7 18 -37 21 -44 3z m33 -2 c-3 -3 -12 -4
-19 -1 -8 3 -5 6 6 6 11 1 17 -2 13 -5z"/>
<path d="M5851 1758 c1 -30 2 -30 8 -9 9 33 28 38 34 9 4 -20 4 -20 6 5 1 23
-3 27 -24 27 -22 0 -25 -4 -24 -32z"/>
<path d="M5965 1780 c-4 -6 1 -7 11 -3 12 4 15 3 10 -5 -4 -7 -2 -12 5 -12 10
0 10 -3 1 -12 -10 -10 -15 -10 -22 2 -8 13 -10 12 -10 -2 0 -19 17 -23 39 -9
8 5 11 16 6 30 -7 22 -29 28 -40 11z"/>
<path d="M6024 1775 c-13 -32 23 -63 40 -36 4 5 -3 7 -14 4 -16 -4 -20 0 -20
17 0 17 4 21 20 17 11 -3 18 -1 14 4 -8 14 -34 11 -40 -6z"/>
<path d="M6082 1760 c0 -19 2 -27 5 -17 2 9 2 25 0 35 -3 9 -5 1 -5 -18z"/>
<path d="M6106 1774 c-9 -22 17 -49 39 -40 10 3 15 15 13 28 -4 29 -42 37 -52
12z m44 -8 c0 -8 -5 -18 -11 -22 -14 -8 -33 11 -25 25 10 16 36 13 36 -3z"/>
<path d="M6171 1758 c1 -30 2 -30 8 -9 9 33 28 38 34 9 4 -20 4 -20 6 5 1 23
-3 27 -24 27 -22 0 -25 -4 -24 -32z"/>
<path d="M6334 1776 c-12 -33 23 -65 40 -37 4 5 -3 7 -14 4 -11 -3 -20 0 -20
6 0 6 9 11 21 11 12 0 19 5 17 13 -7 18 -37 21 -44 3z m33 -2 c-3 -3 -12 -4
-19 -1 -8 3 -5 6 6 6 11 1 17 -2 13 -5z"/>
<path d="M6416 1773 c-9 -22 20 -51 35 -36 8 8 6 11 -7 10 -11 -1 -19 4 -19
13 0 8 8 14 18 14 9 -1 17 2 17 7 0 16 -38 9 -44 -8z"/>
<path d="M6481 1763 c0 -18 3 -33 8 -33 26 0 41 14 40 39 l-1 26 -7 -24 c-9
-35 -29 -37 -34 -4 -4 27 -4 27 -6 -4z"/>
<path d="M6544 1776 c-12 -33 23 -65 40 -37 4 5 -3 7 -14 4 -11 -3 -20 0 -20
6 0 6 9 11 21 11 12 0 19 5 17 13 -7 18 -37 21 -44 3z m33 -2 c-3 -3 -12 -4
-19 -1 -8 3 -5 6 6 6 11 1 17 -2 13 -5z"/>
<path d="M6611 1763 c1 -22 2 -23 6 -8 3 11 10 23 17 27 7 5 5 8 -6 8 -13 0
-18 -7 -17 -27z"/>
<path d="M6650 1748 c0 -24 4 -38 8 -32 4 6 15 13 25 17 26 10 18 51 -10 55
-21 3 -23 -1 -23 -40z m40 12 c0 -11 -7 -20 -15 -20 -8 0 -15 9 -15 20 0 11 7
20 15 20 8 0 15 -9 15 -20z"/>
<path d="M6716 1774 c-9 -22 17 -49 39 -40 10 3 15 15 13 28 -4 29 -42 37 -52
12z m44 -8 c0 -8 -5 -18 -11 -22 -14 -8 -33 11 -25 25 10 16 36 13 36 -3z"/>
<path d="M6780 1775 c0 -8 7 -15 15 -15 8 0 15 -5 15 -11 0 -6 -7 -8 -16 -5
-8 3 -12 2 -9 -4 10 -16 35 -12 35 5 0 9 -8 19 -17 22 -15 6 -15 7 3 14 17 7
17 8 -3 8 -14 1 -23 -5 -23 -14z"/>
<path d="M6923 1774 c-3 -8 2 -23 11 -32 13 -13 18 -14 28 -3 11 10 10 11 -3
6 -10 -4 -20 -2 -24 4 -4 7 4 11 19 11 18 0 24 4 20 15 -8 20 -43 19 -51 -1z"/>
<path d="M7016 1781 c-4 -5 4 -7 16 -4 19 4 20 3 8 -6 -13 -9 -13 -11 0 -11
11 0 11 -3 2 -12 -10 -10 -15 -10 -22 2 -8 13 -10 12 -10 -2 0 -10 6 -18 13
-18 22 0 39 17 35 36 -4 20 -33 31 -42 15z"/>
<path d="M7074 1777 c-10 -27 3 -62 24 -65 20 -3 22 1 22 37 0 35 -3 41 -20
41 -11 0 -23 -6 -26 -13z m36 -17 c0 -11 -7 -20 -15 -20 -8 0 -15 9 -15 20 0
11 7 20 15 20 8 0 15 -9 15 -20z m-3 -36 c-3 -3 -12 -4 -19 -1 -8 3 -5 6 6 6
11 1 17 -2 13 -5z"/>
<path d="M7144 1760 c1 -19 7 -25 24 -26 18 -1 22 4 21 30 -1 28 -2 29 -8 7
-9 -33 -29 -38 -34 -9 -4 21 -4 21 -3 -2z"/>
<path d="M7225 1781 c19 -8 19 -8 -3 -15 -23 -8 -26 -28 -4 -32 7 -1 8 0 2 3
-11 5 -4 23 10 23 5 0 11 -8 14 -17 2 -10 4 -5 3 12 -2 22 -8 31 -22 32 l-20
3 20 -9z"/>
<path d="M4922 1630 c0 -19 2 -27 5 -17 2 9 2 25 0 35 -3 9 -5 1 -5 -18z"/>
<path d="M7693 1643 c48 -2 125 -2 170 0 45 1 6 3 -88 3 -93 0 -130 -2 -82 -3z"/>
<path d="M5379 1528 c10 -14 9 -18 -6 -27 -17 -10 -17 -10 0 -11 11 0 17 -5
14 -12 -2 -7 -12 -12 -22 -11 -12 1 -14 -2 -7 -9 6 -6 18 -8 26 -5 19 8 16 62
-4 80 -12 10 -12 9 -1 -5z"/>
<path d="M5460 1495 c0 -37 3 -45 18 -45 30 0 54 24 50 50 -1 13 -9 25 -16 28
-11 3 -11 0 -1 -16 10 -17 10 -23 0 -36 -8 -9 -20 -16 -27 -16 -18 0 -19 66
-1 73 7 3 5 6 -5 6 -15 1 -18 -8 -18 -44z"/>
<path d="M5838 1518 c-3 -7 -1 -24 3 -38 7 -24 7 -24 8 -2 1 32 29 28 34 -5 4
-26 4 -26 6 5 1 26 -3 32 -20 32 -11 0 -17 5 -14 10 3 6 2 10 -3 10 -6 0 -12
-6 -14 -12z"/>
<path d="M5772 1488 c2 -17 9 -33 16 -36 11 -3 11 -1 0 17 -11 18 -11 23 0 30
11 7 10 9 -3 15 -13 5 -16 0 -13 -26z"/>
<path d="M5547 1503 c-4 -3 -7 -14 -7 -24 0 -21 29 -34 44 -19 8 8 6 9 -5 5
-10 -4 -20 -2 -24 4 -3 7 2 11 14 11 12 0 21 7 21 15 0 15 -31 21 -43 8z m30
-9 c-3 -3 -12 -4 -19 -1 -8 3 -5 6 6 6 11 1 17 -2 13 -5z"/>
<path d="M5610 1495 c0 -8 5 -15 11 -15 5 0 8 4 5 9 -4 5 0 12 6 14 8 3 6 6
-4 6 -10 1 -18 -6 -18 -14z"/>
<path d="M5664 1495 c-13 -32 23 -63 40 -36 4 5 -3 7 -14 4 -11 -3 -20 0 -20
6 0 6 9 11 20 11 11 0 20 7 20 15 0 8 -9 15 -20 15 -11 0 -23 -7 -26 -15z m33
-1 c-3 -3 -12 -4 -19 -1 -8 3 -5 6 6 6 11 1 17 -2 13 -5z"/>
<path d="M5730 1485 c0 -14 2 -25 4 -25 2 0 6 11 8 25 3 14 1 25 -3 25 -5 0
-9 -11 -9 -25z"/>
<path d="M5812 1485 c0 -16 2 -22 5 -12 2 9 2 23 0 30 -3 6 -5 -1 -5 -18z"/>
<path d="M5903 1494 c-8 -21 23 -52 38 -37 8 8 6 11 -7 10 -11 -1 -20 6 -22
17 -3 15 0 18 17 13 12 -3 21 -1 21 4 0 16 -40 10 -47 -7z"/>
<path d="M5985 1501 c14 -7 15 -10 5 -10 -12 -1 -13 -3 -1 -10 10 -7 10 -10 1
-16 -7 -4 -17 -1 -22 6 -8 12 -9 11 -5 -1 2 -8 14 -16 26 -16 18 -1 22 3 19
25 -2 17 -10 27 -23 28 l-20 3 20 -9z"/>
<path d="M6023 1494 c-8 -21 23 -52 38 -37 8 8 6 11 -7 10 -11 -1 -20 6 -22
17 -3 15 0 18 17 13 12 -3 21 -1 21 4 0 16 -40 10 -47 -7z"/>
<path d="M6082 1485 c0 -16 2 -22 5 -12 2 9 2 23 0 30 -3 6 -5 -1 -5 -18z"/>
<path d="M6114 1495 c-9 -23 4 -47 23 -43 11 2 19 14 21 31 3 22 -1 27 -18 27
-11 0 -23 -7 -26 -15z m36 -15 c0 -11 -7 -20 -15 -20 -8 0 -15 9 -15 20 0 11
7 20 15 20 8 0 15 -9 15 -20z"/>
<path d="M6181 1483 c2 -23 2 -24 6 -5 6 30 31 28 36 -3 4 -23 4 -23 3 2 -1
21 -7 29 -23 31 -20 3 -23 -1 -22 -25z"/>
<path d="M4934 1270 c0 -124 2 -174 3 -112 2 61 2 163 0 225 -1 61 -3 11 -3
-113z"/>
<path d="M5640 1471 c0 -8 -7 -10 -21 -6 -15 5 -19 4 -15 -4 4 -6 13 -11 21
-11 16 0 30 18 21 27 -3 4 -6 1 -6 -6z"/>
<path d="M5467 1253 c-13 -12 -7 -74 7 -79 24 -9 56 15 56 41 0 31 -44 58 -63
38z m37 -9 c34 -13 14 -64 -25 -64 -5 0 -9 16 -9 35 0 35 5 40 34 29z"/>
<path d="M5616 1252 c-3 -4 4 -9 15 -9 23 -2 25 3 4 10 -8 4 -16 3 -19 -1z"/>
<path d="M5994 1236 c-3 -14 -4 -33 -1 -43 4 -14 5 -14 6 5 0 12 5 22 9 22 4
0 8 9 8 20 0 28 -14 25 -22 -4z"/>
<path d="M5368 1233 c-23 -26 -23 -39 2 -46 25 -6 28 0 21 37 -6 28 -6 28 -23
9z m12 -18 c0 -8 -4 -15 -10 -15 -5 0 -7 7 -4 15 4 8 8 15 10 15 2 0 4 -7 4
-15z"/>
<path d="M6458 1237 c-7 -19 6 -60 20 -63 7 -1 8 0 2 3 -12 6 -13 40 -1 45 5
2 3 8 -4 15 -10 9 -14 9 -17 0z"/>
<path d="M6247 1234 c-9 -9 9 -58 21 -60 7 -1 8 0 2 3 -14 7 -13 40 2 45 8 3
6 6 -4 10 -9 4 -18 4 -21 2z"/>
<path d="M5565 1220 c16 -7 17 -9 3 -9 -21 -1 -33 -20 -21 -32 16 -16 43 1 43
27 0 18 -5 24 -22 23 -22 0 -22 -1 -3 -9z m10 -30 c-3 -5 -10 -10 -16 -10 -5
0 -9 5 -9 10 0 6 7 10 16 10 8 0 12 -4 9 -10z"/>
<path d="M5611 1203 c2 -23 2 -24 6 -5 5 27 30 29 36 2 4 -17 4 -16 3 2 -1 16
-8 24 -23 26 -20 3 -23 -1 -22 -25z"/>
<path d="M5673 1214 c-3 -8 2 -23 11 -32 14 -15 18 -15 31 -1 9 9 13 23 9 32
-8 21 -43 22 -51 1z m42 -14 c0 -22 -29 -18 -33 3 -3 14 1 18 15 15 10 -2 18
-10 18 -18z"/>
<path d="M5740 1215 c0 -8 7 -15 15 -15 8 0 15 -5 15 -11 0 -6 -7 -8 -17 -4
-15 5 -16 4 -5 -6 10 -11 14 -11 25 0 10 10 8 15 -6 26 -18 13 -18 13 0 18 14
4 14 5 -4 6 -14 1 -23 -5 -23 -14z"/>
<path d="M5835 1221 c16 -8 17 -10 3 -10 -9 -1 -20 -6 -24 -12 -9 -16 10 -31
30 -23 23 9 17 48 -9 51 l-20 3 20 -9z m10 -31 c-3 -5 -10 -10 -16 -10 -5 0
-9 5 -9 10 0 6 7 10 16 10 8 0 12 -4 9 -10z"/>
<path d="M5902 1205 c0 -16 2 -22 5 -12 2 9 2 23 0 30 -3 6 -5 -1 -5 -18z"/>
<path d="M5921 1203 c0 -27 1 -27 9 -5 5 12 16 22 24 22 8 0 17 -10 19 -22 5
-20 5 -20 4 2 -2 19 -8 26 -29 28 -25 3 -28 0 -27 -25z"/>
<path d="M6031 1203 c1 -22 2 -23 6 -8 3 11 10 23 17 27 7 5 5 8 -6 8 -13 0
-18 -7 -17 -27z"/>
<path d="M6083 1223 c18 -5 18 -5 0 -18 -14 -10 -15 -16 -6 -25 16 -17 33 -4
33 26 0 19 -5 24 -22 23 -19 -1 -19 -2 -5 -6z m17 -33 c0 -5 -4 -10 -10 -10
-5 0 -10 5 -10 10 0 6 5 10 10 10 6 0 10 -4 10 -10z"/>
<path d="M6130 1205 c0 -28 25 -44 42 -27 8 8 5 9 -11 5 -12 -3 -21 -1 -21 6
0 6 9 11 21 11 27 0 19 24 -9 28 -18 3 -22 -2 -22 -23z m37 9 c-3 -3 -12 -4
-19 -1 -8 3 -5 6 6 6 11 1 17 -2 13 -5z"/>
<path d="M6190 1220 c0 -6 7 -13 15 -16 8 -4 15 -11 15 -16 0 -6 -7 -7 -16 -4
-8 3 -12 2 -9 -4 10 -16 35 -12 35 5 0 9 -8 19 -17 22 -15 6 -15 7 3 14 17 7
17 8 -3 8 -13 1 -23 -4 -23 -9z"/>
<path d="M6291 1203 c1 -22 2 -23 6 -8 3 11 10 23 17 27 7 5 5 8 -6 8 -13 0
-18 -7 -17 -27z"/>
<path d="M6331 1208 c-1 -30 10 -41 33 -32 10 4 16 17 15 33 l-1 26 -7 -24
c-9 -35 -29 -37 -34 -4 l-4 28 -2 -27z"/>
<path d="M6393 1214 c-8 -21 23 -52 38 -37 8 8 6 11 -7 10 -28 -3 -30 31 -2
36 l23 4 -23 2 c-12 0 -25 -6 -29 -15z"/>
<path d="M6501 1208 c-1 -30 10 -41 33 -32 10 4 16 17 15 33 l-1 26 -7 -24
c-9 -35 -29 -37 -34 -4 l-4 28 -2 -27z"/>
<path d="M6561 1203 c0 -16 3 -22 6 -13 3 8 10 21 16 28 7 8 5 12 -7 12 -11 0
-16 -8 -15 -27z"/>
<path d="M6625 1221 c16 -8 17 -10 3 -10 -9 -1 -20 -6 -24 -12 -9 -16 10 -31
30 -23 23 9 17 48 -9 51 l-20 3 20 -9z m10 -31 c-3 -5 -10 -10 -16 -10 -5 0
-9 5 -9 10 0 6 7 10 16 10 8 0 12 -4 9 -10z"/>
<path d="M6666 1223 c-4 -4 3 -16 16 -26 l23 -19 -24 6 c-17 3 -21 2 -13 -6
12 -12 42 -4 42 11 0 5 -10 13 -22 17 -22 7 -22 7 -3 15 14 5 16 8 4 8 -9 1
-19 -2 -23 -6z"/>
<path d="M4944 770 c0 -58 1 -81 3 -52 2 28 2 76 0 105 -2 28 -3 5 -3 -53z"/>
</g>
</svg>
