<?xml version="1.0" standalone="no"?>
<!DOCTYPE svg PUBLIC "-//W3C//DTD SVG 20010904//EN"
 "http://www.w3.org/TR/2001/REC-SVG-20010904/DTD/svg10.dtd">
<svg version="1.0" xmlns="http://www.w3.org/2000/svg"
 width="860.000000pt" height="183.000000pt" viewBox="0 0 860.000000 183.000000"
 preserveAspectRatio="xMidYMid meet">

<g transform="translate(0.000000,183.000000) scale(0.100000,-0.100000)"
fill="#000000" stroke="none">
<path d="M0 1710 l0 -120 4300 0 4300 0 0 120 0 120 -4300 0 -4300 0 0 -120z
m2918 74 c12 -8 22 -22 22 -30 0 -19 -26 -18 -34 2 -3 9 -15 14 -28 12 -18 -2
-24 -11 -26 -36 -4 -39 17 -51 54 -32 31 17 42 6 19 -20 -26 -29 -69 -26 -94
6 -27 35 -26 59 4 89 28 29 51 31 83 9z m112 6 c0 -5 -7 -13 -15 -18 -13 -7
-12 -10 10 -20 18 -8 25 -19 25 -40 0 -35 -16 -52 -50 -52 -14 0 -31 5 -38 12
-20 20 -14 65 10 82 12 9 19 16 14 16 -5 0 -3 7 4 15 14 17 40 20 40 5z m758
-17 c2 -15 9 -19 21 -16 20 5 51 -21 51 -43 0 -36 -20 -54 -60 -54 l-40 0 0
71 c0 52 3 70 13 67 6 -3 13 -14 15 -25z m282 -43 c0 -56 -3 -70 -15 -70 -12
0 -15 13 -14 70 1 52 5 70 15 70 11 0 14 -17 14 -70z m158 -4 c3 -61 1 -67
-15 -64 -14 2 -19 15 -21 57 -4 61 3 84 21 79 7 -3 13 -29 15 -72z m559 52
c-3 -13 -2 -30 1 -38 6 -12 11 -10 32 10 13 14 23 27 21 30 -1 3 4 9 13 15 22
13 34 -4 14 -19 -16 -12 -16 -14 7 -24 29 -13 35 -61 11 -81 -24 -20 -69 -9
-83 19 l-13 25 0 -27 c0 -21 -5 -28 -20 -28 -11 0 -20 5 -20 11 0 8 -4 8 -14
0 -19 -16 -68 -10 -74 8 -3 10 4 12 29 7 l34 -6 -32 15 c-36 16 -42 35 -18 55
17 14 65 6 65 -11 0 -7 -10 -9 -25 -5 -34 9 -32 1 5 -18 30 -14 30 -14 32 12
0 15 0 37 -1 50 -1 16 4 22 20 22 17 0 20 -5 16 -22z m363 -49 l0 -70 -41 3
c-51 4 -68 24 -53 65 7 22 16 28 37 28 18 -1 27 4 27 15 0 9 3 20 7 23 17 18
23 1 23 -64z m155 0 c0 -53 -3 -64 -17 -67 -16 -3 -18 5 -18 61 0 35 3 67 7
71 18 17 28 -6 28 -65z m385 1 c0 -56 -3 -70 -15 -70 -12 0 -15 14 -15 63 0
35 3 67 7 70 17 18 23 1 23 -63z m204 48 c8 -13 5 -23 -14 -43 -23 -25 -50
-33 -50 -16 0 5 7 14 15 21 24 20 17 32 -15 25 -31 -7 -39 2 -18 23 17 17 69
11 82 -10z m-1864 -38 c0 -5 -4 -10 -10 -10 -5 0 -10 -9 -10 -20 0 -11 5 -20
10 -20 6 0 10 -7 10 -15 0 -21 -37 -19 -48 3 -21 39 -23 79 -6 96 15 16 18 16
35 -3 11 -11 19 -25 19 -31z m-1240 0 c0 -11 -7 -20 -15 -20 -8 0 -15 9 -15
20 0 11 7 20 15 20 8 0 15 -9 15 -20z m418 7 c18 -14 16 -87 -2 -87 -9 0 -16
12 -18 32 -4 46 -28 49 -28 4 0 -29 -4 -36 -20 -36 -16 0 -20 7 -20 36 0 45
-24 42 -28 -4 -2 -20 -9 -32 -18 -32 -10 0 -14 13 -14 49 l0 49 68 -1 c37 0
73 -4 80 -10z m103 3 c22 -12 26 -59 7 -78 -7 -7 -24 -12 -38 -12 -33 0 -50
17 -50 50 0 45 37 63 81 40z m143 -6 c15 -14 17 -14 32 0 22 22 60 20 77 -4
14 -20 15 -20 19 -2 5 16 14 18 74 16 38 -1 72 -2 77 -3 4 0 7 -21 7 -46 0
-33 -4 -45 -15 -45 -10 0 -15 11 -15 35 0 24 -5 35 -15 35 -10 0 -15 -11 -15
-35 0 -24 -5 -35 -15 -35 -10 0 -15 11 -15 35 0 24 -5 35 -15 35 -10 0 -15
-11 -15 -35 0 -25 -4 -35 -16 -35 -9 0 -18 9 -21 20 l-6 21 -14 -21 c-17 -24
-50 -26 -80 -5 -19 13 -22 13 -27 0 -7 -18 -57 -20 -74 -3 -28 28 -2 88 38 88
10 0 26 -7 34 -16z m496 -3 c5 -11 10 -33 10 -49 0 -28 -3 -30 -37 -30 -47 0
-66 14 -53 38 5 9 7 20 3 23 -11 11 19 37 43 37 13 0 28 -9 34 -19z m200 4 c0
-7 -7 -15 -15 -19 -9 -3 -15 -18 -15 -36 0 -20 -5 -30 -15 -30 -11 0 -15 12
-15 49 0 49 1 50 30 49 17 -1 30 -7 30 -13z m168 3 c7 -7 12 -29 12 -49 0 -36
-1 -37 -41 -37 -43 -1 -60 17 -40 42 9 10 9 16 1 21 -16 10 8 35 34 35 12 0
27 -5 34 -12z m140 0 c7 -7 12 -20 12 -30 0 -13 -8 -18 -31 -18 -16 0 -28 -4
-25 -9 3 -4 18 -6 33 -3 25 5 27 4 14 -11 -17 -22 -49 -22 -73 0 -22 20 -23
32 -2 61 17 24 53 29 72 10z m92 2 c0 -5 11 -4 25 2 37 17 75 -3 75 -40 0 -35
-16 -52 -50 -52 -32 0 -50 17 -50 47 0 14 -6 23 -15 23 -10 0 -15 -11 -15 -35
0 -28 -4 -35 -20 -35 -17 0 -20 7 -20 43 0 24 2 46 5 49 9 9 65 7 65 -2z m448
-2 c6 -6 12 -28 12 -50 0 -32 -3 -39 -17 -36 -12 2 -19 14 -21 36 -4 42 -26
37 -30 -6 -2 -20 -9 -32 -18 -32 -10 0 -14 13 -14 49 l0 49 38 0 c20 0 43 -5
50 -10z m250 0 c7 -7 12 -20 12 -30 0 -13 -8 -18 -31 -18 -16 0 -28 -4 -25 -9
3 -4 18 -6 33 -3 25 5 27 4 14 -11 -17 -22 -49 -22 -73 0 -22 20 -23 41 -1 65
18 21 53 24 71 6z m183 -5 c13 -15 11 -16 -13 -11 -34 6 -37 -3 -5 -17 45 -20
14 -64 -36 -51 -39 9 -34 29 4 21 22 -5 29 -4 25 4 -4 6 -13 11 -20 11 -8 0
-19 7 -26 15 -10 12 -10 18 0 30 17 20 54 19 71 -2z m49 -18 c0 -24 5 -35 15
-35 10 0 15 11 15 35 0 24 5 35 15 35 11 0 15 -12 15 -49 l0 -50 -42 2 -43 2
-3 48 c-2 37 0 47 12 47 12 0 16 -10 16 -35z m151 25 c10 -6 19 -20 19 -30 0
-16 -7 -20 -36 -20 -20 0 -33 -4 -29 -10 3 -5 20 -6 38 -3 29 6 31 5 18 -10
-16 -20 -62 -22 -79 -5 -17 17 -15 54 4 72 18 19 38 20 65 6z m161 -7 c22 -20
23 -41 1 -65 -20 -22 -56 -23 -77 -2 -21 20 -20 43 1 66 20 22 51 23 75 1z
m-3002 -48 c0 -9 -7 -18 -15 -21 -30 -12 -14 -25 23 -18 l37 7 -19 -22 c-21
-23 -55 -28 -74 -9 -17 17 -15 38 6 59 21 22 42 24 42 4z m3075 -16 c0 -7 -8
-15 -17 -17 -18 -3 -25 18 -11 32 10 10 28 1 28 -15z"/>
<path d="M2980 1710 c0 -13 7 -20 20 -20 13 0 20 7 20 20 0 13 -7 20 -20 20
-13 0 -20 -7 -20 -20z"/>
<path d="M3790 1710 c0 -15 5 -20 18 -18 9 2 17 10 17 18 0 8 -8 16 -17 18
-13 2 -18 -3 -18 -18z"/>
<path d="M4830 1711 c0 -15 6 -21 21 -21 25 0 22 33 -4 38 -12 2 -17 -3 -17
-17z"/>
<path d="M5085 1720 c-8 -14 3 -30 21 -30 8 0 14 9 14 20 0 21 -24 28 -35 10z"/>
<path d="M3260 1711 c0 -15 6 -21 21 -21 25 0 22 33 -4 38 -12 2 -17 -3 -17
-17z"/>
<path d="M3404 1719 c-10 -18 11 -31 40 -23 32 8 34 20 4 28 -32 8 -36 8 -44
-5z"/>
<path d="M3505 1720 c-8 -14 3 -30 21 -30 8 0 14 9 14 20 0 21 -24 28 -35 10z"/>
<path d="M3898 1723 c7 -3 16 -2 19 1 4 3 -2 6 -13 5 -11 0 -14 -3 -6 -6z"/>
<path d="M3900 1689 c0 -5 5 -7 10 -4 6 3 10 8 10 11 0 2 -4 4 -10 4 -5 0 -10
-5 -10 -11z"/>
<path d="M4278 1723 c7 -3 16 -2 19 1 4 3 -2 6 -13 5 -11 0 -14 -3 -6 -6z"/>
<path d="M4270 1690 c0 -5 4 -10 9 -10 6 0 13 5 16 10 3 6 -1 10 -9 10 -9 0
-16 -4 -16 -10z"/>
<path d="M4418 1723 c7 -3 16 -2 19 1 4 3 -2 6 -13 5 -11 0 -14 -3 -6 -6z"/>
<path d="M4580 1710 c0 -13 7 -20 20 -20 13 0 20 7 20 20 0 13 -7 20 -20 20
-13 0 -20 -7 -20 -20z"/>
<path d="M5208 1723 c7 -3 16 -2 19 1 4 3 -2 6 -13 5 -11 0 -14 -3 -6 -6z"/>
<path d="M5588 1723 c6 -2 18 -2 25 0 6 3 1 5 -13 5 -14 0 -19 -2 -12 -5z"/>
<path d="M5737 1716 c-7 -16 1 -26 20 -26 7 0 13 9 13 20 0 23 -25 27 -33 6z"/>
<path d="M338 1413 c-2 -5 -1 -24 3 -43 l6 -35 2 43 c1 39 -3 52 -11 35z"/>
<path d="M421 1378 c1 -24 3 -35 6 -25 5 18 5 18 25 0 21 -18 21 -18 7 5 -8
12 -17 22 -21 22 -5 0 -8 7 -8 16 0 11 6 15 20 11 11 -3 18 -1 14 4 -3 5 -14
9 -25 9 -16 0 -19 -7 -18 -42z"/>
<path d="M557 1413 c-4 -3 -7 -22 -7 -41 0 -42 7 -40 11 3 2 17 8 33 14 37 7
5 6 8 -1 8 -6 0 -14 -3 -17 -7z"/>
<path d="M1181 1378 c1 -24 3 -35 6 -26 2 9 14 18 26 20 34 5 29 42 -5 46 -27
3 -28 2 -27 -40z m49 17 c0 -8 -9 -15 -20 -15 -11 0 -20 7 -20 15 0 8 9 15 20
15 11 0 20 -7 20 -15z"/>
<path d="M1253 1380 c0 -25 2 -35 4 -22 2 12 2 32 0 45 -2 12 -4 2 -4 -23z"/>
<path d="M1813 1380 c0 -25 2 -35 4 -22 2 12 2 32 0 45 -2 12 -4 2 -4 -23z"/>
<path d="M3292 1382 c-2 -40 0 -43 21 -40 16 2 22 10 22 27 0 13 -6 25 -13 27
-7 1 -8 0 -2 -3 15 -7 12 -43 -4 -43 -10 0 -16 13 -19 38 l-4 37 -1 -43z"/>
<path d="M3383 1380 c0 -25 2 -35 4 -22 2 12 2 32 0 45 -2 12 -4 2 -4 -23z"/>
<path d="M3683 1380 c0 -25 2 -35 4 -22 2 12 2 32 0 45 -2 12 -4 2 -4 -23z"/>
<path d="M3913 1380 c0 -25 2 -35 4 -22 2 12 2 32 0 45 -2 12 -4 2 -4 -23z"/>
<path d="M4280 1406 c0 -8 -7 -13 -16 -12 -9 0 -19 -6 -21 -14 -4 -12 -3 -13
5 -1 12 16 32 6 32 -16 0 -10 -6 -14 -20 -10 -11 3 -20 1 -20 -4 0 -5 11 -9
25 -9 23 0 25 4 25 40 0 22 -2 40 -5 40 -3 0 -5 -6 -5 -14z"/>
<path d="M1408 1405 c-6 -7 3 -65 11 -65 7 0 7 58 -1 65 -2 3 -7 3 -10 0z"/>
<path d="M2312 1378 c2 -17 9 -33 16 -34 7 -1 8 0 2 3 -14 7 -13 40 2 45 7 3
5 7 -6 11 -15 6 -17 2 -14 -25z"/>
<path d="M3188 1405 c-6 -7 3 -65 11 -65 7 0 7 58 -1 65 -2 3 -7 3 -10 0z"/>
<path d="M492 1388 c-15 -15 -15 -28 -1 -28 5 0 8 4 4 9 -10 16 15 23 33 9 15
-12 16 -11 3 5 -16 20 -23 21 -39 5z"/>
<path d="M591 1386 c-15 -18 -3 -46 20 -46 25 0 35 26 19 45 -15 19 -24 19
-39 1z m37 -19 c2 -10 -3 -17 -12 -17 -18 0 -29 16 -21 31 9 14 29 6 33 -14z"/>
<path d="M663 1393 c-7 -2 -12 -17 -12 -31 1 -21 2 -23 6 -7 3 11 10 26 15 33
11 13 10 13 -9 5z"/>
<path d="M702 1391 c-21 -13 -10 -46 16 -47 19 -1 19 -1 2 3 -22 5 -27 28 -9
39 6 3 16 0 21 -7 8 -12 9 -12 6 0 -5 19 -19 23 -36 12z"/>
<path d="M760 1385 c0 -9 7 -18 15 -21 8 -4 12 -10 9 -15 -3 -5 0 -9 5 -9 16
0 13 20 -4 26 -8 4 -15 10 -15 15 0 4 7 5 17 2 11 -4 14 -3 9 5 -10 17 -36 15
-36 -3z"/>
<path d="M810 1390 c0 -5 7 -7 15 -4 8 4 15 8 15 10 0 2 -7 4 -15 4 -8 0 -15
-4 -15 -10z"/>
<path d="M855 1390 c-3 -5 0 -7 9 -4 8 3 16 -2 19 -13 4 -14 5 -14 6 5 1 22
-22 31 -34 12z"/>
<path d="M930 1396 c0 -2 7 -7 16 -10 8 -3 12 -2 9 4 -6 10 -25 14 -25 6z"/>
<path d="M972 1370 c0 -19 2 -27 5 -17 2 9 2 25 0 35 -3 9 -5 1 -5 -18z"/>
<path d="M1005 1390 c-3 -6 1 -7 9 -4 10 4 18 -1 22 -10 9 -24 -4 -32 -26 -18
-16 10 -18 9 -13 -4 8 -21 47 -14 51 10 5 26 -30 48 -43 26z"/>
<path d="M1073 1393 c-7 -2 -13 -17 -12 -31 l1 -27 7 25 c4 15 14 24 24 24 9
-1 14 2 11 7 -6 10 -12 10 -31 2z"/>
<path d="M1285 1391 c-3 -7 0 -8 9 -5 11 4 16 0 16 -15 0 -12 -5 -21 -11 -21
-5 0 -7 5 -4 10 3 6 1 10 -4 10 -6 0 -11 -7 -11 -15 0 -8 9 -15 21 -15 16 0
20 5 17 27 -3 28 -22 41 -33 24z"/>
<path d="M1341 1366 c1 -28 2 -29 8 -7 9 34 29 37 34 6 4 -24 4 -24 3 2 -1 22
-6 28 -23 29 -19 1 -23 -4 -22 -30z"/>
<path d="M1455 1391 c-3 -7 0 -8 9 -5 11 4 16 0 16 -14 0 -11 -8 -23 -17 -25
-13 -3 -12 -5 5 -6 20 -1 23 3 20 26 -3 28 -22 41 -33 24z"/>
<path d="M1523 1393 c-7 -2 -12 -17 -12 -31 1 -21 2 -23 6 -7 3 11 10 26 15
33 11 13 10 13 -9 5z"/>
<path d="M1574 1388 c-5 -7 -3 -8 6 -3 7 4 16 2 21 -6 13 -21 11 -29 -7 -29
-9 0 -12 5 -8 12 4 7 3 8 -4 4 -20 -12 -13 -26 13 -26 25 0 31 13 19 44 -7 19
-30 21 -40 4z"/>
<path d="M1643 1393 c-7 -2 -12 -17 -12 -31 1 -21 2 -23 6 -7 3 11 10 26 15
33 11 13 10 13 -9 5z"/>
<path d="M1708 1388 c20 -20 15 -41 -8 -35 -11 3 -20 1 -20 -4 0 -12 37 -11
45 1 9 14 -4 50 -18 50 -8 0 -8 -3 1 -12z"/>
<path d="M1752 1391 c-20 -12 -10 -46 14 -49 25 -4 40 24 23 44 -13 16 -19 17
-37 5z m33 -22 c0 -7 -8 -15 -17 -17 -18 -3 -25 18 -11 32 10 10 28 1 28 -15z"/>
<path d="M1842 1388 c-15 -15 -15 -28 -1 -28 5 0 8 4 4 9 -10 16 15 23 33 9
15 -12 16 -11 3 5 -16 20 -23 21 -39 5z"/>
<path d="M1904 1388 c-4 -6 1 -17 10 -24 16 -12 16 -13 -1 -17 -14 -4 -14 -5
5 -6 13 -1 22 5 22 14 0 8 -7 15 -15 15 -8 0 -15 5 -15 11 0 6 7 8 16 5 8 -3
12 -2 9 4 -8 13 -22 13 -31 -2z"/>
<path d="M1976 1385 c4 -11 8 -30 8 -43 1 -20 2 -21 14 -5 13 18 17 41 5 29
-4 -3 -13 4 -21 16 -10 18 -12 18 -6 3z"/>
<path d="M2120 1385 c-17 -21 -5 -45 22 -44 l23 2 -22 4 c-13 2 -23 11 -23 18
0 21 21 30 32 14 8 -12 9 -12 6 0 -6 21 -23 24 -38 6z"/>
<path d="M2180 1386 c-15 -19 -2 -46 22 -46 12 0 17 -4 12 -12 -4 -7 -3 -8 4
-4 7 4 12 22 12 39 0 25 -5 33 -19 34 -11 1 -25 -4 -31 -11z m38 -19 c2 -10
-3 -17 -12 -17 -18 0 -29 16 -21 31 9 14 29 6 33 -14z"/>
<path d="M2252 1388 c-15 -15 -15 -28 -1 -28 5 0 8 4 4 9 -10 16 15 23 33 9
15 -12 16 -11 3 5 -16 20 -23 21 -39 5z"/>
<path d="M2355 1391 c-3 -7 0 -8 9 -5 11 4 16 0 16 -15 0 -12 -5 -21 -11 -21
-5 0 -7 5 -4 10 3 6 1 10 -4 10 -6 0 -11 -7 -11 -15 0 -8 9 -15 21 -15 16 0
20 5 17 27 -3 28 -22 41 -33 24z"/>
<path d="M2414 1385 c-13 -32 23 -63 40 -36 4 5 -3 7 -14 4 -16 -4 -20 0 -20
17 0 16 4 20 16 16 8 -3 12 -2 9 4 -9 15 -25 12 -31 -5z"/>
<path d="M2472 1370 c0 -19 2 -27 5 -17 2 9 2 25 0 35 -3 9 -5 1 -5 -18z"/>
<path d="M2501 1386 c-15 -18 -3 -46 20 -46 25 0 35 26 19 45 -15 19 -24 19
-39 1z m37 -19 c2 -10 -3 -17 -12 -17 -18 0 -29 16 -21 31 9 14 29 6 33 -14z"/>
<path d="M2573 1393 c-7 -2 -13 -17 -12 -31 l1 -27 7 25 c4 15 14 24 24 24 9
-1 14 2 11 7 -6 10 -12 10 -31 2z"/>
<path d="M2654 1388 c-5 -7 -3 -8 6 -3 7 4 16 2 21 -6 13 -21 11 -29 -7 -29
-9 0 -12 5 -8 12 4 7 3 8 -4 4 -20 -12 -13 -26 13 -26 25 0 31 13 19 44 -7 19
-30 21 -40 4z"/>
<path d="M2840 1385 c-7 -8 -10 -22 -6 -30 6 -16 46 -21 46 -6 0 5 -9 7 -21 4
-17 -5 -20 -2 -17 13 2 10 11 18 21 18 9 -1 14 2 11 7 -8 13 -20 11 -34 -6z"/>
<path d="M2904 1388 c-5 -7 -3 -8 6 -3 7 4 16 2 21 -6 13 -21 11 -29 -7 -29
-9 0 -12 5 -8 12 4 7 3 8 -4 4 -20 -12 -13 -26 13 -26 25 0 31 13 19 44 -7 19
-30 21 -40 4z"/>
<path d="M2995 1391 c-3 -7 0 -8 9 -5 11 4 16 0 16 -15 0 -13 -6 -21 -17 -21
-16 0 -16 2 -3 11 10 7 11 9 2 7 -23 -6 -18 -23 6 -26 20 -3 23 0 20 24 -3 29
-22 43 -33 25z"/>
<path d="M3071 1386 c-16 -19 -3 -46 23 -45 16 1 17 2 4 6 -10 2 -18 13 -18
24 0 22 10 24 30 7 12 -11 12 -10 1 5 -16 21 -25 21 -40 3z"/>
<path d="M3135 1389 c-4 -6 -4 -13 -1 -16 3 -4 6 -1 6 6 0 8 6 11 16 7 8 -3
12 -2 9 4 -8 13 -22 13 -30 -1z"/>
<path d="M3235 1391 c-3 -7 0 -8 9 -5 11 4 16 0 16 -15 0 -13 -6 -21 -17 -21
-16 0 -16 2 -3 11 10 7 11 9 2 7 -23 -6 -18 -23 6 -26 20 -3 23 0 20 24 -3 29
-22 43 -33 25z"/>
<path d="M3412 1370 c0 -19 2 -27 5 -17 2 9 2 25 0 35 -3 9 -5 1 -5 -18z"/>
<path d="M3448 1393 c10 -4 10 -10 -3 -29 -15 -23 -14 -24 7 -24 17 0 19 3 9
9 -9 6 -10 11 -2 15 17 11 13 36 -6 35 -12 0 -13 -2 -5 -6z"/>
<path d="M3495 1391 c-3 -7 0 -8 9 -5 11 4 16 0 16 -14 0 -11 -8 -23 -17 -25
-13 -3 -12 -5 5 -6 20 -1 23 3 20 26 -3 28 -22 41 -33 24z"/>
<path d="M3563 1393 c-7 -2 -12 -17 -12 -31 1 -21 2 -23 6 -7 3 11 10 26 15
33 11 13 10 13 -9 5z"/>
<path d="M3622 1391 c-21 -13 -10 -46 16 -47 19 -1 19 -1 2 3 -22 5 -27 28 -9
39 6 3 16 0 21 -7 8 -12 9 -12 6 0 -5 19 -19 23 -36 12z"/>
<path d="M3734 1388 c-4 -6 0 -16 9 -23 9 -7 14 -15 10 -18 -3 -4 -1 -7 5 -7
17 0 15 20 -3 26 -8 4 -15 11 -15 16 0 6 7 7 16 4 8 -3 12 -2 9 4 -8 13 -22
13 -31 -2z"/>
<path d="M3781 1373 c-1 -29 2 -33 24 -33 22 0 25 4 24 33 -2 30 -2 30 -6 5
-2 -16 -10 -28 -18 -28 -8 0 -16 12 -18 28 -4 25 -4 25 -6 -5z"/>
<path d="M3852 1388 c-15 -15 -15 -28 -1 -28 5 0 8 4 4 9 -10 16 15 23 33 9
15 -12 16 -11 3 5 -16 20 -23 21 -39 5z"/>
<path d="M3941 1386 c-15 -18 -3 -46 20 -46 25 0 35 26 19 45 -15 19 -24 19
-39 1z m37 -19 c2 -10 -3 -17 -12 -17 -18 0 -29 16 -21 31 9 14 29 6 33 -14z"/>
<path d="M4026 1385 c4 -11 8 -30 8 -43 1 -20 2 -21 14 -5 13 18 17 41 5 29
-4 -3 -13 4 -21 16 -10 18 -12 18 -6 3z"/>
<path d="M4182 1388 c-15 -15 -15 -28 -1 -28 5 0 8 4 4 9 -10 16 15 23 33 9
15 -12 16 -11 3 5 -16 20 -23 21 -39 5z"/>
<path d="M4382 1391 c-21 -13 -10 -46 16 -49 12 -2 22 1 22 6 0 6 -9 8 -21 5
-17 -5 -20 -2 -17 13 2 10 11 18 21 18 9 -1 14 2 11 7 -7 11 -15 11 -32 0z"/>
<path d="M4461 1366 c1 -21 3 -25 6 -11 3 11 9 25 14 31 5 7 3 11 -6 11 -10 0
-15 -10 -14 -31z"/>
<path d="M4555 1390 c-3 -5 0 -7 9 -4 8 3 16 -2 19 -13 4 -14 5 -14 6 5 1 22
-22 31 -34 12z"/>
<path d="M4640 1385 c-17 -21 -5 -45 22 -44 l23 2 -22 4 c-13 2 -23 11 -23 18
0 21 21 30 32 14 8 -12 9 -12 6 0 -6 21 -23 24 -38 6z"/>
<path d="M4713 1393 c-7 -2 -12 -17 -12 -31 1 -21 2 -23 6 -7 3 11 10 26 15
33 11 13 10 13 -9 5z"/>
<path d="M4747 1394 c-4 -4 -7 -18 -7 -31 0 -20 5 -24 23 -21 16 2 22 10 22
28 0 24 -23 39 -38 24z m33 -24 c0 -11 -7 -20 -15 -20 -8 0 -15 9 -15 20 0 11
7 20 15 20 8 0 15 -9 15 -20z"/>
<path d="M4810 1396 c0 -2 7 -6 15 -10 8 -3 15 -1 15 4 0 6 -7 10 -15 10 -8 0
-15 -2 -15 -4z"/>
<path d="M4862 1370 c0 -19 2 -27 5 -17 2 9 2 25 0 35 -3 9 -5 1 -5 -18z"/>
<path d="M4891 1386 c-15 -18 -3 -46 20 -46 25 0 35 26 19 45 -15 19 -24 19
-39 1z m37 -19 c2 -10 -3 -17 -12 -17 -18 0 -29 16 -21 31 9 14 29 6 33 -14z"/>
<path d="M4963 1393 c-7 -2 -13 -17 -12 -31 l1 -27 7 24 c9 35 29 37 34 4 l5
-28 -2 29 c-1 30 -11 38 -33 29z"/>
<path d="M911 1372 c-1 -25 25 -40 41 -24 8 8 5 9 -10 5 -16 -4 -21 1 -25 19
l-4 23 -2 -23z"/>
<path d="M2086 1373 c-6 -15 -8 -15 -16 -3 -6 8 -10 11 -10 5 0 -5 4 -16 9
-24 7 -11 11 -9 21 9 6 12 10 24 7 26 -2 3 -8 -3 -11 -13z"/>
<path d="M2715 1375 c4 -11 7 -29 7 -40 -1 -16 2 -14 14 8 9 16 13 31 10 35
-3 3 -6 -1 -6 -9 -1 -10 -5 -8 -17 6 l-16 20 8 -20z"/>
<path d="M2771 1368 c-1 -24 3 -28 24 -28 21 0 25 4 24 28 -2 23 -2 24 -6 5
-2 -13 -11 -23 -18 -23 -7 0 -16 10 -18 23 -4 19 -4 18 -6 -5z"/>
<path d="M4311 1368 c-1 -24 3 -28 24 -28 21 0 25 5 24 28 0 26 -1 26 -9 5 -5
-13 -14 -23 -19 -23 -5 0 -12 10 -14 23 -4 19 -4 18 -6 -5z"/>
<path d="M4432 1365 c0 -16 2 -22 5 -12 2 9 2 23 0 30 -3 6 -5 -1 -5 -18z"/>
<path d="M4822 1367 c10 -8 15 -17 11 -20 -3 -4 -1 -7 5 -7 20 0 13 19 -10 30
-21 10 -21 10 -6 -3z"/>
<path d="M850 1355 c0 -9 9 -15 23 -14 17 1 18 2 4 6 -9 2 -15 9 -12 14 4 5 1
9 -4 9 -6 0 -11 -7 -11 -15z"/>
<path d="M3155 1361 c3 -5 -3 -12 -12 -14 -14 -4 -13 -5 5 -6 13 -1 22 5 22
14 0 8 -5 15 -11 15 -5 0 -8 -4 -4 -9z"/>
<path d="M4550 1355 c0 -10 9 -15 28 -14 23 2 24 2 4 6 -12 2 -20 9 -17 14 4
5 1 9 -4 9 -6 0 -11 -7 -11 -15z"/>
<path d="M498 1343 c6 -2 18 -2 25 0 6 3 1 5 -13 5 -14 0 -19 -2 -12 -5z"/>
<path d="M1848 1343 c6 -2 18 -2 25 0 6 3 1 5 -13 5 -14 0 -19 -2 -12 -5z"/>
<path d="M2258 1343 c6 -2 18 -2 25 0 6 3 1 5 -13 5 -14 0 -19 -2 -12 -5z"/>
<path d="M3858 1343 c6 -2 18 -2 25 0 6 3 1 5 -13 5 -14 0 -19 -2 -12 -5z"/>
<path d="M4188 1343 c6 -2 18 -2 25 0 6 3 1 5 -13 5 -14 0 -19 -2 -12 -5z"/>
<path d="M326 1131 c-4 -5 3 -7 14 -4 27 7 26 -14 -2 -44 l-21 -23 29 1 c24 0
25 2 10 8 -18 7 -18 8 -3 14 25 9 23 57 -2 57 -11 0 -22 -4 -25 -9z"/>
<path d="M442 1133 c11 -3 18 -17 21 -41 l4 -37 1 37 c1 25 7 38 20 41 9 3 -1
5 -23 5 -22 0 -32 -2 -23 -5z"/>
<path d="M1820 1105 c0 -24 -5 -35 -15 -35 -17 0 -21 36 -5 43 6 3 5 4 -2 3
-7 -1 -14 -15 -16 -29 -3 -23 0 -27 22 -27 24 0 26 4 26 40 0 22 -2 40 -5 40
-3 0 -5 -16 -5 -35z"/>
<path d="M1913 1100 c0 -25 2 -35 4 -22 2 12 2 32 0 45 -2 12 -4 2 -4 -23z"/>
<path d="M2290 1100 c0 -37 2 -40 28 -39 23 2 24 2 5 6 -27 5 -31 30 -5 36 16
4 16 5 0 6 -26 2 -22 19 5 24 19 4 18 4 -5 6 -26 1 -28 -2 -28 -39z"/>
<path d="M2363 1100 c0 -25 2 -35 4 -22 2 12 2 32 0 45 -2 12 -4 2 -4 -23z"/>
<path d="M2660 1125 c0 -8 -6 -12 -13 -9 -18 7 -39 -20 -31 -40 3 -9 17 -16
30 -16 21 0 24 4 24 40 0 22 -2 40 -5 40 -3 0 -5 -7 -5 -15z m-2 -38 c2 -10
-3 -17 -12 -17 -18 0 -29 16 -21 31 9 14 29 6 33 -14z"/>
<path d="M2900 1102 c0 -39 2 -43 23 -40 28 4 36 45 10 55 -10 4 -21 11 -25
17 -4 6 -8 -8 -8 -32z m40 -12 c0 -11 -7 -20 -15 -20 -8 0 -15 9 -15 20 0 11
7 20 15 20 8 0 15 -9 15 -20z"/>
<path d="M3713 1100 c0 -25 2 -35 4 -22 2 12 2 32 0 45 -2 12 -4 2 -4 -23z"/>
<path d="M3607 1124 c-9 -9 9 -58 21 -60 7 -1 8 0 2 3 -14 7 -13 40 2 45 8 3
6 6 -4 10 -9 4 -18 4 -21 2z"/>
<path d="M504 1106 c-12 -33 23 -65 40 -37 4 5 -3 7 -14 4 -15 -4 -20 0 -20
16 0 21 24 29 33 11 3 -6 4 -5 3 2 -4 19 -35 22 -42 4z"/>
<path d="M573 1113 c-18 -7 -16 -42 3 -50 8 -3 20 -1 26 5 8 8 4 9 -12 5 -18
-5 -21 -2 -18 13 2 10 11 18 21 18 9 -1 14 2 11 7 -6 10 -12 10 -31 2z"/>
<path d="M636 1112 c-2 -4 4 -8 15 -8 10 0 19 4 19 8 0 10 -27 10 -34 0z"/>
<path d="M692 1090 c0 -19 2 -27 5 -17 2 9 2 25 0 35 -3 9 -5 1 -5 -18z"/>
<path d="M726 1112 c-2 -4 4 -8 14 -8 10 0 16 4 14 8 -3 4 -9 8 -14 8 -5 0
-11 -4 -14 -8z"/>
<path d="M785 1111 c-3 -7 0 -8 9 -5 11 4 16 0 16 -14 0 -11 -8 -23 -17 -25
-13 -3 -12 -5 5 -6 20 -1 23 3 20 26 -3 28 -22 41 -33 24z"/>
<path d="M845 1109 c-4 -6 -4 -13 -1 -16 3 -4 6 -1 6 6 0 8 6 11 16 7 8 -3 12
-2 9 4 -8 13 -22 13 -30 -1z"/>
<path d="M914 1105 c-9 -23 3 -45 26 -45 11 0 20 4 20 9 0 5 -9 7 -21 4 -17
-5 -20 -2 -17 13 2 11 11 18 21 18 9 -1 17 2 17 7 0 15 -40 10 -46 -6z"/>
<path d="M984 1106 c-12 -33 23 -65 40 -37 4 5 -3 7 -14 4 -15 -4 -20 0 -20
16 0 21 24 29 33 11 3 -6 4 -5 3 2 -4 19 -35 22 -42 4z"/>
<path d="M1071 1106 c-16 -19 -3 -46 23 -45 20 0 20 1 -2 10 -26 10 -25 35 1
33 9 -1 14 2 11 7 -8 13 -20 11 -33 -5z"/>
<path d="M1131 1107 c-17 -21 -3 -49 23 -45 15 2 21 10 21 28 0 28 -26 38 -44
17z m37 -20 c2 -10 -3 -17 -12 -17 -18 0 -29 16 -21 31 9 14 29 6 33 -14z"/>
<path d="M1203 1113 c-7 -2 -13 -17 -12 -31 l1 -27 7 25 c4 15 14 24 24 24 9
-1 17 2 17 7 0 10 -17 11 -37 2z"/>
<path d="M1264 1109 c-4 -7 1 -16 12 -22 17 -10 17 -11 -1 -18 -19 -7 -18 -8
3 -8 26 -1 29 16 5 36 -17 14 -17 14 0 9 11 -3 16 -2 12 4 -8 13 -22 13 -31
-1z"/>
<path d="M1322 1108 c-7 -7 -12 -16 -12 -22 0 -5 7 -1 16 10 11 13 17 15 20 7
3 -7 10 -13 16 -13 6 0 6 6 -2 15 -15 18 -22 19 -38 3z"/>
<path d="M1382 1090 c0 -19 2 -27 5 -17 2 9 2 25 0 35 -3 9 -5 1 -5 -18z"/>
<path d="M1485 1111 c-3 -7 0 -8 9 -5 11 4 16 0 16 -14 0 -11 -8 -23 -17 -25
-13 -3 -12 -5 5 -6 20 -1 23 3 20 26 -3 28 -22 41 -33 24z"/>
<path d="M1546 1112 c-2 -4 4 -8 14 -8 10 0 16 4 14 8 -3 4 -9 8 -14 8 -5 0
-11 -4 -14 -8z"/>
<path d="M1602 1090 c0 -19 2 -27 5 -17 2 9 2 25 0 35 -3 9 -5 1 -5 -18z"/>
<path d="M1630 1105 c-16 -19 -6 -45 19 -45 23 0 35 28 20 46 -15 18 -24 18
-39 -1z m35 -16 c0 -7 -8 -15 -17 -17 -18 -3 -25 18 -11 32 10 10 28 1 28 -15z"/>
<path d="M1691 1086 c1 -28 2 -29 8 -7 9 34 29 37 34 6 4 -24 4 -24 3 2 -1 22
-6 28 -23 29 -19 1 -23 -4 -22 -30z"/>
<path d="M1857 1113 c-4 -3 -7 -17 -7 -30 0 -18 5 -23 23 -22 16 1 18 2 5 6
-10 2 -18 13 -18 24 0 22 11 24 29 7 10 -11 11 -10 6 5 -7 17 -26 23 -38 10z"/>
<path d="M1965 1109 c-4 -6 1 -17 11 -25 17 -14 17 -15 2 -10 -10 3 -18 1 -18
-4 0 -6 9 -10 20 -10 25 0 26 18 3 37 -17 14 -17 14 0 9 11 -3 16 -2 12 4 -8
13 -22 13 -30 -1z"/>
<path d="M2084 1106 c-12 -33 23 -65 40 -37 4 5 -3 7 -14 4 -15 -4 -20 0 -20
16 0 21 24 29 33 11 3 -6 4 -5 3 2 -4 19 -35 22 -42 4z"/>
<path d="M2174 1106 c-12 -33 23 -65 40 -37 4 5 -3 7 -14 4 -15 -4 -20 0 -20
16 0 21 24 29 33 11 3 -6 4 -5 3 2 -4 19 -35 22 -42 4z"/>
<path d="M2474 1109 c-3 -6 0 -15 7 -20 24 -15 34 -10 13 7 -17 14 -17 15 -1
10 11 -3 16 -2 12 4 -8 13 -22 13 -31 -1z"/>
<path d="M2535 1111 c-3 -7 0 -8 9 -5 10 4 18 -1 22 -10 9 -24 -4 -32 -26 -18
-16 10 -18 9 -13 -4 10 -25 48 -13 48 16 0 26 -28 40 -40 21z"/>
<path d="M2690 1105 c-17 -21 -5 -45 22 -44 l23 2 -22 4 c-13 2 -23 11 -23 18
0 21 21 30 32 14 8 -12 9 -12 6 0 -6 21 -23 24 -38 6z"/>
<path d="M2774 1105 c-13 -32 23 -63 40 -36 4 5 -3 7 -14 4 -15 -4 -20 0 -20
15 0 11 8 23 18 25 16 4 16 5 -1 6 -10 0 -20 -6 -23 -14z"/>
<path d="M2834 1106 c-9 -24 4 -48 23 -44 12 2 18 12 18 28 0 29 -32 41 -41
16z m36 -16 c0 -11 -7 -20 -15 -20 -8 0 -15 9 -15 20 0 11 7 20 15 20 8 0 15
-9 15 -20z"/>
<path d="M2972 1111 c-21 -13 -10 -46 16 -47 19 -1 19 -1 2 3 -22 5 -27 28 -9
39 6 3 16 0 21 -7 8 -12 9 -12 6 0 -5 19 -19 23 -36 12z"/>
<path d="M3078 1113 c7 -3 16 -2 19 1 4 3 -2 6 -13 5 -11 0 -14 -3 -6 -6z"/>
<path d="M3114 1090 c1 -18 7 -26 24 -28 19 -3 22 1 21 30 -2 30 -2 31 -6 6
-5 -34 -30 -37 -36 -5 -3 19 -4 19 -3 -3z"/>
<path d="M3181 1086 c1 -21 3 -25 6 -11 3 11 9 25 14 31 5 7 3 11 -6 11 -10 0
-15 -10 -14 -31z"/>
<path d="M3225 1110 c-3 -6 1 -7 9 -4 11 4 16 0 16 -15 0 -12 -5 -21 -11 -21
-5 0 -7 5 -4 10 3 6 1 10 -4 10 -6 0 -11 -7 -11 -15 0 -8 9 -15 20 -15 16 0
20 7 20 30 0 30 -21 42 -35 20z"/>
<path d="M3285 1109 c-4 -6 -4 -13 -1 -16 3 -4 6 -1 6 6 0 8 6 11 16 7 8 -3
12 -2 9 4 -8 13 -22 13 -30 -1z"/>
<path d="M3350 1118 c0 -4 5 -18 11 -32 12 -24 29 -27 29 -4 0 6 -3 8 -7 4 -4
-3 -13 4 -20 16 -7 13 -12 20 -13 16z"/>
<path d="M3414 1106 c-9 -23 3 -46 23 -45 17 1 17 2 1 6 -21 5 -24 43 -4 43 8
0 17 -5 19 -10 3 -6 4 -5 3 2 -4 19 -35 22 -42 4z"/>
<path d="M3480 1106 c-15 -19 -2 -46 22 -46 12 0 17 -4 12 -12 -4 -7 -3 -8 4
-4 7 4 12 22 12 39 0 25 -5 33 -19 34 -11 1 -25 -4 -31 -11z m38 -19 c2 -10
-3 -17 -12 -17 -18 0 -29 16 -21 31 9 14 29 6 33 -14z"/>
<path d="M3550 1105 c-17 -21 -5 -45 22 -44 l23 2 -22 4 c-13 2 -23 11 -23 18
0 21 21 30 32 14 8 -12 9 -12 6 0 -6 21 -23 24 -38 6z"/>
<path d="M3655 1111 c-3 -7 0 -8 9 -5 11 4 16 0 16 -15 0 -12 -5 -21 -11 -21
-5 0 -7 5 -4 10 3 6 1 10 -4 10 -6 0 -11 -7 -11 -15 0 -8 9 -15 21 -15 16 0
20 5 17 27 -3 28 -22 41 -33 24z"/>
<path d="M3741 1106 c-16 -19 -3 -46 23 -45 16 1 17 2 4 6 -10 2 -18 13 -18
24 0 22 10 24 30 7 12 -11 12 -10 1 5 -16 21 -25 21 -40 3z"/>
<path d="M3804 1109 c-4 -7 1 -16 12 -22 17 -10 17 -11 -1 -18 -19 -7 -18 -8
3 -8 26 -1 29 16 5 36 -17 14 -17 14 0 9 11 -3 16 -2 12 4 -8 13 -22 13 -31
-1z"/>
<path d="M3887 1114 c-4 -4 -7 -18 -7 -31 0 -20 5 -24 23 -21 16 2 22 10 22
28 0 24 -23 39 -38 24z m33 -24 c0 -11 -7 -20 -15 -20 -8 0 -15 9 -15 20 0 11
7 20 15 20 8 0 15 -9 15 -20z"/>
<path d="M4014 1106 c-12 -33 23 -65 40 -37 4 5 -3 7 -14 4 -15 -4 -20 0 -20
16 0 21 24 29 33 11 3 -6 4 -5 3 2 -4 19 -35 22 -42 4z"/>
<path d="M4082 1111 c-21 -13 -10 -46 16 -49 12 -2 22 1 22 6 0 6 -9 8 -21 5
-17 -5 -20 -2 -17 13 2 11 11 18 21 18 9 -1 17 2 17 7 0 11 -21 11 -38 0z"/>
<path d="M4144 1106 c-12 -33 23 -65 40 -37 4 5 -3 7 -14 4 -15 -4 -20 0 -20
16 0 21 24 29 33 11 3 -6 4 -5 3 2 -4 19 -35 22 -42 4z"/>
<path d="M4236 1109 c7 -8 14 -23 17 -34 4 -13 5 -9 4 9 -1 16 -9 32 -17 34
-12 4 -13 2 -4 -9z"/>
<path d="M4306 1112 c-3 -6 2 -9 11 -8 10 0 19 -8 21 -18 3 -15 0 -18 -17 -13
-12 3 -21 1 -21 -5 0 -5 10 -8 23 -6 16 2 22 10 22 28 0 25 -27 40 -39 22z"/>
<path d="M4373 1113 c-7 -2 -12 -17 -12 -31 1 -21 2 -23 6 -7 3 11 10 26 15
33 11 13 10 13 -9 5z"/>
<path d="M4411 1106 c-15 -18 -3 -46 20 -46 25 0 35 26 19 45 -15 19 -24 19
-39 1z m37 -19 c2 -10 -3 -17 -12 -17 -18 0 -29 16 -21 31 9 14 29 6 33 -14z"/>
<path d="M4478 1113 c7 -3 16 -2 19 1 4 3 -2 6 -13 5 -11 0 -14 -3 -6 -6z"/>
<path d="M4514 1106 c-12 -33 23 -65 40 -37 4 5 -3 7 -14 4 -15 -4 -20 0 -20
16 0 21 24 29 33 11 3 -6 4 -5 3 2 -4 19 -35 22 -42 4z"/>
<path d="M4581 1106 c-17 -20 -2 -49 21 -43 14 4 18 2 14 -9 -3 -9 -1 -12 4
-9 16 10 12 62 -6 69 -21 8 -20 8 -33 -8z m35 -7 c10 -17 -13 -36 -27 -22 -12
12 -4 33 11 33 5 0 12 -5 16 -11z"/>
<path d="M4652 1111 c-21 -13 -10 -46 16 -47 19 -1 19 -1 2 3 -22 5 -27 28 -9
39 6 3 16 0 21 -7 8 -12 9 -12 6 0 -5 19 -19 23 -36 12z"/>
<path d="M4774 1106 c-12 -33 23 -65 40 -37 4 5 -3 7 -14 4 -15 -4 -20 0 -20
16 0 21 24 29 33 11 3 -6 4 -5 3 2 -4 19 -35 22 -42 4z"/>
<path d="M4895 1109 c-4 -6 1 -17 11 -25 17 -14 17 -15 2 -10 -10 3 -18 1 -18
-4 0 -6 9 -10 20 -10 25 0 26 18 3 37 -17 14 -17 14 0 9 11 -3 16 -2 12 4 -8
13 -22 13 -30 -1z"/>
<path d="M5014 1106 c-12 -33 23 -65 40 -37 4 5 -3 7 -14 4 -15 -4 -20 0 -20
16 0 21 24 29 33 11 3 -6 4 -5 3 2 -4 19 -35 22 -42 4z"/>
<path d="M5104 1105 c-13 -32 23 -63 40 -36 4 5 -3 7 -14 4 -16 -4 -20 0 -20
17 0 17 4 21 20 17 11 -3 18 -1 14 4 -8 14 -34 11 -40 -6z"/>
<path d="M1420 1104 c0 -6 6 -18 13 -28 13 -18 14 -18 21 -1 3 10 4 20 1 23
-3 3 -5 -1 -5 -9 -1 -10 -5 -8 -15 5 -8 11 -15 15 -15 10z"/>
<path d="M2411 1088 c-1 -24 3 -28 24 -28 21 0 25 5 24 28 0 26 -1 26 -9 5 -5
-13 -14 -23 -19 -23 -5 0 -12 10 -14 23 -4 19 -4 18 -6 -5z"/>
<path d="M3032 1085 c0 -16 2 -22 5 -12 2 9 2 23 0 30 -3 6 -5 -1 -5 -18z"/>
<path d="M3944 1085 c1 -13 9 -21 24 -23 19 -3 22 1 21 25 -2 23 -2 24 -6 6
-5 -27 -30 -31 -36 -5 -3 13 -4 12 -3 -3z"/>
<path d="M4712 1085 c0 -16 2 -22 5 -12 2 9 2 23 0 30 -3 6 -5 -1 -5 -18z"/>
<path d="M864 1082 c3 -6 -2 -13 -11 -15 -14 -4 -13 -5 5 -6 23 -1 30 13 10
25 -6 4 -8 3 -4 -4z"/>
<path d="M3305 1081 c3 -5 -3 -12 -12 -14 -14 -4 -13 -5 5 -6 13 -1 22 5 22
14 0 8 -5 15 -11 15 -5 0 -8 -4 -4 -9z"/>
<path d="M720 1069 c0 -5 9 -9 20 -9 11 0 20 2 20 4 0 2 -9 6 -20 9 -11 3 -20
1 -20 -4z"/>
<path d="M1540 1069 c0 -5 9 -9 20 -9 11 0 20 2 20 4 0 2 -9 6 -20 9 -11 3
-20 1 -20 -4z"/>
<path d="M2020 1068 c0 -10 27 -10 34 0 2 4 -4 8 -15 8 -10 0 -19 -4 -19 -8z"/>
<path d="M2470 1069 c0 -5 9 -9 20 -9 11 0 20 2 20 4 0 2 -9 6 -20 9 -11 3
-20 1 -20 -4z"/>
<path d="M3080 1070 c0 -5 5 -10 11 -10 5 0 7 5 4 10 -3 6 -8 10 -11 10 -2 0
-4 -4 -4 -10z"/>
<path d="M4480 1070 c0 -5 5 -10 11 -10 5 0 7 5 4 10 -3 6 -8 10 -11 10 -2 0
-4 -4 -4 -10z"/>
<path d="M4950 1068 c0 -4 9 -8 20 -8 11 0 20 4 20 8 0 4 -9 8 -20 8 -11 0
-20 -4 -20 -8z"/>
<path d="M1328 1063 c6 -2 18 -2 25 0 6 3 1 5 -13 5 -14 0 -19 -2 -12 -5z"/>
<path d="M326 851 c-4 -5 3 -7 14 -4 11 3 20 0 20 -6 0 -6 -6 -11 -12 -11 -7
0 -5 -5 5 -11 23 -14 22 -33 -3 -26 -11 3 -20 1 -20 -4 0 -11 37 -12 43 -1 3
4 2 22 0 40 -4 23 -11 32 -24 32 -10 0 -20 -4 -23 -9z"/>
<path d="M445 849 c-11 -16 -1 -19 13 -3 7 8 8 14 3 14 -5 0 -13 -5 -16 -11z"/>
<path d="M1200 845 c0 -8 -6 -12 -13 -9 -18 7 -39 -20 -31 -40 3 -9 13 -16 22
-16 13 0 12 3 -4 14 -15 12 -17 17 -6 27 14 15 28 5 35 -26 3 -11 5 -1 6 23 0
23 -1 42 -4 42 -3 0 -5 -7 -5 -15z"/>
<path d="M1793 853 c9 -2 23 -2 30 0 6 3 -1 5 -18 5 -16 0 -22 -2 -12 -5z"/>
<path d="M2588 853 c6 -2 18 -2 25 0 6 3 1 5 -13 5 -14 0 -19 -2 -12 -5z"/>
<path d="M2923 820 c0 -25 2 -35 4 -22 2 12 2 32 0 45 -2 12 -4 2 -4 -23z"/>
<path d="M3760 850 c0 -5 -6 -10 -14 -10 -20 0 -37 -25 -30 -44 3 -9 13 -16
22 -16 13 0 12 3 -4 14 -15 12 -17 17 -6 27 14 15 28 5 35 -26 3 -11 5 -1 6
23 0 23 -1 42 -4 42 -3 0 -5 -4 -5 -10z"/>
<path d="M5953 820 c0 -25 2 -35 4 -22 2 12 2 32 0 45 -2 12 -4 2 -4 -23z"/>
<path d="M707 844 c-9 -9 9 -58 21 -60 7 -1 8 0 2 3 -14 7 -13 40 2 45 8 3 6
6 -4 10 -9 4 -18 4 -21 2z"/>
<path d="M1318 845 c-6 -7 3 -65 11 -65 7 0 7 58 -1 65 -2 3 -7 3 -10 0z"/>
<path d="M3088 844 c-7 -7 4 -64 12 -64 5 0 6 9 3 21 -3 12 0 24 6 29 10 5 9
9 -2 13 -8 3 -17 4 -19 1z"/>
<path d="M524 826 c-9 -24 4 -48 23 -44 12 2 18 12 18 28 0 29 -32 41 -41 16z
m36 -16 c0 -11 -7 -20 -15 -20 -8 0 -15 9 -15 20 0 11 7 20 15 20 8 0 15 -9
15 -20z"/>
<path d="M594 826 c-3 -8 -4 -23 -1 -33 3 -12 5 -8 6 10 1 34 28 36 34 2 4
-23 4 -23 3 2 -1 31 -32 45 -42 19z"/>
<path d="M655 831 c-3 -5 0 -13 6 -17 8 -5 9 -3 4 6 -6 10 -4 12 8 7 10 -3 17
-2 17 3 0 13 -27 13 -35 1z"/>
<path d="M751 808 c2 -28 2 -29 6 -8 3 14 10 28 17 32 7 5 5 8 -6 8 -14 0 -18
-8 -17 -32z"/>
<path d="M793 816 c1 -17 9 -31 17 -33 10 -3 11 -2 4 4 -7 4 -14 19 -17 33 -4
22 -5 21 -4 -4z"/>
<path d="M832 810 c0 -19 2 -27 5 -17 2 9 2 25 0 35 -3 9 -5 1 -5 -18z"/>
<path d="M861 826 c-6 -7 -9 -21 -5 -30 7 -17 29 -22 38 -7 3 5 -2 8 -12 7 -9
0 -17 6 -17 14 0 8 8 14 17 14 10 -1 15 2 12 7 -8 13 -20 11 -33 -5z"/>
<path d="M921 826 c-6 -7 -9 -21 -5 -30 7 -17 29 -22 38 -7 3 5 -2 8 -12 7 -9
0 -17 6 -17 14 0 8 8 14 17 14 10 -1 15 2 12 7 -8 13 -20 11 -33 -5z"/>
<path d="M1004 825 c-13 -32 23 -63 40 -36 4 5 -3 7 -14 4 -16 -4 -20 0 -20
17 0 17 4 21 20 17 11 -3 18 -1 14 4 -8 14 -34 11 -40 -6z"/>
<path d="M1072 810 c0 -19 2 -27 5 -17 2 9 2 25 0 35 -3 9 -5 1 -5 -18z"/>
<path d="M1096 833 c7 -4 14 -19 17 -33 4 -22 5 -21 4 4 -1 17 -9 31 -17 33
-10 3 -11 2 -4 -4z"/>
<path d="M1231 826 c-16 -19 -3 -46 23 -45 21 0 21 0 -1 9 -15 6 -21 15 -17
25 7 17 24 21 24 5 0 -5 5 -10 11 -10 8 0 8 5 -1 15 -15 19 -24 19 -39 1z"/>
<path d="M1354 826 c-12 -33 23 -65 40 -37 4 5 -3 7 -14 4 -15 -4 -20 0 -20
16 0 21 24 29 33 11 3 -6 4 -5 3 2 -4 19 -35 22 -42 4z"/>
<path d="M1421 808 c2 -28 2 -29 6 -8 3 14 10 28 17 32 7 5 5 8 -6 8 -14 0
-18 -8 -17 -32z"/>
<path d="M1461 808 c2 -28 2 -29 6 -8 3 14 10 28 17 32 7 5 5 8 -6 8 -14 0
-18 -8 -17 -32z"/>
<path d="M1505 830 c-3 -6 1 -7 9 -4 11 4 16 0 16 -15 0 -23 -15 -29 -23 -8
-3 7 -6 5 -6 -5 -1 -12 6 -18 19 -18 16 0 20 7 20 30 0 30 -21 42 -35 20z"/>
<path d="M1570 830 c12 -7 12 -12 2 -22 -18 -18 -15 -28 11 -27 16 1 17 3 5 6
-16 4 -16 6 -2 29 16 23 15 24 -7 24 -19 0 -21 -2 -9 -10z"/>
<path d="M1616 831 c-4 -5 3 -7 14 -4 23 6 26 13 6 13 -8 0 -17 -4 -20 -9z"/>
<path d="M1675 829 c-4 -6 1 -17 11 -25 17 -14 17 -15 2 -10 -10 3 -18 1 -18
-4 0 -6 9 -10 20 -10 25 0 26 18 3 37 -17 14 -17 14 0 9 11 -3 16 -2 12 4 -8
13 -22 13 -30 -1z"/>
<path d="M1851 808 c2 -30 2 -31 6 -5 5 34 30 36 36 2 4 -23 4 -23 3 2 -1 21
-7 29 -23 31 -20 3 -23 -1 -22 -30z"/>
<path d="M1950 832 c21 -10 25 -42 5 -42 -10 0 -13 5 -9 12 4 7 3 8 -5 4 -16
-10 -4 -26 20 -26 29 0 23 54 -6 57 -15 2 -16 1 -5 -5z"/>
<path d="M2001 808 c2 -28 2 -29 6 -8 3 14 10 28 17 32 7 5 5 8 -6 8 -14 0
-18 -8 -17 -32z"/>
<path d="M2041 826 c-16 -19 -3 -46 23 -45 16 1 17 2 4 6 -19 5 -25 43 -8 43
6 0 10 -4 10 -10 0 -5 4 -10 10 -10 5 0 7 7 4 15 -8 19 -28 19 -43 1z"/>
<path d="M2105 830 c-3 -6 1 -7 9 -4 11 4 16 0 16 -15 0 -23 -15 -29 -23 -8
-3 7 -6 5 -6 -5 -1 -12 6 -18 19 -18 16 0 20 7 20 30 0 30 -21 42 -35 20z"/>
<path d="M2160 826 c0 -8 8 -17 18 -21 16 -7 15 -8 -3 -15 -19 -8 -19 -9 3 -9
26 -1 29 16 5 36 -17 14 -17 14 0 9 11 -3 16 -2 12 4 -9 15 -35 12 -35 -4z"/>
<path d="M2245 830 c-2 -4 11 -6 30 -4 30 2 34 -1 38 -24 4 -25 4 -24 6 5 1
29 -1 31 -34 31 -19 0 -37 -3 -40 -8z"/>
<path d="M2346 831 c-3 -5 3 -7 14 -4 16 4 20 0 20 -17 0 -18 -4 -21 -21 -17
-16 4 -19 3 -11 -5 17 -17 44 -1 40 24 -3 24 -32 36 -42 19z"/>
<path d="M2416 831 c-4 -5 3 -7 14 -4 23 6 26 13 6 13 -8 0 -17 -4 -20 -9z"/>
<path d="M2478 833 c7 -3 16 -2 19 1 4 3 -2 6 -13 5 -11 0 -14 -3 -6 -6z"/>
<path d="M2516 831 c-3 -5 2 -7 12 -4 12 3 18 -2 19 -16 1 -13 -4 -21 -13 -21
-8 0 -12 5 -9 10 3 6 1 10 -4 10 -6 0 -11 -7 -11 -15 0 -9 10 -15 26 -15 22 0
25 4 22 27 -3 28 -30 43 -42 24z"/>
<path d="M2571 805 c1 -29 1 -29 8 -5 4 15 14 24 24 24 9 -1 17 2 17 7 0 5
-11 8 -25 7 -21 -2 -25 -7 -24 -33z"/>
<path d="M2644 826 c-9 -24 4 -48 23 -44 12 2 18 12 18 28 0 29 -32 41 -41 16z
m36 -16 c0 -11 -7 -20 -15 -20 -8 0 -15 9 -15 20 0 11 7 20 15 20 8 0 15 -9
15 -20z"/>
<path d="M2718 833 c7 -3 16 -2 19 1 4 3 -2 6 -13 5 -11 0 -14 -3 -6 -6z"/>
<path d="M2765 830 c-3 -6 1 -7 9 -4 11 4 16 0 16 -15 0 -23 -15 -29 -23 -8
-3 7 -6 5 -6 -5 -1 -12 6 -18 19 -18 16 0 20 7 20 30 0 30 -21 42 -35 20z"/>
<path d="M2825 829 c-4 -6 1 -17 11 -25 17 -14 17 -15 2 -10 -10 3 -18 1 -18
-4 0 -6 9 -10 20 -10 25 0 26 18 3 37 -17 14 -17 14 0 9 11 -3 16 -2 12 4 -8
13 -22 13 -30 -1z"/>
<path d="M2955 830 c-3 -5 0 -7 7 -5 9 4 14 -2 15 -15 2 -22 -12 -27 -20 -7
-3 7 -6 5 -6 -5 -1 -12 6 -18 19 -18 16 0 20 7 20 30 0 30 -21 42 -35 20z"/>
<path d="M3010 826 c0 -8 8 -17 18 -21 16 -7 15 -8 -3 -15 -19 -8 -19 -9 3 -9
26 -1 29 16 5 36 -17 14 -17 14 0 9 11 -3 16 -2 12 4 -9 15 -35 12 -35 -4z"/>
<path d="M3131 826 c-16 -19 -3 -46 23 -45 21 0 21 0 -1 9 -15 6 -21 15 -17
25 7 17 24 21 24 5 0 -5 5 -10 11 -10 8 0 8 5 -1 15 -15 19 -24 19 -39 1z"/>
<path d="M3192 810 c0 -19 2 -27 5 -17 2 9 2 25 0 35 -3 9 -5 1 -5 -18z"/>
<path d="M3231 806 c1 -21 3 -25 6 -11 3 11 9 25 14 31 5 7 3 11 -6 11 -10 0
-15 -10 -14 -31z"/>
<path d="M3276 831 c-4 -5 3 -7 14 -4 23 6 26 13 6 13 -8 0 -17 -4 -20 -9z"/>
<path d="M3343 831 c17 -6 17 -8 3 -20 -23 -19 -20 -31 7 -30 19 0 20 1 4 8
-17 6 -17 8 -3 20 23 19 20 31 -6 30 -20 0 -21 -1 -5 -8z"/>
<path d="M3386 831 c-3 -5 2 -7 12 -4 12 3 18 -2 19 -16 1 -13 -4 -21 -13 -21
-8 0 -12 5 -9 10 3 6 1 10 -5 10 -21 0 -4 -25 19 -28 19 -3 22 0 19 25 -3 28
-30 44 -42 24z"/>
<path d="M3445 831 c-3 -5 0 -13 6 -17 7 -4 9 -3 5 4 -3 6 2 13 11 15 16 4 16
5 1 6 -9 0 -19 -3 -23 -8z"/>
<path d="M3522 800 c0 -25 2 -39 5 -32 2 6 11 12 18 12 8 0 16 4 19 9 4 5 -3
7 -13 4 -15 -4 -20 1 -24 24 -3 18 -4 13 -5 -17z"/>
<path d="M3540 836 c0 -2 7 -7 16 -10 8 -3 12 -2 9 4 -6 10 -25 14 -25 6z"/>
<path d="M3591 813 c-1 -29 2 -33 24 -31 21 2 25 7 24 33 -1 28 -1 28 -8 6 -9
-35 -29 -37 -34 -4 -4 27 -4 27 -6 -4z"/>
<path d="M3654 826 c-9 -23 3 -46 23 -45 17 1 17 2 1 6 -21 5 -24 43 -4 43 8
0 17 -5 19 -10 3 -6 4 -5 3 2 -4 19 -35 22 -42 4z"/>
<path d="M3791 826 c-14 -17 -4 -46 17 -46 14 0 14 1 -1 13 -12 9 -14 16 -6
27 8 11 12 12 16 3 2 -7 9 -13 15 -13 6 0 6 6 -2 15 -15 19 -24 19 -39 1z"/>
<path d="M3852 810 c0 -19 2 -27 5 -17 2 9 2 25 0 35 -3 9 -5 1 -5 -18z"/>
<path d="M3876 833 c7 -4 14 -19 17 -33 4 -22 5 -21 4 4 -1 17 -9 31 -17 33
-10 3 -11 2 -4 -4z"/>
<path d="M3941 808 c2 -28 2 -29 6 -8 3 14 10 28 17 32 7 5 5 8 -6 8 -14 0
-18 -8 -17 -32z"/>
<path d="M3984 826 c-9 -23 3 -46 23 -45 17 1 17 2 1 6 -21 5 -24 43 -4 43 8
0 17 -5 19 -10 3 -6 4 -5 3 2 -4 19 -35 22 -42 4z"/>
<path d="M4044 825 c-9 -23 3 -45 26 -45 16 0 20 7 20 30 0 23 -4 30 -20 30
-11 0 -23 -7 -26 -15z m36 -15 c0 -11 -7 -20 -15 -20 -8 0 -15 9 -15 20 0 11
7 20 15 20 8 0 15 -9 15 -20z"/>
<path d="M4113 816 c1 -17 9 -31 17 -33 10 -3 11 -2 4 4 -7 4 -14 19 -17 33
-4 22 -5 21 -4 -4z"/>
<path d="M4152 810 c0 -19 2 -27 5 -17 2 9 2 25 0 35 -3 9 -5 1 -5 -18z"/>
<path d="M4181 826 c-6 -7 -9 -21 -5 -30 7 -17 29 -22 38 -7 3 5 -2 8 -12 7
-9 0 -17 6 -17 14 0 8 8 14 17 14 10 -1 15 2 12 7 -8 13 -20 11 -33 -5z"/>
<path d="M4242 810 c0 -19 2 -27 5 -17 2 9 2 25 0 35 -3 9 -5 1 -5 -18z"/>
<path d="M4261 806 c1 -21 3 -25 6 -11 3 11 9 25 14 31 5 7 3 11 -6 11 -10 0
-15 -10 -14 -31z"/>
<path d="M4366 831 c-4 -5 3 -7 14 -4 23 6 26 13 6 13 -8 0 -17 -4 -20 -9z"/>
<path d="M4441 835 c0 -5 5 -20 12 -33 l13 -23 13 27 c6 15 10 29 7 31 -2 2
-7 -6 -11 -18 l-7 -22 -14 24 c-7 13 -13 20 -13 14z"/>
<path d="M4504 826 c-12 -33 23 -65 40 -37 4 5 -3 7 -14 4 -15 -4 -20 0 -20
16 0 21 24 29 33 11 3 -6 4 -5 3 2 -4 19 -35 22 -42 4z"/>
<path d="M4594 825 c-13 -32 23 -63 40 -36 4 5 -3 7 -14 4 -16 -4 -20 0 -20
17 0 17 4 21 20 17 11 -3 18 -1 14 4 -8 14 -34 11 -40 -6z"/>
<path d="M4661 826 c-16 -19 -3 -46 23 -45 20 0 20 1 -2 10 -26 10 -25 35 2
33 9 -1 16 2 16 7 0 14 -26 11 -39 -5z"/>
<path d="M4722 810 c0 -19 2 -27 5 -17 2 9 2 25 0 35 -3 9 -5 1 -5 -18z"/>
<path d="M4744 825 c-9 -23 3 -45 26 -45 11 0 20 4 20 9 0 5 -9 7 -21 4 -17
-5 -20 -2 -17 13 2 11 11 18 21 18 9 -1 17 2 17 7 0 15 -40 10 -46 -6z"/>
<path d="M4816 831 c-3 -5 2 -7 12 -4 12 3 18 -2 19 -16 1 -13 -4 -21 -13 -21
-8 0 -12 5 -9 10 3 6 1 10 -4 10 -6 0 -11 -7 -11 -15 0 -9 10 -15 26 -15 22 0
25 4 22 27 -3 28 -30 43 -42 24z"/>
<path d="M4874 825 c-9 -23 3 -45 26 -45 16 0 20 7 20 30 0 23 -4 30 -20 30
-11 0 -23 -7 -26 -15z m36 -15 c0 -11 -7 -20 -15 -20 -8 0 -15 9 -15 20 0 11
7 20 15 20 8 0 15 -9 15 -20z"/>
<path d="M4964 825 c-13 -32 23 -63 40 -36 4 5 -3 7 -14 4 -16 -4 -20 0 -20
17 0 17 4 21 20 17 11 -3 20 -1 20 4 0 15 -40 10 -46 -6z"/>
<path d="M5034 826 c-12 -33 23 -65 40 -37 4 5 -3 7 -14 4 -15 -4 -20 0 -20
16 0 21 24 29 33 11 3 -6 4 -5 3 2 -4 19 -35 22 -42 4z"/>
<path d="M5160 832 c21 -10 25 -42 5 -42 -10 0 -13 5 -9 12 4 7 3 8 -5 4 -16
-10 -4 -26 20 -26 29 0 23 54 -6 57 -15 2 -16 1 -5 -5z"/>
<path d="M5205 830 c-9 -15 4 -50 20 -50 8 0 16 4 19 9 3 5 -2 8 -12 7 -9 0
-17 6 -17 14 0 8 8 14 17 14 10 -1 15 2 12 7 -7 12 -31 11 -39 -1z"/>
<path d="M5274 810 c1 -18 7 -26 24 -28 19 -3 22 1 21 30 -2 30 -2 31 -6 6 -5
-34 -30 -37 -36 -5 -3 19 -4 19 -3 -3z"/>
<path d="M5345 831 c-3 -6 0 -9 7 -6 8 3 14 -2 15 -14 1 -11 -6 -22 -15 -24
-12 -3 -10 -5 6 -6 20 -1 23 3 20 26 -3 28 -22 41 -33 24z"/>
<path d="M5501 795 c0 -22 3 -34 6 -27 2 6 13 12 23 12 10 0 20 7 24 15 9 25
-4 45 -30 43 -21 -2 -24 -7 -23 -43z m45 24 c10 -17 -13 -36 -27 -22 -12 12
-4 33 11 33 5 0 12 -5 16 -11z"/>
<path d="M5571 806 c1 -21 3 -25 6 -11 3 11 9 25 14 31 5 7 3 11 -6 11 -10 0
-15 -10 -14 -31z"/>
<path d="M5614 826 c-12 -33 23 -65 40 -37 4 5 -3 7 -14 4 -15 -4 -20 0 -20
16 0 21 24 29 33 11 3 -6 4 -5 3 2 -4 19 -35 22 -42 4z"/>
<path d="M5671 835 c0 -5 5 -20 12 -33 l13 -23 13 27 c6 15 10 29 7 31 -2 2
-7 -6 -11 -18 l-7 -22 -14 24 c-7 13 -13 20 -13 14z"/>
<path d="M5734 826 c-12 -33 23 -65 40 -37 4 5 -3 7 -14 4 -15 -4 -20 0 -20
16 0 21 24 29 33 11 3 -6 4 -5 3 2 -4 19 -35 22 -42 4z"/>
<path d="M5806 832 c-2 -4 4 -8 15 -8 10 0 19 4 19 8 0 4 -6 8 -14 8 -8 0 -17
-4 -20 -8z"/>
<path d="M5862 810 c0 -19 2 -27 5 -17 2 9 2 25 0 35 -3 9 -5 1 -5 -18z"/>
<path d="M5891 808 c2 -28 2 -29 6 -8 3 14 10 28 17 32 7 5 5 8 -6 8 -14 0
-18 -8 -17 -32z"/>
<path d="M5985 830 c-3 -6 1 -7 9 -4 11 4 16 0 16 -15 0 -23 -15 -29 -23 -8
-3 7 -6 5 -6 -5 -1 -12 6 -18 19 -18 16 0 20 7 20 30 0 30 -21 42 -35 20z"/>
<path d="M6064 826 c-12 -33 23 -65 40 -37 4 5 -3 7 -14 4 -15 -4 -20 0 -20
16 0 21 24 29 33 11 3 -6 4 -5 3 2 -4 19 -35 22 -42 4z"/>
<path d="M6131 808 c2 -28 2 -29 6 -8 3 14 10 28 17 32 7 5 5 8 -6 8 -14 0
-18 -8 -17 -32z"/>
<path d="M6176 831 c-3 -5 3 -7 14 -4 16 4 20 0 20 -17 0 -18 -4 -21 -21 -17
-16 4 -19 3 -11 -5 17 -17 44 -1 40 24 -3 24 -32 36 -42 19z"/>
<path d="M6235 831 c-3 -5 0 -13 6 -17 7 -4 9 -3 5 4 -3 6 2 13 11 15 16 4 16
5 1 6 -9 0 -19 -3 -23 -8z"/>
<path d="M6292 810 c0 -19 2 -27 5 -17 2 9 2 25 0 35 -3 9 -5 1 -5 -18z"/>
<path d="M6321 826 c-15 -18 -3 -46 19 -46 10 0 21 7 24 16 6 16 -9 44 -24 44
-4 0 -13 -6 -19 -14z m35 -7 c10 -17 -13 -36 -27 -22 -12 12 -4 33 11 33 5 0
12 -5 16 -11z"/>
<path d="M6381 806 c1 -28 2 -29 8 -7 9 34 29 37 34 6 4 -24 4 -24 3 2 -1 22
-6 28 -23 29 -19 1 -23 -4 -22 -30z"/>
<path d="M1780 821 c0 -5 9 -7 20 -4 11 3 20 7 20 9 0 2 -9 4 -20 4 -11 0 -20
-4 -20 -9z"/>
<path d="M5450 811 c0 -7 -4 -10 -9 -7 -5 3 -8 -6 -8 -21 l0 -27 14 28 c8 15
12 30 9 34 -3 3 -6 0 -6 -7z"/>
<path d="M444 798 c4 -20 41 -21 56 -1 12 15 12 16 0 6 -17 -16 -46 -17 -53
-3 -3 6 -4 5 -3 -2z"/>
<path d="M1610 795 c0 -9 10 -15 26 -15 14 0 23 4 19 10 -3 5 -13 6 -22 3 -11
-4 -14 -3 -9 5 4 7 2 12 -3 12 -6 0 -11 -7 -11 -15z"/>
<path d="M2735 800 c6 -10 3 -12 -13 -8 -12 4 -20 2 -16 -3 7 -12 31 -12 39 0
3 5 0 13 -6 17 -8 5 -9 3 -4 -6z"/>
<path d="M3270 795 c0 -9 10 -15 26 -15 14 0 23 4 19 10 -3 5 -13 6 -22 3 -11
-4 -14 -3 -9 5 4 7 2 12 -3 12 -6 0 -11 -7 -11 -15z"/>
<path d="M4360 795 c0 -10 9 -14 24 -13 14 1 22 6 20 10 -3 4 -12 4 -21 1 -11
-4 -14 -3 -9 5 4 7 2 12 -3 12 -6 0 -11 -7 -11 -15z"/>
<path d="M6265 800 c6 -10 3 -12 -13 -8 -12 4 -20 2 -16 -3 7 -12 31 -12 39 0
3 5 0 13 -6 17 -8 5 -9 3 -4 -6z"/>
<path d="M658 788 c5 -5 16 -8 23 -6 8 3 3 7 -10 11 -17 4 -21 3 -13 -5z"/>
<path d="M2480 790 c0 -5 5 -10 11 -10 5 0 7 5 4 10 -3 6 -8 10 -11 10 -2 0
-4 -4 -4 -10z"/>
<path d="M3448 788 c5 -5 16 -8 23 -6 8 3 3 7 -10 11 -17 4 -21 3 -13 -5z"/>
<path d="M1793 783 c9 -2 23 -2 30 0 6 3 -1 5 -18 5 -16 0 -22 -2 -12 -5z"/>
<path d="M342 555 c-22 -28 -23 -30 -5 -34 10 -2 21 -8 24 -13 10 -15 16 14
10 47 l-6 29 -23 -29z m18 -10 c0 -8 -4 -15 -10 -15 -5 0 -7 7 -4 15 4 8 8 15
10 15 2 0 4 -7 4 -15z"/>
<path d="M444 566 c-9 -23 -1 -48 18 -60 14 -8 21 -7 35 9 16 17 17 18 1 6
-10 -7 -25 -11 -33 -7 -18 7 -20 52 -2 59 9 4 9 6 -1 6 -7 1 -15 -5 -18 -13z"/>
<path d="M492 566 c7 -8 15 -12 17 -11 5 6 -10 25 -20 25 -5 0 -4 -6 3 -14z"/>
<path d="M1342 543 c-2 -41 -1 -43 26 -42 22 1 23 2 5 6 -17 3 -23 13 -26 41
l-4 37 -1 -42z"/>
<path d="M2220 571 c0 -5 -9 -11 -21 -14 -29 -8 -22 -51 9 -55 20 -3 22 1 22
37 0 23 -2 41 -5 41 -3 0 -5 -4 -5 -9z m0 -41 c0 -11 -7 -20 -15 -20 -8 0 -15
9 -15 20 0 11 7 20 15 20 8 0 15 -9 15 -20z"/>
<path d="M2583 540 c0 -25 2 -35 4 -22 2 12 2 32 0 45 -2 12 -4 2 -4 -23z"/>
<path d="M2870 570 c0 -5 -6 -10 -14 -10 -8 0 -17 -4 -20 -9 -4 -5 3 -7 13 -4
15 4 20 -1 24 -24 3 -21 4 -17 6 15 0 23 -1 42 -4 42 -3 0 -5 -4 -5 -10z"/>
<path d="M3440 571 c0 -5 -10 -11 -22 -13 -25 -3 -33 -25 -19 -47 5 -8 16 -11
30 -6 16 5 21 14 21 41 0 19 -2 34 -5 34 -3 0 -5 -4 -5 -9z m-4 -32 c10 -17
-13 -36 -27 -22 -12 12 -4 33 11 33 5 0 12 -5 16 -11z"/>
<path d="M3770 571 c0 -5 -9 -11 -21 -14 -29 -8 -22 -51 9 -55 20 -3 22 1 22
37 0 23 -2 41 -5 41 -3 0 -5 -4 -5 -9z m0 -41 c0 -11 -7 -20 -15 -20 -8 0 -15
9 -15 20 0 11 7 20 15 20 8 0 15 -9 15 -20z"/>
<path d="M4573 540 c0 -25 2 -35 4 -22 2 12 2 32 0 45 -2 12 -4 2 -4 -23z"/>
<path d="M4663 540 c0 -25 2 -35 4 -22 2 12 2 32 0 45 -2 12 -4 2 -4 -23z"/>
<path d="M4913 540 c0 -25 2 -35 4 -22 2 12 2 32 0 45 -2 12 -4 2 -4 -23z"/>
<path d="M5773 540 c0 -25 2 -35 4 -22 2 12 2 32 0 45 -2 12 -4 2 -4 -23z"/>
<path d="M658 564 c-7 -7 4 -64 12 -64 5 0 6 9 3 21 -3 12 0 24 6 29 10 5 9 9
-2 13 -8 3 -17 4 -19 1z"/>
<path d="M4208 564 c-3 -2 -3 -17 0 -34 3 -20 10 -30 21 -29 10 0 11 2 4 6
-16 6 -17 40 -1 45 8 3 6 6 -4 10 -9 4 -18 5 -20 2z"/>
<path d="M524 545 c-13 -32 23 -63 40 -36 4 5 -3 7 -14 4 -16 -4 -20 0 -20 17
0 17 4 21 20 17 11 -3 18 -1 14 4 -8 14 -34 11 -40 -6z"/>
<path d="M592 530 c0 -19 2 -27 5 -17 2 9 2 25 0 35 -3 9 -5 1 -5 -18z"/>
<path d="M616 553 c7 -4 14 -19 17 -33 4 -22 5 -21 4 4 -1 17 -9 31 -17 33
-10 3 -11 2 -4 -4z"/>
<path d="M701 533 c1 -22 2 -23 6 -8 3 11 10 23 17 27 7 5 5 8 -6 8 -13 0 -18
-7 -17 -27z"/>
<path d="M746 551 c-3 -5 3 -7 14 -4 16 4 20 0 20 -17 0 -18 -4 -21 -21 -17
-16 4 -19 3 -11 -5 17 -17 44 -1 40 24 -3 24 -32 36 -42 19z"/>
<path d="M854 545 c-13 -32 23 -63 40 -36 4 5 -3 7 -14 4 -16 -4 -20 0 -20 17
0 17 4 21 20 17 11 -3 20 -1 20 4 0 15 -40 10 -46 -6z"/>
<path d="M924 546 c-12 -33 23 -65 40 -37 4 5 -3 7 -14 4 -15 -4 -20 0 -20 16
0 21 24 29 33 11 3 -6 4 -5 3 2 -4 19 -35 22 -42 4z"/>
<path d="M1050 552 c8 -4 17 -16 18 -27 6 -33 14 -33 10 0 -2 21 -9 31 -23 32
-15 2 -16 1 -5 -5z"/>
<path d="M1095 550 c-13 -21 6 -50 31 -48 19 2 24 8 24 30 0 23 -4 28 -24 28
-14 0 -28 -5 -31 -10z m41 -11 c10 -17 -13 -36 -27 -22 -12 12 -4 33 11 33 5
0 12 -5 16 -11z"/>
<path d="M1164 530 c1 -18 7 -25 21 -25 14 0 20 7 21 25 1 22 0 22 -3 3 -2
-13 -10 -23 -18 -23 -8 0 -16 10 -18 23 -3 19 -4 19 -3 -3z"/>
<path d="M1235 550 c-3 -5 0 -7 7 -5 9 4 14 -2 15 -15 2 -22 -12 -27 -20 -7
-3 7 -6 5 -6 -5 -1 -12 6 -18 19 -18 16 0 20 7 20 30 0 30 -21 42 -35 20z"/>
<path d="M1405 550 c-4 -6 1 -7 11 -3 12 4 15 3 10 -5 -4 -7 -2 -12 3 -12 6 0
11 7 11 15 0 17 -25 20 -35 5z"/>
<path d="M1484 545 c-13 -32 23 -63 40 -36 4 5 -3 7 -14 4 -16 -4 -20 0 -20
17 0 17 4 21 20 17 11 -3 18 -1 14 4 -8 14 -34 11 -40 -6z"/>
<path d="M1544 545 c-8 -21 2 -45 19 -45 8 0 20 7 27 15 10 12 10 18 0 30 -7
8 -19 15 -27 15 -7 0 -16 -7 -19 -15z m41 -15 c0 -8 -8 -16 -17 -18 -13 -2
-18 3 -18 18 0 15 5 20 18 18 9 -2 17 -10 17 -18z"/>
<path d="M1611 528 c2 -30 2 -31 6 -5 5 34 30 36 36 2 4 -23 4 -23 3 2 -1 21
-7 29 -23 31 -20 3 -23 -1 -22 -30z"/>
<path d="M1688 553 c7 -3 16 -2 19 1 4 3 -2 6 -13 5 -11 0 -14 -3 -6 -6z"/>
<path d="M1728 553 c6 -2 18 -2 25 0 6 3 1 5 -13 5 -14 0 -19 -2 -12 -5z"/>
<path d="M1771 526 c1 -21 3 -25 6 -11 3 11 9 25 14 31 5 7 3 11 -6 11 -10 0
-15 -10 -14 -31z"/>
<path d="M1814 530 c1 -18 7 -25 21 -25 14 0 20 7 21 25 1 22 0 22 -3 3 -2
-13 -10 -23 -18 -23 -8 0 -16 10 -18 23 -3 19 -4 19 -3 -3z"/>
<path d="M1886 551 c-4 -5 3 -7 14 -4 23 6 26 13 6 13 -8 0 -17 -4 -20 -9z"/>
<path d="M1946 551 c-4 -5 3 -7 14 -4 23 6 26 13 6 13 -8 0 -17 -4 -20 -9z"/>
<path d="M2002 530 c0 -19 2 -27 5 -17 2 9 2 25 0 35 -3 9 -5 1 -5 -18z"/>
<path d="M2025 550 c-9 -15 4 -50 19 -50 20 0 37 25 30 44 -7 18 -39 22 -49 6z
m41 -11 c10 -17 -13 -36 -27 -22 -12 12 -4 33 11 33 5 0 12 -5 16 -11z"/>
<path d="M2092 530 c0 -19 2 -27 5 -17 2 9 2 25 0 35 -3 9 -5 1 -5 -18z"/>
<path d="M2116 553 c7 -4 14 -19 17 -33 4 -22 5 -21 4 4 -1 17 -9 31 -17 33
-10 3 -11 2 -4 -4z"/>
<path d="M2254 546 c-9 -23 3 -46 23 -45 17 1 17 2 1 6 -21 5 -24 43 -4 43 8
0 17 -5 19 -10 3 -6 4 -5 3 2 -4 19 -35 22 -42 4z"/>
<path d="M2335 550 c-9 -15 4 -50 20 -50 8 0 16 4 19 9 3 5 -2 8 -11 7 -10 0
-19 8 -21 18 -3 15 0 18 17 13 12 -3 19 -1 15 4 -7 12 -31 11 -39 -1z"/>
<path d="M2415 551 c19 -8 19 -8 -3 -15 -23 -8 -26 -28 -4 -32 7 -1 8 0 2 3
-11 5 -4 23 10 23 5 0 11 -8 14 -17 2 -10 4 -5 3 12 -2 22 -8 31 -22 32 l-20
3 20 -9z"/>
<path d="M2460 551 c0 -5 9 -7 20 -4 11 3 20 7 20 9 0 2 -9 4 -20 4 -11 0 -20
-4 -20 -9z"/>
<path d="M2526 551 c-4 -5 3 -7 14 -4 23 6 26 13 6 13 -8 0 -17 -4 -20 -9z"/>
<path d="M2614 546 c-9 -23 3 -46 23 -45 17 1 17 2 1 6 -21 5 -24 43 -4 43 8
0 17 -5 19 -10 3 -6 4 -5 3 2 -4 19 -35 22 -42 4z"/>
<path d="M2677 553 c-10 -10 -8 -23 4 -23 5 0 8 4 4 9 -3 5 3 12 12 14 14 4
15 5 2 6 -9 0 -19 -2 -22 -6z"/>
<path d="M2749 543 c6 -12 11 -32 11 -45 1 -20 3 -18 15 11 17 38 19 53 5 31
-8 -13 -11 -12 -25 5 -16 20 -16 20 -6 -2z"/>
<path d="M2902 530 c0 -19 2 -27 5 -17 2 9 2 25 0 35 -3 9 -5 1 -5 -18z"/>
<path d="M2924 545 c-13 -32 23 -63 40 -36 4 5 -3 7 -14 4 -16 -4 -20 0 -20
17 0 17 4 21 20 17 11 -3 20 -1 20 4 0 15 -40 10 -46 -6z"/>
<path d="M2994 530 c1 -18 7 -26 24 -28 19 -3 22 1 21 30 -2 30 -2 31 -6 6 -5
-34 -30 -37 -36 -5 -3 19 -4 19 -3 -3z"/>
<path d="M3064 546 c-9 -23 3 -46 23 -45 17 1 17 2 1 6 -21 5 -24 43 -4 43 8
0 17 -5 19 -10 3 -6 4 -5 3 2 -4 19 -35 22 -42 4z"/>
<path d="M3127 553 c-10 -10 -8 -23 4 -23 5 0 8 4 4 9 -3 5 3 12 12 14 14 4
15 5 2 6 -9 0 -19 -2 -22 -6z"/>
<path d="M3200 518 c0 -24 4 -38 8 -32 4 6 15 13 25 17 26 10 18 51 -10 55
-21 3 -23 -1 -23 -40z m40 12 c0 -11 -7 -20 -15 -20 -8 0 -15 9 -15 20 0 11 7
20 15 20 8 0 15 -9 15 -20z"/>
<path d="M3334 546 c-12 -33 23 -65 40 -37 4 5 -3 7 -14 4 -15 -4 -20 0 -20
16 0 21 24 29 33 11 3 -6 4 -5 3 2 -4 19 -35 22 -42 4z"/>
<path d="M3464 546 c-12 -33 23 -65 40 -37 4 5 -3 7 -14 4 -15 -4 -20 0 -20
16 0 21 24 29 33 11 3 -6 4 -5 3 2 -4 19 -35 22 -42 4z"/>
<path d="M3555 550 c-3 -5 0 -7 7 -5 9 4 14 -2 15 -15 2 -22 -12 -27 -20 -7
-3 7 -6 5 -6 -5 -1 -12 6 -18 19 -18 16 0 20 7 20 30 0 30 -21 42 -35 20z"/>
<path d="M3606 547 c3 -10 9 -15 12 -12 3 3 0 11 -7 18 -10 9 -11 8 -5 -6z"/>
<path d="M3631 529 c-7 -17 -11 -32 -8 -35 2 -3 10 9 17 26 17 40 8 48 -9 9z"/>
<path d="M3805 550 c-3 -5 0 -7 7 -5 9 4 14 -2 15 -15 2 -22 -12 -27 -20 -7
-3 7 -6 5 -6 -5 -1 -12 6 -18 19 -18 16 0 20 7 20 30 0 30 -21 42 -35 20z"/>
<path d="M3861 528 c2 -28 2 -29 6 -8 3 14 10 28 17 32 7 5 5 8 -6 8 -14 0
-18 -8 -17 -32z"/>
<path d="M3945 551 c19 -8 19 -8 -3 -15 -23 -8 -26 -28 -4 -32 7 -1 8 0 2 3
-11 5 -4 23 10 23 5 0 11 -8 14 -17 2 -10 4 -5 3 12 -2 22 -8 31 -22 32 l-20
3 20 -9z"/>
<path d="M4014 545 c-13 -32 23 -63 40 -36 4 5 -3 7 -14 4 -16 -4 -20 0 -20
17 0 17 4 21 20 17 11 -3 18 -1 14 4 -8 14 -34 11 -40 -6z"/>
<path d="M4074 545 c-8 -21 2 -45 19 -45 8 0 20 7 27 15 10 12 10 18 0 30 -7
8 -19 15 -27 15 -7 0 -16 -7 -19 -15z m41 -15 c0 -8 -8 -16 -17 -18 -13 -2
-18 3 -18 18 0 15 5 20 18 18 9 -2 17 -10 17 -18z"/>
<path d="M4141 528 c2 -30 2 -31 6 -5 5 34 30 36 36 2 4 -23 4 -23 3 2 -1 21
-7 29 -23 31 -20 3 -23 -1 -22 -30z"/>
<path d="M4251 533 c1 -22 2 -23 6 -8 3 11 10 23 17 27 7 5 5 8 -6 8 -13 0
-18 -7 -17 -27z"/>
<path d="M4296 551 c-3 -5 3 -7 14 -4 15 4 20 0 20 -16 0 -21 -24 -29 -33 -11
-3 6 -4 5 -3 -2 2 -7 11 -13 22 -13 14 0 19 7 19 25 0 25 -27 40 -39 21z"/>
<path d="M4386 551 c-4 -5 3 -7 14 -4 23 6 26 13 6 13 -8 0 -17 -4 -20 -9z"/>
<path d="M4441 528 c1 -22 3 -26 6 -13 3 11 10 26 15 33 8 9 6 12 -6 12 -12 0
-16 -9 -15 -32z"/>
<path d="M4506 544 c-8 -20 11 -44 33 -43 13 1 13 2 -1 6 -10 2 -18 13 -18 23
0 10 8 21 18 23 13 4 12 5 -4 6 -12 0 -25 -6 -28 -15z"/>
<path d="M4618 553 c6 -2 18 -2 25 0 6 3 1 5 -13 5 -14 0 -19 -2 -12 -5z"/>
<path d="M4691 533 c0 -18 3 -33 8 -33 26 0 41 14 40 39 l-1 26 -7 -24 c-9
-35 -29 -37 -34 -4 -4 27 -4 27 -6 -4z"/>
<path d="M4753 520 c0 -25 2 -35 4 -22 2 12 2 32 0 45 -2 12 -4 2 -4 -23z"/>
<path d="M4786 551 c-3 -5 3 -7 14 -4 15 4 20 0 20 -16 0 -21 -24 -29 -33 -11
-3 6 -4 5 -3 -2 2 -7 11 -13 22 -13 14 0 19 7 19 25 0 25 -27 40 -39 21z"/>
<path d="M4871 546 c-14 -17 -4 -46 17 -46 13 0 12 3 -4 15 -19 15 -19 15 0
30 11 8 15 15 9 15 -6 0 -16 -6 -22 -14z"/>
<path d="M4936 545 c-8 -22 4 -45 23 -44 10 0 11 2 4 6 -15 6 -17 43 -3 43 6
0 10 -4 10 -10 0 -5 4 -10 10 -10 5 0 7 7 4 15 -4 8 -14 15 -24 15 -10 0 -20
-7 -24 -15z"/>
<path d="M5026 551 c-4 -5 3 -7 14 -4 23 6 26 13 6 13 -8 0 -17 -4 -20 -9z"/>
<path d="M5087 553 c-14 -14 -6 -45 13 -50 11 -3 17 -9 14 -14 -3 -5 0 -9 5
-9 6 0 11 18 11 40 0 32 -4 40 -18 40 -10 0 -22 -3 -25 -7z m33 -23 c0 -11 -7
-20 -15 -20 -8 0 -15 9 -15 20 0 11 7 20 15 20 8 0 15 -9 15 -20z"/>
<path d="M5153 536 c1 -17 9 -31 17 -33 10 -3 11 -2 4 4 -7 4 -14 19 -17 33
-4 22 -5 21 -4 -4z"/>
<path d="M5192 530 c0 -19 2 -27 5 -17 2 9 2 25 0 35 -3 9 -5 1 -5 -18z"/>
<path d="M5230 552 c21 -10 25 -42 5 -42 -10 0 -13 5 -9 12 4 7 3 8 -5 4 -16
-10 -4 -26 20 -26 29 0 23 54 -6 57 -15 2 -16 1 -5 -5z"/>
<path d="M5331 543 c-9 -16 -12 -16 -22 -3 -9 13 -10 12 -5 -3 3 -10 6 -21 6
-23 0 -14 19 0 28 21 13 29 8 34 -7 8z"/>
<path d="M5382 530 c0 -19 2 -27 5 -17 2 9 2 25 0 35 -3 9 -5 1 -5 -18z"/>
<path d="M5424 546 c-12 -33 23 -65 40 -37 4 5 -3 7 -14 4 -15 -4 -20 0 -20
16 0 21 24 29 33 11 3 -6 4 -5 3 2 -4 19 -35 22 -42 4z"/>
<path d="M5484 545 c-13 -32 23 -63 40 -36 4 5 -3 7 -14 4 -16 -4 -20 0 -20
17 0 17 4 21 20 17 11 -3 20 -1 20 4 0 15 -40 10 -46 -6z"/>
<path d="M5553 536 c1 -17 9 -31 17 -33 10 -3 11 -2 4 4 -7 4 -14 19 -17 33
-4 22 -5 21 -4 -4z"/>
<path d="M5592 530 c0 -19 2 -27 5 -17 2 9 2 25 0 35 -3 9 -5 1 -5 -18z"/>
<path d="M5620 545 c-10 -12 -10 -18 0 -30 7 -8 18 -15 24 -15 6 0 3 5 -6 11
-24 14 -22 28 5 39 15 6 17 9 6 9 -9 1 -22 -6 -29 -14z"/>
<path d="M5682 530 c0 -19 2 -27 5 -17 2 9 2 25 0 35 -3 9 -5 1 -5 -18z"/>
<path d="M5710 550 c0 -5 7 -7 15 -4 8 4 15 8 15 10 0 2 -7 4 -15 4 -8 0 -15
-4 -15 -10z"/>
<path d="M5810 552 c21 -10 25 -42 5 -42 -10 0 -13 5 -9 12 4 7 3 8 -5 4 -16
-10 -4 -26 20 -26 29 0 23 54 -6 57 -15 2 -16 1 -5 -5z"/>
<path d="M5884 546 c-9 -23 3 -46 23 -45 17 1 17 2 1 6 -21 5 -24 43 -4 43 8
0 17 -5 19 -10 3 -6 4 -5 3 2 -4 19 -35 22 -42 4z"/>
<path d="M5941 528 c2 -28 2 -29 6 -8 3 14 10 28 17 32 7 5 5 8 -6 8 -14 0
-18 -8 -17 -32z"/>
<path d="M5985 550 c-9 -15 4 -50 19 -50 20 0 37 25 30 44 -7 18 -39 22 -49 6z
m40 -20 c0 -22 -29 -18 -33 3 -3 14 1 18 15 15 10 -2 18 -10 18 -18z"/>
<path d="M6050 545 c0 -8 5 -15 11 -15 5 0 8 4 5 9 -4 5 0 12 6 14 8 3 6 6 -4
6 -10 1 -18 -6 -18 -14z"/>
<path d="M6134 546 c-9 -24 4 -48 23 -44 12 2 18 12 18 28 0 29 -32 41 -41 16z
m36 -16 c0 -11 -7 -20 -15 -20 -8 0 -15 9 -15 20 0 11 7 20 15 20 8 0 15 -9
15 -20z"/>
<path d="M6201 533 c2 -23 2 -24 6 -5 6 30 31 28 36 -3 4 -23 4 -23 3 2 -1 21
-7 29 -23 31 -20 3 -23 -1 -22 -25z"/>
<path d="M1696 524 c18 -15 18 -15 -5 -10 -17 3 -21 2 -13 -6 6 -6 18 -8 27
-4 14 5 15 9 5 21 -7 8 -17 15 -23 15 -6 0 -2 -7 9 -16z"/>
<path d="M1032 518 c2 -6 10 -13 16 -14 7 -1 8 0 2 3 -5 2 -8 9 -4 14 3 5 0 9
-6 9 -7 0 -10 -5 -8 -12z"/>
<path d="M1400 518 c0 -11 8 -18 20 -18 11 0 20 5 20 11 0 5 -5 7 -11 3 -6 -3
-15 0 -20 7 -7 11 -9 10 -9 -3z"/>
<path d="M2520 518 c0 -20 25 -24 36 -6 5 7 3 8 -6 3 -7 -4 -16 -2 -21 6 -7
11 -9 10 -9 -3z"/>
<path d="M2700 519 c0 -6 -7 -8 -16 -5 -8 3 -12 2 -9 -4 10 -15 35 -12 35 5 0
8 -2 15 -5 15 -3 0 -5 -5 -5 -11z"/>
<path d="M2830 521 c0 -10 19 -25 25 -20 1 2 -3 10 -11 17 -8 7 -14 8 -14 3z"/>
<path d="M3150 519 c0 -6 -7 -8 -16 -5 -8 3 -12 2 -9 -4 10 -15 35 -12 35 5 0
8 -2 15 -5 15 -3 0 -5 -5 -5 -11z"/>
<path d="M4380 518 c0 -20 25 -24 36 -6 5 7 3 8 -6 3 -7 -4 -16 -2 -21 6 -7
11 -9 10 -9 -3z"/>
<path d="M5020 518 c0 -20 25 -24 36 -6 5 7 3 8 -6 3 -7 -4 -16 -2 -21 6 -7
11 -9 10 -9 -3z"/>
<path d="M6080 521 c0 -8 -7 -11 -15 -7 -8 3 -15 1 -15 -4 0 -6 6 -10 14 -10
17 0 31 18 22 27 -3 4 -6 1 -6 -6z"/>
<path d="M1888 508 c5 -5 16 -8 23 -6 8 3 3 7 -10 11 -17 4 -21 3 -13 -5z"/>
<path d="M1948 508 c5 -5 16 -8 23 -6 8 3 3 7 -10 11 -17 4 -21 3 -13 -5z"/>
<path d="M3270 508 c0 -4 6 -8 14 -8 8 0 17 4 20 8 2 4 -4 8 -15 8 -10 0 -19
-4 -19 -8z"/>
<path d="M3670 508 c0 -4 6 -8 14 -8 8 0 17 4 20 8 2 4 -4 8 -15 8 -10 0 -19
-4 -19 -8z"/>
<path d="M1108 483 c6 -2 18 -2 25 0 6 3 1 5 -13 5 -14 0 -19 -2 -12 -5z"/>
<path d="M1745 300 c-3 -5 -1 -10 4 -10 6 0 11 5 11 10 0 6 -2 10 -4 10 -3 0
-8 -4 -11 -10z"/>
<path d="M332 280 c0 -14 2 -19 5 -12 2 6 2 18 0 25 -3 6 -5 1 -5 -13z"/>
<path d="M441 263 c-1 -41 0 -43 27 -42 23 2 24 2 5 6 -13 2 -23 11 -23 18 0
7 10 16 23 18 22 4 22 4 0 6 -12 0 -24 9 -26 19 -3 9 -5 -2 -6 -25z"/>
<path d="M3050 290 c0 -5 -9 -10 -19 -10 -23 0 -35 -28 -21 -46 6 -7 20 -12
31 -11 15 1 19 9 19 39 0 21 -2 38 -5 38 -3 0 -5 -4 -5 -10z m0 -34 c0 -8 -5
-18 -11 -22 -14 -8 -33 11 -25 25 10 16 36 13 36 -3z"/>
<path d="M3180 291 c0 -5 -10 -11 -22 -13 -25 -3 -33 -25 -19 -47 5 -8 16 -11
30 -6 16 5 21 14 21 41 0 19 -2 34 -5 34 -3 0 -5 -4 -5 -9z m-5 -41 c0 -22
-29 -18 -33 3 -3 14 1 18 15 15 10 -2 18 -10 18 -18z"/>
<path d="M3663 260 c0 -25 2 -35 4 -22 2 12 2 32 0 45 -2 12 -4 2 -4 -23z"/>
<path d="M4462 294 c-1 -7 -11 -14 -22 -17 -24 -6 -27 -45 -4 -54 23 -9 36 10
31 48 -2 19 -5 29 -5 23z m-2 -44 c0 -11 -7 -20 -15 -20 -8 0 -15 9 -15 20 0
11 7 20 15 20 8 0 15 -9 15 -20z"/>
<path d="M5440 290 c0 -5 -9 -10 -19 -10 -23 0 -35 -28 -21 -46 6 -7 20 -12
31 -11 15 1 19 9 19 39 0 21 -2 38 -5 38 -3 0 -5 -4 -5 -10z m0 -34 c0 -8 -5
-18 -11 -22 -14 -8 -33 11 -25 25 10 16 36 13 36 -3z"/>
<path d="M5533 260 c0 -25 2 -35 4 -22 2 12 2 32 0 45 -2 12 -4 2 -4 -23z"/>
<path d="M5763 260 c0 -25 2 -35 4 -22 2 12 2 32 0 45 -2 12 -4 2 -4 -23z"/>
<path d="M5963 260 c0 -25 2 -35 4 -22 2 12 2 32 0 45 -2 12 -4 2 -4 -23z"/>
<path d="M6992 265 c2 -32 7 -40 23 -40 27 0 34 42 8 52 -10 4 -22 11 -26 17
-4 6 -6 -7 -5 -29z m38 -15 c0 -11 -7 -20 -15 -20 -8 0 -15 9 -15 20 0 11 7
20 15 20 8 0 15 -9 15 -20z"/>
<path d="M4088 285 c-6 -7 3 -65 11 -65 7 0 7 58 -1 65 -2 3 -7 3 -10 0z"/>
<path d="M6787 284 c-9 -9 9 -58 21 -60 7 -1 8 0 2 3 -14 7 -13 40 2 45 8 3 6
6 -4 10 -9 4 -18 4 -21 2z"/>
<path d="M359 268 c16 -21 5 -42 -18 -33 -13 5 -14 4 -3 -6 10 -11 15 -10 29
4 16 16 16 18 -2 35 -17 15 -18 15 -6 0z"/>
<path d="M503 265 c-3 -9 -3 -19 1 -22 3 -4 6 2 6 11 0 13 6 17 20 13 11 -3
20 -1 20 4 0 15 -40 10 -47 -6z"/>
<path d="M573 256 c1 -17 9 -31 17 -33 10 -3 11 -2 4 4 -7 4 -14 19 -17 33 -4
22 -5 21 -4 -4z"/>
<path d="M612 250 c0 -19 2 -27 5 -17 2 9 2 25 0 35 -3 9 -5 1 -5 -18z"/>
<path d="M639 263 c-12 -16 -12 -17 1 -7 8 6 22 14 30 17 13 5 12 6 -1 6 -9 1
-23 -7 -30 -16z"/>
<path d="M714 271 c18 -7 18 -8 3 -14 -23 -9 -22 -39 1 -35 10 2 18 14 20 31
3 23 0 27 -20 26 -21 0 -21 -1 -4 -8z m16 -31 c0 -5 -4 -10 -10 -10 -5 0 -10
5 -10 10 0 6 5 10 10 10 6 0 10 -4 10 -10z"/>
<path d="M756 263 c-9 -22 20 -51 35 -36 8 8 6 11 -6 10 -27 -3 -30 22 -3 32
22 9 22 10 2 10 -12 1 -25 -7 -28 -16z"/>
<path d="M822 250 c0 -19 2 -27 5 -17 2 9 2 25 0 35 -3 9 -5 1 -5 -18z"/>
<path d="M843 264 c-3 -8 2 -23 11 -32 14 -15 18 -15 31 -1 9 9 13 23 9 32 -8
21 -43 22 -51 1z m42 -14 c0 -22 -29 -18 -33 3 -3 14 1 18 15 15 10 -2 18 -10
18 -18z"/>
<path d="M911 248 c2 -31 2 -31 6 -5 2 15 10 27 18 27 8 0 16 -12 18 -27 4
-26 4 -26 6 5 1 28 -2 32 -24 32 -22 0 -25 -4 -24 -32z"/>
<path d="M1035 269 c-4 -6 -5 -12 -2 -15 2 -3 7 2 10 11 7 17 1 20 -8 4z"/>
<path d="M1084 265 c-13 -32 23 -63 40 -36 4 5 -3 7 -14 4 -16 -4 -20 0 -20
17 0 17 4 21 20 17 11 -3 18 -1 14 4 -8 14 -34 11 -40 -6z"/>
<path d="M1144 266 c-9 -24 4 -48 23 -44 12 2 18 12 18 28 0 29 -32 41 -41 16z
m36 -16 c0 -11 -7 -20 -15 -20 -8 0 -15 9 -15 20 0 11 7 20 15 20 8 0 15 -9
15 -20z"/>
<path d="M1211 253 c2 -23 2 -24 6 -5 6 30 31 28 36 -3 4 -23 4 -23 3 2 -1 21
-7 29 -23 31 -20 3 -23 -1 -22 -25z"/>
<path d="M1275 270 c-9 -15 4 -50 20 -50 8 0 16 4 19 9 3 5 -2 8 -11 7 -10 0
-19 8 -21 18 -3 15 0 18 17 13 12 -3 19 -1 15 4 -7 12 -31 11 -39 -1z"/>
<path d="M1332 255 c0 -16 2 -22 5 -12 2 9 2 23 0 30 -3 6 -5 -1 -5 -18z"/>
<path d="M1364 266 c-12 -33 23 -65 40 -37 4 5 -3 7 -14 4 -11 -3 -20 0 -20 6
0 6 9 11 21 11 12 0 19 5 17 13 -7 18 -37 21 -44 3z m33 -2 c-3 -3 -12 -4 -19
-1 -8 3 -5 6 6 6 11 1 17 -2 13 -5z"/>
<path d="M1430 272 c0 -4 9 -8 20 -8 11 0 20 4 20 8 0 4 -9 8 -20 8 -11 0 -20
-4 -20 -8z"/>
<path d="M1494 265 c-13 -32 23 -63 40 -36 4 5 -3 7 -14 4 -16 -4 -20 0 -20
17 0 17 4 21 20 17 11 -3 18 -1 14 4 -8 14 -34 11 -40 -6z"/>
<path d="M1552 250 c0 -19 2 -27 5 -17 2 9 2 25 0 35 -3 9 -5 1 -5 -18z"/>
<path d="M1593 273 c18 -5 17 -6 -2 -20 -24 -16 -19 -33 10 -33 14 0 19 7 19
30 0 25 -4 30 -22 29 -19 -1 -20 -2 -5 -6z m17 -33 c0 -5 -7 -10 -16 -10 -8 0
-12 5 -9 10 3 6 10 10 16 10 5 0 9 -4 9 -10z"/>
<path d="M1636 263 c-9 -22 20 -51 35 -36 8 8 6 11 -6 10 -27 -3 -30 22 -3 32
22 9 22 10 2 10 -12 1 -25 -7 -28 -16z"/>
<path d="M1702 255 c0 -16 2 -22 5 -12 2 9 2 23 0 30 -3 6 -5 -1 -5 -18z"/>
<path d="M1723 264 c-3 -8 2 -23 11 -32 14 -15 18 -15 31 -1 9 9 13 23 9 32
-8 21 -43 22 -51 1z m42 -14 c0 -22 -29 -18 -33 3 -3 14 1 18 15 15 10 -2 18
-10 18 -18z"/>
<path d="M1791 248 c2 -30 2 -31 6 -5 5 34 30 36 36 2 4 -23 4 -23 3 2 -1 21
-7 29 -23 31 -20 3 -23 -1 -22 -30z"/>
<path d="M1931 253 c0 -28 0 -28 10 -4 6 15 15 21 24 17 8 -3 15 -1 15 4 0 6
-11 10 -25 10 -21 0 -25 -5 -24 -27z"/>
<path d="M1998 273 c6 -2 18 -2 25 0 6 3 1 5 -13 5 -14 0 -19 -2 -12 -5z"/>
<path d="M2036 264 c-4 -10 -1 -24 7 -31 19 -19 49 -5 45 21 -4 27 -43 34 -52
10z m44 -8 c0 -8 -5 -18 -11 -22 -14 -8 -33 11 -25 25 10 16 36 13 36 -3z"/>
<path d="M2101 248 c1 -22 3 -26 6 -13 3 11 10 26 15 33 8 9 6 12 -6 12 -12 0
-16 -9 -15 -32z"/>
<path d="M2150 270 c0 -5 7 -7 15 -4 11 4 15 -1 16 -17 l0 -24 9 23 c13 30 28
28 33 -5 4 -27 4 -27 6 3 1 30 -1 32 -39 32 -22 0 -40 -3 -40 -8z"/>
<path d="M2264 271 c18 -7 18 -8 3 -14 -23 -9 -22 -39 1 -35 10 2 18 14 20 31
3 23 0 27 -20 26 -21 0 -21 -1 -4 -8z m16 -31 c0 -5 -4 -10 -10 -10 -5 0 -10
5 -10 10 0 6 5 10 10 10 6 0 10 -4 10 -10z"/>
<path d="M2311 248 c2 -28 2 -29 6 -8 3 14 10 28 17 32 7 5 5 8 -6 8 -14 0
-18 -8 -17 -32z"/>
<path d="M2395 271 c14 -7 15 -10 5 -10 -10 -1 -11 -4 -4 -9 6 -4 14 -14 17
-22 4 -8 5 -2 4 15 -1 21 -8 31 -22 32 l-20 3 20 -9z"/>
<path d="M2498 273 c7 -3 16 -2 19 1 4 3 -2 6 -13 5 -11 0 -14 -3 -6 -6z"/>
<path d="M2547 273 c-12 -11 -8 -23 8 -23 8 0 15 -5 15 -11 0 -6 -7 -8 -16 -5
-8 3 -12 2 -9 -4 10 -16 35 -12 35 5 0 9 -8 19 -17 22 -15 6 -15 7 3 14 14 6
15 8 3 8 -9 1 -19 -2 -22 -6z"/>
<path d="M2616 263 c-9 -22 20 -51 35 -36 8 8 6 11 -6 10 -27 -3 -30 22 -3 32
22 9 22 10 2 10 -12 1 -25 -7 -28 -16z"/>
<path d="M2676 264 c-9 -22 17 -49 39 -40 10 3 15 15 13 28 -4 29 -42 37 -52
12z m44 -14 c0 -21 -24 -28 -35 -10 -8 14 3 30 21 30 8 0 14 -9 14 -20z"/>
<path d="M2741 252 c0 -26 1 -26 9 -4 13 31 30 28 31 -5 1 -28 1 -28 8 -4 9
35 29 37 34 4 4 -28 4 -28 6 3 1 31 0 31 -44 32 -43 1 -45 0 -44 -26z"/>
<path d="M2851 253 c0 -18 3 -33 8 -33 26 0 41 14 40 39 l-1 26 -7 -24 c-9
-35 -29 -37 -34 -4 -4 27 -4 27 -6 -4z"/>
<path d="M2911 253 c0 -28 0 -28 10 -4 6 15 15 21 24 17 8 -3 15 -1 15 4 0 6
-11 10 -25 10 -21 0 -25 -5 -24 -27z"/>
<path d="M2982 250 c0 -19 2 -27 5 -17 2 9 2 25 0 35 -3 9 -5 1 -5 -18z"/>
<path d="M3095 271 c19 -8 19 -8 -3 -15 -23 -8 -26 -28 -4 -32 7 -1 8 0 2 3
-11 5 -4 23 10 23 5 0 11 -8 14 -17 2 -10 4 -5 3 12 -2 22 -8 31 -22 32 l-20
3 20 -9z"/>
<path d="M3207 274 c-16 -17 -6 -31 18 -26 14 2 24 10 22 16 -4 13 -30 20 -40
10z m30 -10 c-3 -3 -12 -4 -19 -1 -8 3 -5 6 6 6 11 1 17 -2 13 -5z"/>
<path d="M3270 269 c0 -7 8 -18 18 -26 16 -14 16 -14 0 -9 -10 3 -18 1 -18 -4
0 -14 27 -12 36 1 4 7 -1 16 -11 21 -14 8 -15 12 -4 19 11 7 10 9 -3 9 -10 0
-18 -5 -18 -11z"/>
<path d="M3345 270 c-3 -6 1 -13 9 -16 9 -3 16 -11 16 -16 0 -6 -7 -7 -16 -4
-8 3 -12 2 -9 -4 10 -16 35 -12 35 5 0 9 -8 19 -17 22 -15 6 -15 7 3 14 16 6
16 8 2 8 -9 1 -20 -4 -23 -9z"/>
<path d="M3400 263 c-12 -15 -12 -16 0 -5 21 19 40 14 40 -9 0 -17 -5 -20 -21
-16 -16 4 -19 3 -11 -5 17 -17 44 -1 40 24 -4 29 -31 34 -48 11z"/>
<path d="M3470 272 c0 -6 9 -8 21 -5 17 5 20 2 17 -13 -2 -11 -11 -18 -22 -17
-13 1 -15 -2 -8 -9 17 -17 44 -1 40 24 -2 15 -11 24 -25 26 -13 2 -23 -1 -23
-6z"/>
<path d="M3531 248 c2 -28 2 -29 6 -8 3 14 10 28 17 32 7 5 5 8 -6 8 -14 0
-18 -8 -17 -32z"/>
<path d="M3574 266 c-12 -33 23 -65 40 -37 4 5 -3 7 -14 4 -11 -3 -20 0 -20 6
0 6 9 11 21 11 12 0 19 5 17 13 -7 18 -37 21 -44 3z m33 -2 c-3 -3 -12 -4 -19
-1 -8 3 -5 6 6 6 11 1 17 -2 13 -5z"/>
<path d="M3705 271 c19 -8 19 -8 -3 -15 -23 -8 -26 -28 -4 -32 7 -1 8 0 2 3
-11 5 -4 23 10 23 5 0 11 -8 14 -17 2 -10 4 -5 3 12 -2 22 -8 31 -22 32 l-20
3 20 -9z"/>
<path d="M3802 250 c0 -19 2 -27 5 -17 2 9 2 25 0 35 -3 9 -5 1 -5 -18z"/>
<path d="M3827 272 c6 -4 13 -18 16 -32 4 -25 4 -25 6 3 1 34 28 36 34 2 4
-23 4 -23 3 2 -1 25 -5 28 -35 30 -19 1 -30 -2 -24 -5z"/>
<path d="M3910 272 c0 -6 9 -8 20 -5 15 4 20 0 20 -16 0 -23 -25 -29 -33 -8
-3 7 -6 4 -6 -6 -1 -14 5 -18 22 -15 16 2 22 10 22 28 0 18 -6 26 -22 28 -13
2 -23 -1 -23 -6z"/>
<path d="M3974 265 c-8 -21 2 -45 19 -45 21 0 38 25 31 44 -8 20 -43 21 -50 1z
m41 -15 c0 -8 -8 -16 -17 -18 -13 -2 -18 3 -18 18 0 15 5 20 18 18 9 -2 17
-10 17 -18z"/>
<path d="M4041 248 c2 -28 2 -29 6 -8 3 14 10 28 17 32 7 5 5 8 -6 8 -14 0
-18 -8 -17 -32z"/>
<path d="M4145 271 c19 -8 19 -8 -3 -15 -23 -8 -26 -28 -4 -32 7 -1 8 0 2 3
-11 5 -4 23 10 23 5 0 11 -8 14 -17 2 -10 4 -5 3 12 -2 22 -8 31 -22 32 l-20
3 20 -9z"/>
<path d="M4190 272 c0 -6 9 -8 19 -5 14 3 21 -1 24 -16 4 -19 5 -19 3 1 -1 16
-8 24 -23 26 -13 2 -23 -1 -23 -6z"/>
<path d="M4254 265 c-13 -32 23 -63 40 -36 4 5 -3 7 -14 4 -16 -4 -20 0 -20
17 0 17 4 21 20 17 11 -3 18 -1 14 4 -8 14 -34 11 -40 -6z"/>
<path d="M4312 250 c0 -19 2 -27 5 -17 2 9 2 25 0 35 -3 9 -5 1 -5 -18z"/>
<path d="M4354 271 c18 -7 18 -8 3 -14 -24 -9 -21 -37 3 -37 16 0 20 7 20 30
0 25 -4 30 -22 29 -21 0 -21 -1 -4 -8z m16 -31 c0 -5 -4 -10 -10 -10 -5 0 -10
5 -10 10 0 6 5 10 10 10 6 0 10 -4 10 -10z"/>
<path d="M4494 266 c-9 -23 3 -46 23 -45 17 1 17 2 1 6 -25 6 -22 23 3 23 12
0 19 5 17 13 -7 18 -37 21 -44 3z m33 -2 c-3 -3 -12 -4 -19 -1 -8 3 -5 6 6 6
11 1 17 -2 13 -5z"/>
<path d="M4625 271 c14 -7 15 -10 5 -10 -12 -1 -13 -3 -1 -10 10 -7 10 -10 1
-16 -7 -4 -16 -1 -21 6 -6 9 -9 10 -9 2 0 -17 15 -24 35 -17 23 9 15 48 -10
51 l-20 3 20 -9z"/>
<path d="M4683 264 c-8 -21 23 -52 38 -37 8 8 6 11 -7 10 -11 -1 -20 6 -22 17
-3 15 0 18 17 13 12 -3 19 -1 15 4 -9 15 -34 10 -41 -7z"/>
<path d="M4743 264 c-3 -8 2 -23 11 -32 14 -15 18 -15 31 -1 9 9 13 23 9 32
-8 21 -43 22 -51 1z m42 -14 c0 -22 -29 -18 -33 3 -3 14 1 18 15 15 10 -2 18
-10 18 -18z"/>
<path d="M4812 250 c0 -19 2 -27 5 -17 2 9 2 25 0 35 -3 9 -5 1 -5 -18z"/>
<path d="M4836 272 c7 -4 14 -18 17 -32 4 -21 4 -20 6 8 1 24 -3 32 -16 32
-12 0 -14 -3 -7 -8z"/>
<path d="M4880 265 c0 -8 5 -15 11 -15 5 0 8 4 5 9 -4 5 0 12 6 14 8 3 6 6 -4
6 -10 1 -18 -6 -18 -14z"/>
<path d="M4934 266 c-12 -33 23 -65 40 -37 4 5 -3 7 -14 4 -11 -3 -20 0 -20 6
0 6 9 11 21 11 12 0 19 5 17 13 -7 18 -37 21 -44 3z m33 -2 c-3 -3 -12 -4 -19
-1 -8 3 -5 6 6 6 11 1 17 -2 13 -5z"/>
<path d="M5001 253 c2 -23 2 -24 6 -5 4 23 27 30 36 12 3 -6 4 -5 3 2 -1 7
-12 14 -24 16 -18 3 -22 -1 -21 -25z"/>
<path d="M5115 271 c19 -8 19 -8 -3 -15 -23 -8 -26 -28 -4 -32 7 -1 8 0 2 3
-11 5 -4 23 10 23 5 0 11 -8 14 -17 2 -10 4 -5 3 12 -2 22 -8 31 -22 32 l-20
3 20 -9z"/>
<path d="M5153 264 c-8 -21 23 -52 38 -37 8 8 6 11 -7 10 -11 -1 -20 6 -22 17
-3 15 0 18 17 13 12 -3 19 -1 15 4 -9 15 -34 10 -41 -7z"/>
<path d="M5244 265 c-4 -8 -3 -22 0 -31 7 -18 38 -15 42 4 1 7 0 8 -3 2 -9
-18 -33 -10 -33 11 0 16 5 20 20 16 11 -3 18 -1 14 4 -8 14 -34 11 -40 -6z"/>
<path d="M5311 248 c2 -30 2 -31 6 -5 5 34 30 36 36 2 4 -23 4 -23 3 2 -1 21
-7 29 -23 31 -20 3 -23 -1 -22 -30z"/>
<path d="M5463 264 c-3 -8 2 -23 11 -32 13 -13 18 -14 28 -3 11 10 10 11 -3 6
-10 -4 -20 -2 -24 4 -4 7 4 11 19 11 18 0 24 4 20 15 -8 20 -43 19 -51 -1z
m34 0 c-3 -3 -12 -4 -19 -1 -8 3 -5 6 6 6 11 1 17 -2 13 -5z"/>
<path d="M5580 265 c0 -8 5 -15 11 -15 5 0 8 4 5 9 -4 5 0 12 6 14 8 3 6 6 -4
6 -10 1 -18 -6 -18 -14z"/>
<path d="M5633 256 c1 -17 9 -31 17 -33 10 -3 11 -2 4 4 -7 4 -14 19 -17 33
-4 22 -5 21 -4 -4z"/>
<path d="M5672 250 c0 -19 2 -27 5 -17 2 9 2 25 0 35 -3 9 -5 1 -5 -18z"/>
<path d="M5704 266 c-9 -23 3 -46 23 -45 17 1 17 2 1 6 -25 6 -22 23 3 23 12
0 19 5 17 13 -7 18 -37 21 -44 3z m33 -2 c-3 -3 -12 -4 -19 -1 -8 3 -5 6 6 6
11 1 17 -2 13 -5z"/>
<path d="M5796 271 c-3 -5 3 -7 14 -4 15 4 20 0 20 -16 0 -21 -24 -29 -33 -11
-3 6 -4 5 -3 -2 2 -7 11 -13 22 -13 14 0 19 7 19 25 0 25 -27 40 -39 21z"/>
<path d="M5883 248 l12 -37 13 25 c7 14 11 31 8 37 -2 7 -5 4 -5 -5 -1 -10 -4
-18 -7 -18 -4 0 -13 8 -20 18 -10 14 -10 11 -1 -20z"/>
<path d="M6005 271 c19 -8 19 -8 -3 -15 -23 -8 -26 -28 -4 -32 7 -1 8 0 2 3
-11 5 -4 23 10 23 5 0 11 -8 14 -17 2 -10 4 -5 3 12 -2 22 -8 31 -22 32 l-20
3 20 -9z"/>
<path d="M6046 273 c-4 -4 3 -16 16 -26 l23 -19 -24 6 c-17 3 -21 2 -13 -6 6
-6 19 -7 29 -4 17 7 16 9 -5 26 -20 17 -21 19 -5 23 14 4 15 5 2 6 -9 0 -19
-2 -23 -6z"/>
<path d="M6122 240 c0 -25 2 -37 5 -28 2 9 10 15 17 12 18 -7 38 20 30 40 -3
9 -13 16 -22 16 -13 0 -12 -3 4 -14 15 -12 17 -17 7 -27 -15 -15 -29 -5 -36
26 -3 11 -5 0 -5 -25z"/>
<path d="M6191 248 c2 -28 2 -29 6 -8 3 14 10 28 17 32 7 5 5 8 -6 8 -14 0
-18 -8 -17 -32z"/>
<path d="M6239 278 c0 -2 -3 -15 -5 -30 -4 -23 -1 -28 16 -28 11 0 20 4 20 10
0 5 -7 7 -15 4 -8 -4 -15 -1 -15 5 0 6 7 11 15 11 8 0 15 7 15 15 0 12 -27 23
-31 13z"/>
<path d="M6294 265 c-13 -32 23 -63 40 -36 4 5 -3 7 -14 4 -16 -4 -20 0 -20
17 0 17 4 21 20 17 11 -3 18 -1 14 4 -8 14 -34 11 -40 -6z"/>
<path d="M6358 273 c7 -3 16 -2 19 1 4 3 -2 6 -13 5 -11 0 -14 -3 -6 -6z"/>
<path d="M6392 250 c0 -19 2 -27 5 -17 2 9 2 25 0 35 -3 9 -5 1 -5 -18z"/>
<path d="M6427 273 c-3 -5 5 -8 18 -8 13 0 21 3 18 8 -2 4 -10 7 -18 7 -8 0
-16 -3 -18 -7z"/>
<path d="M6494 271 c18 -7 18 -8 3 -14 -24 -9 -21 -37 3 -37 16 0 20 7 20 30
0 25 -4 30 -22 29 -21 0 -21 -1 -4 -8z m16 -31 c0 -5 -4 -10 -10 -10 -5 0 -10
5 -10 10 0 6 5 10 10 10 6 0 10 -4 10 -10z"/>
<path d="M6540 265 c0 -8 5 -15 11 -15 5 0 8 4 5 9 -4 5 0 12 6 14 8 3 6 6 -4
6 -10 1 -18 -6 -18 -14z"/>
<path d="M6616 273 c-4 -4 3 -16 16 -26 l23 -19 -24 6 c-17 3 -21 2 -13 -6 6
-6 19 -7 29 -4 17 7 16 9 -5 26 -20 17 -21 19 -5 23 14 4 15 5 2 6 -9 0 -19
-2 -23 -6z"/>
<path d="M6676 271 c-3 -5 3 -7 14 -4 15 4 20 0 20 -16 0 -21 -24 -29 -33 -11
-3 6 -4 5 -3 -2 2 -7 11 -13 22 -13 14 0 19 7 19 25 0 25 -27 40 -39 21z"/>
<path d="M6736 273 c-4 -4 3 -16 16 -26 l23 -19 -24 6 c-17 3 -21 2 -13 -6 6
-6 19 -7 29 -4 17 7 16 9 -5 26 -20 17 -21 19 -5 23 14 4 15 5 2 6 -9 0 -19
-2 -23 -6z"/>
<path d="M6834 266 c-9 -23 3 -46 23 -45 17 1 17 2 1 6 -25 6 -22 23 3 23 12
0 19 5 17 13 -7 18 -37 21 -44 3z m33 -2 c-3 -3 -12 -4 -19 -1 -8 3 -5 6 6 6
11 1 17 -2 13 -5z"/>
<path d="M6891 253 c0 -28 0 -28 10 -4 6 15 15 21 24 17 8 -3 15 -1 15 4 0 6
-11 10 -25 10 -21 0 -25 -5 -24 -27z"/>
<path d="M6962 250 c0 -19 2 -27 5 -17 2 9 2 25 0 35 -3 9 -5 1 -5 -18z"/>
<path d="M7084 266 c-12 -33 23 -65 40 -37 4 5 -3 7 -14 4 -11 -3 -20 0 -20 6
0 6 9 11 21 11 12 0 19 5 17 13 -7 18 -37 21 -44 3z m33 -2 c-3 -3 -12 -4 -19
-1 -8 3 -5 6 6 6 11 1 17 -2 13 -5z"/>
<path d="M7158 273 c7 -3 16 -2 19 1 4 3 -2 6 -13 5 -11 0 -14 -3 -6 -6z"/>
<path d="M5062 250 c-7 -11 -8 -20 -3 -20 9 0 24 30 18 36 -1 2 -8 -6 -15 -16z"/>
<path d="M7166 244 c18 -15 18 -15 -5 -10 -17 3 -21 2 -13 -6 6 -6 18 -8 27
-4 14 5 15 9 5 21 -7 8 -17 15 -23 15 -6 0 -2 -7 9 -16z"/>
<path d="M1013 224 c0 -23 1 -24 9 -10 7 12 7 21 0 28 -6 6 -9 0 -9 -18z"/>
<path d="M2370 241 c0 -10 19 -25 25 -20 1 2 -3 10 -11 17 -8 7 -14 8 -14 3z"/>
<path d="M2480 243 c0 -19 21 -27 33 -13 9 10 9 11 -2 5 -8 -4 -17 -2 -22 6
-6 9 -9 10 -9 2z"/>
<path d="M4910 241 c0 -8 -7 -11 -15 -7 -8 3 -15 1 -15 -4 0 -6 6 -10 14 -10
17 0 31 18 22 27 -3 4 -6 1 -6 -6z"/>
<path d="M5610 241 c0 -8 -7 -11 -15 -7 -8 3 -15 1 -15 -4 0 -6 6 -10 14 -10
17 0 31 18 22 27 -3 4 -6 1 -6 -6z"/>
<path d="M6420 241 c0 -10 19 -25 25 -20 1 2 -3 10 -11 17 -8 7 -14 8 -14 3z"/>
<path d="M6570 241 c0 -8 -7 -11 -15 -7 -8 3 -15 1 -15 -4 0 -6 6 -10 14 -10
17 0 31 18 22 27 -3 4 -6 1 -6 -6z"/>
<path d="M525 230 c-16 -7 -17 -9 -3 -9 9 -1 20 4 23 9 7 11 7 11 -20 0z"/>
<path d="M650 226 c7 -7 13 -7 20 0 6 6 3 10 -10 10 -13 0 -16 -4 -10 -10z"/>
<path d="M3225 230 c-16 -7 -17 -9 -3 -9 9 -1 20 4 23 9 7 11 7 11 -20 0z"/>
<path d="M6360 230 c0 -5 5 -10 11 -10 5 0 7 5 4 10 -3 6 -8 10 -11 10 -2 0
-4 -4 -4 -10z"/>
</g>
</svg>
