<?xml version="1.0" encoding="UTF-8"?>
<svg id="uuid-d4084f4f-61f5-4ae9-811e-b657c9c9f2c5" data-name="Capa 2" xmlns="http://www.w3.org/2000/svg" viewBox="0 0 195.6228393 202.0652122">
  <defs>
    <style>
      .uuid-b193212e-7b5f-4f16-b713-739f9240d7c3 {
        fill: #8bc53f;
        fill-rule: evenodd;
        stroke-width: 0px;
      }
    </style>
  </defs>
  <g id="uuid-1feb666e-ddb2-4740-ba1d-7a3e830c59e1" data-name="Capa 1">
    <g id="uuid-f7bf74a4-5cfb-4364-858e-c85543075bca" data-name="Layer_1">
      <g id="uuid-6ba03678-2d72-48f2-b337-1fd02362f8bf" data-name=" 2324834276400">
        <path class="uuid-b193212e-7b5f-4f16-b713-739f9240d7c3" d="M96.9077659,196.2334631c11.6017904,5.8499953,25.3934528,7.2348933,38.0140005,4.4419695,25.56574-5.6588563,56.5813495-26.4331999,54.1273112-50.5650162-2.4484236-24.0763207-33.7757007-34.5789456-54.5052946-32.3573008-24.4470348,2.6203391-55.7400292,25.1177969-58.1647115,47.8440972-1.236445,11.5867499,8.4116039,18.9117933,17.8975537,23.9805746,14.1853927,7.5794306,31.0285491,6.9547011,49.9661846-2.6433739-12.8001229,9.2938068-32.2321616,14.5708127-47.3350439,9.2990496ZM93.6879259,87.626997c1.7109182-21.3266779-5.7783623-42.6177438-16.9207387-57.4495158C59.5565144,7.2681105,26.8261383-.8168039,3.3853209.0642556c-12.5572996,44.6773266,9.436357,103.408409,72.3997528,103.0939527,3.3008988-11.9818932-1.2532517-31.2409754-22.9062287-52.2308686,22.665878,12.0769329,37.2076137,41.5682454,24.5070481,66.2300677-20.3726003,39.5579115-16.0717029,66.463149,15.9871303,80.712515-25.8148101-14.4526824-28.2468174-41.3397376-7.2988108-80.6593992,4.7085342-8.8378694,8.1851968-15.1283898,14.1700361-23.1323011,10.1148066-13.5275518,26.2472851-18.9009359,42.546492-20.3851124-19.2119713,4.4524365-30.9740575,14.1172363-35.9023988,23.2168366,39.5976972,23.7430312,78.0481514-1.2004705,88.7344973-34.936655-14.575349-10.3684874-38.823864-18.9076009-59.38052-11.5032742-12.0308074,4.3333116-24.3652695,13.2819676-32.4086505,25.5328982,2.6629507-12.9884546,1.5285358-26.9289789-6.1458787-44.8324911,4.4227831,31.2738544,2.4767571,43.3133813-4.0000128,56.4566099l.0001487-.0000372Z"/>
      </g>
    </g>
  </g>
</svg>