<?xml version="1.0" encoding="UTF-8"?>
<svg id="uuid-104f84e0-e810-4427-b873-46d2b7f3ece5" data-name="Capa 2" xmlns="http://www.w3.org/2000/svg" viewBox="0 0 414 320">
  <defs>
    <style>
      .uuid-2a10a476-c90c-4bbe-8e5f-222f6c522e8e {
        fill: #000;
      }

      .uuid-2a10a476-c90c-4bbe-8e5f-222f6c522e8e, .uuid-856d2d64-5074-4502-8503-08d9cd05da6b, .uuid-14d1df6f-8f9c-4b46-baa6-af8b46538698 {
        stroke-width: 0px;
      }

      .uuid-856d2d64-5074-4502-8503-08d9cd05da6b {
        fill: #666;
      }

      .uuid-20ceded0-b2db-499d-8214-e4d099ed22fc {
        opacity: .15;
      }

      .uuid-14d1df6f-8f9c-4b46-baa6-af8b46538698 {
        fill: #fff;
      }
    </style>
  </defs>
  <g id="uuid-188538a6-d1f8-4529-b4f4-92f301858a44" data-name="Capa 1">
    <g class="uuid-20ceded0-b2db-499d-8214-e4d099ed22fc">
      <rect class="uuid-856d2d64-5074-4502-8503-08d9cd05da6b" x=".3920898" y=".3920898" width="413.2158203" height="319.2158203" rx="58.5229492" ry="58.5229492"/>
      <path class="uuid-2a10a476-c90c-4bbe-8e5f-222f6c522e8e" d="M355.085083.7844849c32.0532227,0,58.1304932,26.0772095,58.1304932,58.1304321v202.1701965c0,32.0531921-26.0772705,58.1304016-58.1304932,58.1304016H58.914917c-32.0532227,0-58.1304932-26.0772095-58.1304932-58.1304016V58.914917C.7844238,26.8616943,26.8616943.7844849,58.914917.7844849h296.170166M355.085083,0H58.914917C26.3770752,0,0,26.3770752,0,58.914917v202.1701965c0,32.5377808,26.3770752,58.9148865,58.914917,58.9148865h296.170166c32.5378418,0,58.914917-26.3771057,58.914917-58.9148865V58.914917c0-32.5378418-26.3770752-58.914917-58.914917-58.914917h0Z"/>
    </g>
    <g>
      <g>
        <rect class="uuid-856d2d64-5074-4502-8503-08d9cd05da6b" x="184.3193359" y="111.3193359" width="45.3613281" height="45.3613281" rx="7.0209961" ry="7.0209961"/>
        <path class="uuid-2a10a476-c90c-4bbe-8e5f-222f6c522e8e" d="M222.6595459,111.638916c3.6953125,0,6.7015381,3.0062866,6.7015381,6.7015381v31.3190918c0,3.6952515-3.0062256,6.7015381-6.7015381,6.7015381h-31.3190918c-3.6953125,0-6.7015381-3.0062866-6.7015381-6.7015381v-31.3190918c0-3.6952515,3.0062256-6.7015381,6.7015381-6.7015381h31.3190918M222.6595459,111h-31.3190918c-4.0540771,0-7.3404541,3.286438-7.3404541,7.3404541v31.3190918c0,4.0540161,3.286377,7.3404541,7.3404541,7.3404541h31.3190918c4.0540771,0,7.3404541-3.286438,7.3404541-7.3404541v-31.3190918c0-4.0540161-3.286377-7.3404541-7.3404541-7.3404541h0Z"/>
      </g>
      <path class="uuid-14d1df6f-8f9c-4b46-baa6-af8b46538698" d="M203.2949219,138.6381836l-2.0512695-8.0834961h1.1035156l.9594727,4.0898438c.2397461,1.0073242.4560547,2.0146484.5996094,2.7944336h.0239258c.1323242-.8037109.3837891-1.7631836.659668-2.8066406l1.0795898-4.0776367h1.0913086l.9833984,4.1015625c.2280273.9594727.4438477,1.9189453.5639648,2.7705078h.0239258c.1679688-.887207.3955078-1.7871094.6474609-2.7944336l1.0673828-4.0776367h1.0673828l-2.2905273,8.0834961h-1.0913086l-1.0195312-4.2094727c-.2519531-1.0317383-.4199219-1.8232422-.527832-2.6386719h-.0239258c-.144043.8037109-.3237305,1.5952148-.6235352,2.6386719l-1.1513672,4.2094727h-1.0913086Z"/>
    </g>
    <g>
      <g>
        <rect class="uuid-856d2d64-5074-4502-8503-08d9cd05da6b" x="184.3193359" y="173.3193359" width="45.3613281" height="45.3613281" rx="7.0209961" ry="7.0209961"/>
        <path class="uuid-2a10a476-c90c-4bbe-8e5f-222f6c522e8e" d="M222.6595459,173.638916c3.6953125,0,6.7015381,3.0062866,6.7015381,6.7015381v31.3190918c0,3.6952515-3.0062256,6.7015381-6.7015381,6.7015381h-31.3190918c-3.6953125,0-6.7015381-3.0062866-6.7015381-6.7015381v-31.3190918c0-3.6952515,3.0062256-6.7015381,6.7015381-6.7015381h31.3190918M222.6595459,173h-31.3190918c-4.0540771,0-7.3404541,3.286438-7.3404541,7.3404541v31.3190918c0,4.0540161,3.286377,7.3404541,7.3404541,7.3404541h31.3190918c4.0540771,0,7.3404541-3.286438,7.3404541-7.3404541v-31.3190918c0-4.0540161-3.286377-7.3404541-7.3404541-7.3404541h0Z"/>
      </g>
      <path class="uuid-14d1df6f-8f9c-4b46-baa6-af8b46538698" d="M203.831543,198.3666992c.4677734.2880859,1.1513672.527832,1.8710938.527832,1.0673828,0,1.690918-.5634766,1.690918-1.3793945,0-.7553711-.4316406-1.1870117-1.5229492-1.6069336-1.3193359-.4677734-2.1352539-1.1513672-2.1352539-2.2905273,0-1.2592773,1.043457-2.1948242,2.6147461-2.1948242.8276367,0,1.4272461.1918945,1.7871094.3955078l-.2880859.8515625c-.2636719-.144043-.8032227-.3837891-1.5351562-.3837891-1.1030273,0-1.5229492.659668-1.5229492,1.2114258,0,.7553711.4916992,1.1274414,1.6069336,1.559082,1.3676758.527832,2.0629883,1.1875,2.0629883,2.375,0,1.2470703-.9233398,2.3266602-2.8305664,2.3266602-.7792969,0-1.6308594-.2280273-2.0625-.5161133l.2636719-.8754883Z"/>
    </g>
    <g>
      <g>
        <rect class="uuid-856d2d64-5074-4502-8503-08d9cd05da6b" x="249.3193359" y="173.3193359" width="45.3613281" height="45.3613281" rx="7.0209961" ry="7.0209961"/>
        <path class="uuid-2a10a476-c90c-4bbe-8e5f-222f6c522e8e" d="M287.6595459,173.638916c3.6953125,0,6.7015381,3.0062866,6.7015381,6.7015381v31.3190918c0,3.6952515-3.0062256,6.7015381-6.7015381,6.7015381h-31.3190918c-3.6953125,0-6.7015381-3.0062866-6.7015381-6.7015381v-31.3190918c0-3.6952515,3.0062256-6.7015381,6.7015381-6.7015381h31.3190918M287.6595459,173h-31.3190918c-4.0540771,0-7.3404541,3.286438-7.3404541,7.3404541v31.3190918c0,4.0540161,3.286377,7.3404541,7.3404541,7.3404541h31.3190918c4.0540771,0,7.3404541-3.286438,7.3404541-7.3404541v-31.3190918c0-4.0540161-3.286377-7.3404541-7.3404541-7.3404541h0Z"/>
      </g>
      <path class="uuid-14d1df6f-8f9c-4b46-baa6-af8b46538698" d="M269.9755859,191.6625977c.6357422-.0961914,1.3911133-.1679688,2.21875-.1679688,1.4990234,0,2.5664062.3476562,3.2739258,1.0073242.7197266.659668,1.1396484,1.5952148,1.1396484,2.9023438,0,1.3193359-.4077148,2.3989258-1.1635742,3.1425781-.7553711.7553711-2.0029297,1.1630859-3.5737305,1.1630859-.7436523,0-1.3676758-.0356445-1.8950195-.0957031v-7.9516602ZM271.019043,198.8105469c.2636719.0478516.6474609.0600586,1.0551758.0600586,2.230957,0,3.4423828-1.2475586,3.4423828-3.4301758.0117188-1.9067383-1.0673828-3.1181641-3.2744141-3.1181641-.5395508,0-.9472656.0478516-1.2231445.1079102v6.3803711Z"/>
    </g>
    <g>
      <g>
        <rect class="uuid-856d2d64-5074-4502-8503-08d9cd05da6b" x="118.3193359" y="173.3193359" width="45.3613281" height="45.3613281" rx="7.0209961" ry="7.0209961"/>
        <path class="uuid-2a10a476-c90c-4bbe-8e5f-222f6c522e8e" d="M156.6595459,173.638916c3.6953125,0,6.7015381,3.0062866,6.7015381,6.7015381v31.3190918c0,3.6952515-3.0062256,6.7015381-6.7015381,6.7015381h-31.3190918c-3.6953125,0-6.7015381-3.0062866-6.7015381-6.7015381v-31.3190918c0-3.6952515,3.0062256-6.7015381,6.7015381-6.7015381h31.3190918M156.6595459,173h-31.3190918c-4.0540771,0-7.3404541,3.286438-7.3404541,7.3404541v31.3190918c0,4.0540161,3.286377,7.3404541,7.3404541,7.3404541h31.3190918c4.0540771,0,7.3404541-3.286438,7.3404541-7.3404541v-31.3190918c0-4.0540161-3.286377-7.3404541-7.3404541-7.3404541h0Z"/>
      </g>
      <path class="uuid-14d1df6f-8f9c-4b46-baa6-af8b46538698" d="M139.2827148,197.0957031l-.8393555,2.5424805h-1.0795898l2.746582-8.0834961h1.2592773l2.7583008,8.0834961h-1.1152344l-.8632812-2.5424805h-2.8666992ZM141.9331055,196.2802734l-.7915039-2.3271484c-.1796875-.5273438-.2998047-1.0073242-.4194336-1.4750977h-.0244141c-.1196289.4799805-.2514648.9716797-.4077148,1.4633789l-.7915039,2.3388672h2.4345703Z"/>
    </g>
    <g>
      <path class="uuid-2a10a476-c90c-4bbe-8e5f-222f6c522e8e" d="M107.1303711,51.4492188c1.2250977-.199707,2.9931641-.3623047,5.5551758-.3623047,2.4243164,0,4.1616211.4375,5.3422852,1.3432617,1.1499023.8500977,1.918457,2.3369141,1.918457,4.0551758,0,1.7060547-.5688477,3.1992188-1.637207,4.1552734-1.3623047,1.21875-3.3364258,1.762207-5.6113281,1.762207-.4370117,0-.824707-.0375977-1.0996094-.0561523v5.7172852h-4.4677734v-16.6147461ZM111.5981445,58.8847656c.2436523.0439453.5439453.0625,1.03125.0625,1.7558594,0,2.8554688-.9057617,2.8554688-2.3554688,0-1.2558594-.8310547-2.105957-2.5493164-2.105957-.6625977,0-1.105957.050293-1.3374023.1064453v4.2924805Z"/>
      <path class="uuid-2a10a476-c90c-4bbe-8e5f-222f6c522e8e" d="M126.6606445,51.2182617v9.5600586c0,2.5429688.8808594,3.9799805,2.6679688,3.9799805,1.793457,0,2.6679688-1.3056641,2.6679688-3.9799805v-9.5600586h4.5117188v9.2915039c0,5.2045898-2.5869141,7.8291016-7.3232422,7.8291016-4.6054688,0-7.0361328-2.5307617-7.0361328-7.9355469v-9.1850586h4.5117188Z"/>
      <path class="uuid-2a10a476-c90c-4bbe-8e5f-222f6c522e8e" d="M139.6049805,51.2182617h4.5117188v13.0654297h6.4858398v3.7802734h-10.9975586v-16.8457031Z"/>
      <path class="uuid-2a10a476-c90c-4bbe-8e5f-222f6c522e8e" d="M153.1049805,63.5776367c1.0244141.512207,2.6806641,1.043457,4.3676758,1.043457,1.543457,0,2.3056641-.5375977,2.3056641-1.387207,0-.8061523-.7563477-1.2807617-2.6621094-1.9306641-2.8369141-1.0063477-4.7299805-2.574707-4.7299805-5.0800781,0-2.9804688,2.5117188-5.2675781,6.7670898-5.2675781,2.012207,0,3.4492188.375,4.5551758.8623047l-.9433594,3.6054688c-.7250977-.3188477-1.9746094-.7998047-3.6616211-.7998047-1.375,0-2.1308594.5058594-2.1308594,1.2436523,0,.855957.8935547,1.1992188,3.0180664,1.9931641,3.0366211,1.1123047,4.3925781,2.7368164,4.3925781,5.0800781,0,2.9116211-2.2617188,5.3857422-7.1796875,5.3857422-2.0307617,0-3.9990234-.5307617-4.9545898-1.0244141l.855957-3.7241211Z"/>
      <path class="uuid-2a10a476-c90c-4bbe-8e5f-222f6c522e8e" d="M171.2412109,64.1586914l-.949707,3.9052734h-4.6674805l4.8862305-16.8457031h6.0107422l5.0239258,16.8457031h-4.8740234l-1.074707-3.9052734h-4.3549805ZM174.9780273,60.828125l-.78125-3.0302734c-.2563477-.949707-.574707-2.324707-.8374023-3.3178711h-.0498047c-.25.9931641-.5,2.3803711-.7436523,3.3364258l-.7246094,3.0117188h3.1367188Z"/>
      <path class="uuid-2a10a476-c90c-4bbe-8e5f-222f6c522e8e" d="M188.6542969,51.2182617h4.5117188v13.0654297h6.4858398v3.7802734h-10.9975586v-16.8457031Z"/>
      <path class="uuid-2a10a476-c90c-4bbe-8e5f-222f6c522e8e" d="M206.4404297,64.1586914l-.949707,3.9052734h-4.6674805l4.8862305-16.8457031h6.0107422l5.0239258,16.8457031h-4.8740234l-1.074707-3.9052734h-4.3549805ZM210.1772461,60.828125l-.78125-3.0302734c-.2563477-.949707-.574707-2.324707-.8374023-3.3178711h-.0498047c-.25.9931641-.5,2.3803711-.7436523,3.3364258l-.7246094,3.0117188h3.1367188Z"/>
      <path class="uuid-2a10a476-c90c-4bbe-8e5f-222f6c522e8e" d="M219.2041016,63.5776367c1.0244141.512207,2.6806641,1.043457,4.3676758,1.043457,1.543457,0,2.3056641-.5375977,2.3056641-1.387207,0-.8061523-.7563477-1.2807617-2.6621094-1.9306641-2.8364258-1.0063477-4.7299805-2.574707-4.7299805-5.0800781,0-2.9804688,2.5117188-5.2675781,6.7670898-5.2675781,2.012207,0,3.4492188.375,4.5551758.8623047l-.9433594,3.6054688c-.7250977-.3188477-1.9746094-.7998047-3.6616211-.7998047-1.375,0-2.1308594.5058594-2.1308594,1.2436523,0,.855957.8935547,1.1992188,3.0180664,1.9931641,3.0366211,1.1123047,4.3925781,2.7368164,4.3925781,5.0800781,0,2.9116211-2.2617188,5.3857422-7.1796875,5.3857422-2.0307617,0-3.9990234-.5307617-4.9550781-1.0244141l.8564453-3.7241211Z"/>
      <path class="uuid-2a10a476-c90c-4bbe-8e5f-222f6c522e8e" d="M240.2216797,55.0048828h-4.2924805v-3.7866211h13.1777344v3.7866211h-4.3735352v13.059082h-4.5117188v-13.059082Z"/>
      <path class="uuid-2a10a476-c90c-4bbe-8e5f-222f6c522e8e" d="M261.7700195,61.2719727h-6.0546875v3.1054688h6.7670898v3.6865234h-11.2788086v-16.8457031h10.9287109v3.6865234h-6.4169922v2.7177734h6.0546875v3.6494141Z"/>
      <path class="uuid-2a10a476-c90c-4bbe-8e5f-222f6c522e8e" d="M277.612793,67.6328125c-.6376953.3125-2.2246094.6933594-4.2431641.6933594-6.3046875,0-9.0727539-3.9238281-9.0727539-8.4101562,0-5.9423828,4.3554688-8.9604492,9.3789062-8.9604492,1.9375,0,3.5117188.3623047,4.2119141.75l-.8813477,3.5488281c-.730957-.3061523-1.7744141-.605957-3.1176758-.605957-2.5932617,0-4.8364258,1.5307617-4.8364258,4.9799805,0,3.0556641,1.824707,4.9550781,4.9174805,4.9550781,1.0932617,0,2.3183594-.2124023,3.0180664-.480957l.625,3.5302734Z"/>
      <path class="uuid-2a10a476-c90c-4bbe-8e5f-222f6c522e8e" d="M280.0527344,51.2182617h4.5117188v13.0654297h6.4858398v3.7802734h-10.9975586v-16.8457031Z"/>
      <path class="uuid-2a10a476-c90c-4bbe-8e5f-222f6c522e8e" d="M297.8393555,64.1586914l-.949707,3.9052734h-4.6674805l4.8862305-16.8457031h6.0107422l5.0239258,16.8457031h-4.8735352l-1.0751953-3.9052734h-4.3549805ZM301.5761719,60.828125l-.78125-3.0302734c-.2563477-.949707-.574707-2.324707-.8374023-3.3178711h-.0498047c-.25.9931641-.5,2.3803711-.7436523,3.3364258l-.7246094,3.0117188h3.1367188Z"/>
      <path class="uuid-2a10a476-c90c-4bbe-8e5f-222f6c522e8e" d="M310.6025391,63.5776367c1.0244141.512207,2.6806641,1.043457,4.3676758,1.043457,1.543457,0,2.3056641-.5375977,2.3056641-1.387207,0-.8061523-.7563477-1.2807617-2.6621094-1.9306641-2.8364258-1.0063477-4.7299805-2.574707-4.7299805-5.0800781,0-2.9804688,2.5117188-5.2675781,6.7670898-5.2675781,2.012207,0,3.4492188.375,4.5551758.8623047l-.9433594,3.6054688c-.7250977-.3188477-1.9746094-.7998047-3.6616211-.7998047-1.375,0-2.1308594.5058594-2.1308594,1.2436523,0,.855957.8935547,1.1992188,3.0180664,1.9931641,3.0366211,1.1123047,4.3925781,2.7368164,4.3925781,5.0800781,0,2.9116211-2.2617188,5.3857422-7.1796875,5.3857422-2.0307617,0-3.9990234-.5307617-4.9550781-1.0244141l.8564453-3.7241211Z"/>
    </g>
    <g>
      <path class="uuid-2a10a476-c90c-4bbe-8e5f-222f6c522e8e" d="M102.4980469,258.6494141c.8193359-.1523438,1.8320312-.2729492,3.0234375-.2729492,1.6904297,0,2.9609375.4360352,3.7426758,1.1967773.6826172.6616211,1.0864258,1.5908203,1.0864258,2.7714844,0,1.2177734-.3408203,2.1259766-.9814453,2.8291016-.902832,1.0395508-2.4248047,1.5800781-4.1572266,1.5800781-.6347656,0-1.2124023-.015625-1.7163086-.1679688v6.0522461h-.9975586v-13.9887695ZM103.4956055,265.7094727c.4936523.1523438,1.112793.2045898,1.7954102.2045898,2.5351562,0,4.0517578-1.2280273,4.0517578-3.4697266,0-2.2255859-1.6113281-3.2280273-3.8579102-3.2280273-.9130859,0-1.6113281.0893555-1.9892578.1679688v6.3251953Z"/>
      <path class="uuid-2a10a476-c90c-4bbe-8e5f-222f6c522e8e" d="M117.890625,272.6381836l-.1474609-1.4433594h-.046875c-.4882812.7768555-1.6113281,1.6743164-3.2124023,1.6743164-2.0263672,0-2.9658203-1.4277344-2.9658203-2.7714844,0-2.3251953,2.0473633-3.7265625,6.1464844-3.6845703v-.2680664c0-.9970703-.1938477-2.9868164-2.5771484-2.9707031-.8818359,0-1.800293.2358398-2.5297852.7504883l-.3154297-.7246094c.9189453-.6245117,2.0419922-.8710938,2.9555664-.8710938,2.9077148,0,3.4643555,2.1835938,3.4643555,3.9838867v3.9316406c0,.7978516.03125,1.6220703.1469727,2.3935547h-.918457ZM117.6645508,267.2529297c-2.1938477-.0634766-5.0913086.2675781-5.0913086,2.6875,0,1.4482422.9550781,2.0996094,2.0048828,2.0996094,1.6796875,0,2.6352539-1.0395508,2.9814453-2.0209961.0737305-.215332.1049805-.4306641.1049805-.6040039v-2.1621094Z"/>
      <path class="uuid-2a10a476-c90c-4bbe-8e5f-222f6c522e8e" d="M121.9228516,265.5834961c0-1.0078125-.03125-2.0473633-.0839844-3.0234375h.9238281l.0419922,2.0473633h.0581055c.440918-1.2758789,1.4799805-2.2783203,2.8608398-2.2783203.1416016,0,.2832031.015625.4091797.0473633v.9550781c-.1523438-.03125-.2939453-.03125-.4829102-.03125-1.3803711,0-2.3725586,1.2016602-2.6455078,2.8188477-.0522461.2939453-.0839844.6298828-.0839844.9550781v5.5639648h-.9975586v-7.0546875Z"/>
      <path class="uuid-2a10a476-c90c-4bbe-8e5f-222f6c522e8e" d="M133.5771484,272.6381836l-.1474609-1.4433594h-.046875c-.4882812.7768555-1.6113281,1.6743164-3.2124023,1.6743164-2.0263672,0-2.9658203-1.4277344-2.9658203-2.7714844,0-2.3251953,2.0473633-3.7265625,6.1464844-3.6845703v-.2680664c0-.9970703-.1938477-2.9868164-2.5771484-2.9707031-.8818359,0-1.800293.2358398-2.5297852.7504883l-.3154297-.7246094c.9189453-.6245117,2.0419922-.8710938,2.9555664-.8710938,2.9077148,0,3.4643555,2.1835938,3.4643555,3.9838867v3.9316406c0,.7978516.03125,1.6220703.1469727,2.3935547h-.918457ZM133.3510742,267.2529297c-2.1938477-.0634766-5.0913086.2675781-5.0913086,2.6875,0,1.4482422.9550781,2.0996094,2.0048828,2.0996094,1.6796875,0,2.6352539-1.0395508,2.9814453-2.0209961.0737305-.215332.1049805-.4306641.1049805-.6040039v-2.1621094Z"/>
      <path class="uuid-2a10a476-c90c-4bbe-8e5f-222f6c522e8e" d="M142.2138672,264.9692383c0-.9238281-.03125-1.6166992-.0839844-2.4091797h.9291992l.0737305,1.784668h.0419922c.6455078-1.1601562,1.6113281-2.015625,3.2700195-2.015625,1.4013672,0,2.4614258.9345703,2.8920898,2.2045898h.0419922c.2885742-.5981445.65625-1.0498047,1.0288086-1.3647461.6508789-.5405273,1.3334961-.8398438,2.4091797-.8398438.9819336,0,3.2861328.5566406,3.2861328,4.3725586v5.9365234h-.9975586v-5.8422852c0-2.262207-.8764648-3.6113281-2.6298828-3.6113281-1.2543945,0-2.2514648.9345703-2.6455078,2-.0942383.2885742-.1728516.6245117-.1728516.9970703v6.456543h-.9975586v-6.2988281c0-1.815918-.8710938-3.1547852-2.4985352-3.1547852-1.3540039,0-2.4199219,1.097168-2.7978516,2.2729492-.0888672.2836914-.1518555.6245117-.1518555.9711914v6.2094727h-.9975586v-7.6689453Z"/>
      <path class="uuid-2a10a476-c90c-4bbe-8e5f-222f6c522e8e" d="M168.0209961,267.5048828c0,3.7631836-2.5771484,5.3642578-4.8237305,5.3642578-2.6088867,0-4.6191406-2.0263672-4.6191406-5.1914062,0-3.4482422,2.262207-5.3486328,4.7661133-5.3486328,2.7817383,0,4.6767578,2.0888672,4.6767578,5.1757812ZM159.5859375,267.6308594c0,2.5195312,1.6064453,4.4091797,3.6796875,4.4091797,2.0942383,0,3.7475586-1.9057617,3.7475586-4.4882812,0-1.8422852-1.0390625-4.3935547-3.6953125-4.3935547-2.5668945,0-3.7319336,2.2993164-3.7319336,4.4726562Z"/>
      <path class="uuid-2a10a476-c90c-4bbe-8e5f-222f6c522e8e" d="M170.1601562,262.5600586l2.3671875,6.2568359c.3989258.9868164.7138672,1.8422852.9814453,2.6977539h.0473633c.277832-.8398438.6401367-1.7319336,1.0234375-2.6977539l2.3989258-6.2568359h1.0498047l-4.0996094,10.078125h-.8818359l-3.9472656-10.078125h1.0605469Z"/>
      <path class="uuid-2a10a476-c90c-4bbe-8e5f-222f6c522e8e" d="M179.9775391,267.5048828c0,3.2172852,1.7529297,4.4931641,3.8320312,4.4931641,1.4697266,0,2.2304688-.2939453,2.8027344-.5722656l.2573242.7871094c-.3886719.2099609-1.4223633.6455078-3.1811523.6455078-2.8974609,0-4.6977539-2.1098633-4.6977539-5.0595703,0-3.3647461,1.9262695-5.4697266,4.5297852-5.4697266,3.3017578,0,3.9262695,3.1020508,3.9262695,4.5561523,0,.2836914,0,.440918-.03125.6196289h-7.4379883ZM186.4023438,266.7070312c.0263672-1.4072266-.5615234-3.5488281-3.0126953-3.5488281-2.215332,0-3.1757812,1.9951172-3.359375,3.5488281h6.3720703Z"/>
      <path class="uuid-2a10a476-c90c-4bbe-8e5f-222f6c522e8e" d="M190.0048828,265.5834961c0-1.0078125-.0317383-2.0473633-.0839844-3.0234375h.9238281l.0419922,2.0473633h.0576172c.440918-1.2758789,1.4799805-2.2783203,2.8603516-2.2783203.1420898,0,.2836914.015625.409668.0473633v.9550781c-.1523438-.03125-.2939453-.03125-.4829102-.03125-1.3803711,0-2.3725586,1.2016602-2.6455078,2.8188477-.0527344.2939453-.0839844.6298828-.0839844.9550781v5.5639648h-.9970703v-7.0546875Z"/>
      <path class="uuid-2a10a476-c90c-4bbe-8e5f-222f6c522e8e" d="M198.1362305,259.6416016v2.918457h2.871582v.8081055h-2.871582v6.5507812c0,1.28125.3989258,2.0839844,1.4804688,2.0839844.5195312,0,.887207-.0683594,1.144043-.1572266l.1210938.7714844c-.3256836.1367188-.7822266.2412109-1.3911133.2412109-.7348633,0-1.34375-.2304688-1.737793-.7138672-.456543-.5297852-.6137695-1.375-.6137695-2.4038086v-6.3725586h-1.7006836v-.8081055h1.7006836v-2.5932617l.9970703-.3251953Z"/>
      <path class="uuid-2a10a476-c90c-4bbe-8e5f-222f6c522e8e" d="M203.265625,267.5048828c0,3.2172852,1.7529297,4.4931641,3.8320312,4.4931641,1.4697266,0,2.2304688-.2939453,2.8027344-.5722656l.2573242.7871094c-.3886719.2099609-1.4223633.6455078-3.1811523.6455078-2.8974609,0-4.6977539-2.1098633-4.6977539-5.0595703,0-3.3647461,1.9262695-5.4697266,4.5297852-5.4697266,3.3017578,0,3.9262695,3.1020508,3.9262695,4.5561523,0,.2836914,0,.440918-.03125.6196289h-7.4379883ZM209.6904297,266.7070312c.0263672-1.4072266-.5615234-3.5488281-3.0126953-3.5488281-2.215332,0-3.1757812,1.9951172-3.359375,3.5488281h6.3720703Z"/>
      <path class="uuid-2a10a476-c90c-4bbe-8e5f-222f6c522e8e" d="M217.8916016,265.777832c0-1.2597656-.03125-2.262207-.0839844-3.2177734h.9555664l.0737305,1.9106445h.0419922c.7241211-1.3330078,1.9682617-2.1416016,3.7158203-2.1416016,2.5878906,0,4.3359375,2.1416016,4.3359375,5.1020508,0,3.605957-2.1469727,5.4379883-4.5825195,5.4379883-1.4379883,0-2.71875-.6508789-3.4169922-1.8632812h-.0419922v5.7895508h-.9975586v-11.0175781ZM218.8891602,268.6699219c0,.2729492.0317383.5458984.0893555.8032227.4091797,1.559082,1.7636719,2.5668945,3.3120117,2.5668945,2.3149414,0,3.6323242-1.8793945,3.6323242-4.5668945,0-2.2675781-1.2651367-4.3149414-3.5483398-4.3149414-1.4750977,0-2.8920898,1.0185547-3.3383789,2.6875-.0683594.2734375-.1469727.5878906-.1469727.8613281v1.9628906Z"/>
      <path class="uuid-2a10a476-c90c-4bbe-8e5f-222f6c522e8e" d="M238.097168,267.5048828c0,3.7631836-2.5771484,5.3642578-4.8237305,5.3642578-2.6088867,0-4.6191406-2.0263672-4.6191406-5.1914062,0-3.4482422,2.262207-5.3486328,4.7661133-5.3486328,2.7817383,0,4.6767578,2.0888672,4.6767578,5.1757812ZM229.6621094,267.6308594c0,2.5195312,1.6064453,4.4091797,3.6796875,4.4091797,2.0942383,0,3.7475586-1.9057617,3.7475586-4.4882812,0-1.8422852-1.0390625-4.3935547-3.6953125-4.3935547-2.5668945,0-3.7319336,2.2993164-3.7319336,4.4726562Z"/>
      <path class="uuid-2a10a476-c90c-4bbe-8e5f-222f6c522e8e" d="M240.6552734,265.5834961c0-1.0078125-.03125-2.0473633-.0839844-3.0234375h.9238281l.0419922,2.0473633h.0581055c.440918-1.2758789,1.4799805-2.2783203,2.8608398-2.2783203.1416016,0,.2832031.015625.4091797.0473633v.9550781c-.1523438-.03125-.2939453-.03125-.4829102-.03125-1.3803711,0-2.3725586,1.2016602-2.6455078,2.8188477-.0522461.2939453-.0839844.6298828-.0839844.9550781v5.5639648h-.9975586v-7.0546875Z"/>
      <path class="uuid-2a10a476-c90c-4bbe-8e5f-222f6c522e8e" d="M251.6069336,267.5048828c0,3.2172852,1.753418,4.4931641,3.831543,4.4931641,1.4697266,0,2.230957-.2939453,2.8032227-.5722656l.2573242.7871094c-.3886719.2099609-1.4228516.6455078-3.1811523.6455078-2.8974609,0-4.6977539-2.1098633-4.6977539-5.0595703,0-3.3647461,1.9262695-5.4697266,4.5297852-5.4697266,3.3017578,0,3.9262695,3.1020508,3.9262695,4.5561523,0,.2836914,0,.440918-.03125.6196289h-7.4379883ZM258.0317383,266.7070312c.0263672-1.4072266-.5615234-3.5488281-3.0131836-3.5488281-2.2148438,0-3.175293,1.9951172-3.359375,3.5488281h6.3725586Z"/>
      <path class="uuid-2a10a476-c90c-4bbe-8e5f-222f6c522e8e" d="M261.6391602,257.730957h.9975586v14.9072266h-.9975586v-14.9072266Z"/>
      <path class="uuid-2a10a476-c90c-4bbe-8e5f-222f6c522e8e" d="M270.6899414,264.9692383c0-.9238281-.03125-1.6166992-.0839844-2.4091797h.9291992l.0732422,1.784668h.0419922c.6459961-1.1601562,1.6118164-2.015625,3.2705078-2.015625,1.4013672,0,2.4619141.9345703,2.8920898,2.2045898h.0419922c.2885742-.5981445.65625-1.0498047,1.0288086-1.3647461.6508789-.5405273,1.3330078-.8398438,2.4091797-.8398438.9814453,0,3.2861328.5566406,3.2861328,4.3725586v5.9365234h-.9975586v-5.8422852c0-2.262207-.8764648-3.6113281-2.6293945-3.6113281-1.2548828,0-2.2519531.9345703-2.6455078,2-.0947266.2885742-.1733398.6245117-.1733398.9970703v6.456543h-.9975586v-6.2988281c0-1.815918-.8710938-3.1547852-2.4985352-3.1547852-1.3540039,0-2.4194336,1.097168-2.7973633,2.2729492-.0893555.2836914-.1523438.6245117-.1523438.9711914v6.2094727h-.9975586v-7.6689453Z"/>
      <path class="uuid-2a10a476-c90c-4bbe-8e5f-222f6c522e8e" d="M293.3847656,272.6381836l-.1474609-1.4433594h-.046875c-.4882812.7768555-1.6113281,1.6743164-3.2124023,1.6743164-2.0263672,0-2.9658203-1.4277344-2.9658203-2.7714844,0-2.3251953,2.0473633-3.7265625,6.1464844-3.6845703v-.2680664c0-.9970703-.1938477-2.9868164-2.5771484-2.9707031-.8818359,0-1.800293.2358398-2.5297852.7504883l-.3154297-.7246094c.9189453-.6245117,2.0419922-.8710938,2.9555664-.8710938,2.9077148,0,3.4643555,2.1835938,3.4643555,3.9838867v3.9316406c0,.7978516.03125,1.6220703.1469727,2.3935547h-.918457ZM293.1586914,267.2529297c-2.1938477-.0634766-5.0913086.2675781-5.0913086,2.6875,0,1.4482422.9550781,2.0996094,2.0048828,2.0996094,1.6796875,0,2.6352539-1.0395508,2.9814453-2.0209961.0737305-.215332.1049805-.4306641.1049805-.6040039v-2.1621094Z"/>
      <path class="uuid-2a10a476-c90c-4bbe-8e5f-222f6c522e8e" d="M297.4169922,265.777832c0-1.2597656-.03125-2.262207-.0839844-3.2177734h.9555664l.0737305,1.9106445h.0419922c.7241211-1.3330078,1.9682617-2.1416016,3.7158203-2.1416016,2.5878906,0,4.3359375,2.1416016,4.3359375,5.1020508,0,3.605957-2.1469727,5.4379883-4.5825195,5.4379883-1.4379883,0-2.71875-.6508789-3.4169922-1.8632812h-.0419922v5.7895508h-.9975586v-11.0175781ZM298.4145508,268.6699219c0,.2729492.0317383.5458984.0893555.8032227.4091797,1.559082,1.7636719,2.5668945,3.3120117,2.5668945,2.3149414,0,3.6323242-1.8793945,3.6323242-4.5668945,0-2.2675781-1.2651367-4.3149414-3.5483398-4.3149414-1.4750977,0-2.8920898,1.0185547-3.3383789,2.6875-.0683594.2734375-.1469727.5878906-.1469727.8613281v1.9628906Z"/>
      <path class="uuid-2a10a476-c90c-4bbe-8e5f-222f6c522e8e" d="M314.5097656,272.6381836l-.1464844-1.4433594h-.0473633c-.4882812.7768555-1.6118164,1.6743164-3.2124023,1.6743164-2.0263672,0-2.9658203-1.4277344-2.9658203-2.7714844,0-2.3251953,2.046875-3.7265625,6.1464844-3.6845703v-.2680664c0-.9970703-.1943359-2.9868164-2.5771484-2.9707031-.8818359,0-1.800293.2358398-2.5302734.7504883l-.3144531-.7246094c.918457-.6245117,2.0415039-.8710938,2.9550781-.8710938,2.9077148,0,3.4643555,2.1835938,3.4643555,3.9838867v3.9316406c0,.7978516.03125,1.6220703.1469727,2.3935547h-.9189453ZM314.2841797,267.2529297c-2.1938477-.0634766-5.0913086.2675781-5.0913086,2.6875,0,1.4482422.9550781,2.0996094,2.0048828,2.0996094,1.6796875,0,2.6352539-1.0395508,2.9814453-2.0209961.0737305-.215332.1049805-.4306641.1049805-.6040039v-2.1621094Z"/>
    </g>
  </g>
</svg>