<?xml version="1.0" encoding="UTF-8"?>
<svg id="Capa_1" data-name="Capa 1" xmlns="http://www.w3.org/2000/svg" xmlns:xlink="http://www.w3.org/1999/xlink" viewBox="0 0 1937.39 1178.08">
  <defs>
    <style>
      .cls-1 {
        stroke-width: .15px;
      }

      .cls-1, .cls-2, .cls-3, .cls-4, .cls-5 {
        stroke-miterlimit: 10;
      }

      .cls-1, .cls-3, .cls-4, .cls-5 {
        fill: none;
        stroke: #fff;
      }

      .cls-6 {
        fill: #474747;
      }

      .cls-6, .cls-7, .cls-8 {
        stroke-width: 0px;
      }

      .cls-7 {
        fill: #39b54a;
      }

      .cls-8 {
        fill: #fff;
      }

      .cls-2 {
        fill: #000;
        opacity: .75;
        stroke: #000;
      }

      .cls-3 {
        stroke-width: .07px;
      }

      .cls-4 {
        stroke-width: .77px;
      }

      .cls-5 {
        stroke-width: .05px;
      }
    </style>
  </defs>
  <image width="4416" height="3312" transform="translate(1 98.08) scale(.43 .33)" xlink:href="pexels-francesco-ungaro-1710813.jpg"/>
  <rect class="cls-2" x=".5" y="97.58" width="1920" height="1080"/>
  <path class="cls-1" d="M101.63,16.49c0-.12-.07-.22-.18-.28l-15.35-8.04h0s0,0,0,0L70.74.12c-.11-.06-.24-.06-.35,0l-15.33,8.03h-.02s-15.33,8.04-15.33,8.04c-.12.05-.2.17-.2.29v32.18h0c0,.12.07.22.18.28l15.35,8.04h0s0,0,0,0l15.35,8.04c.11.06.24.06.35,0l15.33-8.03h.02s15.33-8.04,15.33-8.04c.12-.05.2-.17.2-.29V16.49h0ZM100.91,32.58v15.9l-15.17,7.95h-.02s-15.16,7.95-15.16,7.95l-15.17-7.95h0s-15.17-7.95-15.17-7.95v-31.8l15.17-7.95h.02s15.16-7.95,15.16-7.95l15.17,7.95h0s15.17,7.95,15.17,7.95v15.9Z"/>
  <path class="cls-4" d="M84.25,11.06h0s-8.95-4.69-8.95-4.69h0s0,0,0,0l-4.54-2.38s-.01,0-.02,0c-.05-.03-.1-.04-.15-.05,0,0,0,0-.02,0,0,0,0,0-.01,0-.06,0-.11.02-.17.04,0,0,0,0-.01,0l-4.56,2.39h0l-8.95,4.69h0s-13.48,7.06-13.48,7.06c-.13.05-.21.17-.21.3v28.31h0c0,.12.07.22.18.28l13.51,7.08,13.51,7.08c.11.06.24.06.35,0l13.51-7.08,13.48-7.06c.13-.05.21-.17.21-.3v-28.31h0c0-.12-.07-.22-.18-.28l-13.51-7.08h0Z"/>
  <path class="cls-3" d="M97.94,28.72c0-.37-.4-.67-.9-.67s-.9.3-.9.67v4.1s-.03-.02-.05-.02c0,0-.01,0-.02,0-.04-.02-.08-.03-.12-.04,0,0-.02,0-.03,0-.04-.01-.09-.02-.13-.03l-2.95-.43c-.07-.01-.15-.01-.22-.01-.04,0-.07,0-.11,0-.18.02-.35.09-.48.19l-6.2,4.6h-1.83c-.24,0-.47.07-.64.2l-5.49,4.07h-4.04c-.35,0-.66.15-.81.38l-.89,1.39-2.85-2.68c-.24-.22-.64-.31-1-.22l-5.08,1.27-1.58-3.26c-.03-.06-.08-.13-.13-.18-.09-.09-.22-.16-.36-.21-.02,0-.05-.01-.07-.02-.21-.05-.44-.05-.64.02l-4.34,1.39c-.43.14-.64.49-.5.82,0,.02.02.04.03.06.2.34.73.5,1.19.35l3.46-1.11,1.55,3.21c.14.28.49.45.87.44.09,0,.18-.01.26-.03l5.32-1.33,3.01,2.82-.76,1.18-1.58,2.45h-23.95v-12.45l3.08.53,3.88,7.47s.03.05.05.07c0,0,0,.01.01.02.01.02.03.04.05.05,0,0,0,.01.01.02.04.04.1.08.15.12,0,0,.01,0,.02.01.02.01.05.03.07.04,0,0,.01,0,.02,0,.03.01.06.03.1.04,0,0,0,0,.01,0,.03,0,.06.02.09.02,0,0,.02,0,.02,0,.03,0,.07.01.1.02,0,0,0,0,0,0h0s.08,0,.12,0h0s.01,0,.02,0c.02,0,.05,0,.07,0,.01,0,.02,0,.03,0,.02,0,.05,0,.07,0,.01,0,.02,0,.03,0,.02,0,.04,0,.06-.01.01,0,.02,0,.03,0,0,0,0,0,.01,0,.02,0,.03-.01.05-.02,0,0,.02,0,.03,0,.06-.02.11-.05.16-.08,0,0,.01,0,.02-.01.02-.01.04-.02.06-.04,0,0,.01-.01.02-.02.02-.01.03-.03.05-.04,0,0,0,0,.01,0l.92-.9c.3-.29.23-.71-.17-.94-.37-.21-.89-.17-1.21.08l-3.47-6.69c-.11-.21-.35-.36-.64-.41l-3.96-.69v-8.83l2.82,1.55c.16.09.34.13.54.13h5.35l2.38,6.02c.1.25.39.44.75.48l4.25.41c.08.08.16.17.24.25.95,1,1.88,2.01,2.33,2.52.11.13.2.23.24.28.21.43.83.51,1.92.64.57.07,1.32.15,2.24.23.13.01.27.02.41.04,1.43.13,2.86.25,3.48.3l2.42,1.79c.35.26.92.26,1.28,0,.35-.26.35-.69,0-.95l-.39-.28h0l-2.26-1.67c-.15-.11-.34-.17-.54-.19-2.63-.2-5.54-.47-6.77-.63-.04,0-.08-.01-.12-.02-.08-.01-.14-.02-.2-.03-.33-.4-1.1-1.27-3.02-3.29-.15-.15-.37-.25-.62-.28l-1.89-.18h0l-2.17-.21-2.4-6.09c-.11-.28-.47-.48-.87-.48h-5.73l-4.02-2.21c-.27-.15-.64-.17-.94-.06-.3.11-.5.35-.5.6"/>
  <path class="cls-6" d="M1273.33,5.49c0,6.05,4.89,10.94,10.94,10.94h642.19c6.05,0,10.94-4.89,10.94-10.94"/>
  <path class="cls-8" d="M70.92,48.07l3.48-5.4h3.84s.06,0,.09,0h0s.03,0,.04,0c.02,0,.03,0,.05,0h0s.03,0,.04,0c.01,0,.03,0,.04,0h0s.03,0,.04-.01c.01,0,.03,0,.04-.01h0s.03,0,.04-.01c.01,0,.03,0,.04-.01,0,0,0,0,0,0,.01,0,.02-.01.04-.02.01,0,.03-.01.04-.02,0,0,0,0,0,0,.01,0,.02-.01.04-.02.01,0,.02-.01.03-.02h0s.04-.02.06-.04c0,0,0,0,.01,0l5.49-4.07h1.83c.24,0,.47-.07.64-.2l6.13-4.54,2.16.31,1.01.9v13.2h-25.22Z"/>
  <path class="cls-8" d="M97.68,26.09c-.21-.16-.52-.23-.81-.18-.06,0-.11.02-.17.04-.05.02-.11.04-.16.06-.05.02-.1.05-.14.08-.04.03-.08.06-.11.1-.03.04-.06.08-.08.12-.02.04-.04.08-.05.13s-.02.09-.02.13,0,.09.02.13c.01.04.03.09.05.13.02.04.05.08.08.12.03.04.07.07.11.1.17.12.4.2.64.2.06,0,.12,0,.18-.01.06,0,.11-.02.17-.04.05-.02.11-.04.16-.06"/>
  <path class="cls-8" d="M97.94,18.74c0-.24-.18-.47-.46-.58l-2.31-.95c-.31-.13-.7-.11-.99.05l-4,2.28h-1.77c-.25,0-.49.08-.66.21l-2.79,2.2h-5.83c-.18,0-.36.04-.51.12l-4.66,2.35-4.37-.37c-.32-.03-.64.08-.83.27l-5.66,5.76c-.29.3-.2.72.2.93.16.09.35.13.53.13.28,0,.55-.1.73-.28l5.35-5.44,4.18.35c.22.02.43-.02.61-.11l4.71-2.37h5.94c.25,0,.49-.08.66-.21l2.79-2.2h1.68c.2,0,.39-.05.55-.14l3.78-2.15,1.33.55v5.01c0,.37.4.67.9.67s.9-.3.9-.67"/>
  <path class="cls-7" d="M73.63,33.7v5.4h4.64v-2.8c0-.56.19-1.11.57-1.54l2.99-3.36c.73-.83,1.08-1.98,1.06-3.05v-8.95c0-.72-.52-1.32-1.17-1.32s-1.15.59-1.15,1.32v5.5c.21.11.44.27.59.47.36.4.57.96.57,1.54s-.19,1.13-.57,1.54l-3.45,3.88c-.15.17-.4.17-.55,0-.15-.17-.15-.45,0-.6l3.46-3.9c.45-.51.45-1.34,0-1.85-.45-.51-1.19-.51-1.65,0l-4.3,4.83c-.71.81-1.06,1.85-1.06,2.9h0ZM65.83,33.7c0-1.05-.36-2.09-1.06-2.9l-4.3-4.83c-.45-.51-1.19-.51-1.65,0-.45.51-.45,1.34,0,1.85l3.46,3.9c.15.15.15.42,0,.6-.15.17-.4.17-.55,0l-3.45-3.88c-.38-.4-.57-.96-.57-1.54s.21-1.13.57-1.54c.15-.2.38-.36.59-.47v-5.5c0-.73-.51-1.32-1.15-1.32s-1.17.6-1.17,1.32v8.95c-.02,1.07.34,2.22,1.06,3.05l2.99,3.36c.38.42.57.98.57,1.54v2.8h4.64v-5.4h0ZM69.13,13.39c.72-.81,1.59-1.47,2.56-1.94-.07.54-.08,1.08-.02,1.62-.57.43-1.09.93-1.56,1.48-.3-.41-.63-.8-.97-1.15ZM76.86,22.12c-.83-.1-1.54.49-2.11,1.4-.77,1.12-1.74,1.66-2.65,1.88,1.79-1.27,2.64-3.82,1.96-6.11-.53-1.76-1.7-3.91-1.47-5.82-.63.41-3.11,2.36-4.03,5.69-.64,2.34-.66,4.35-.66,4.35,0,0-.88-2.43.16-5.59.53-1.38,1.35-2.58,1.41-2.67-.67-.95-1.51-1.77-2.47-2.41.15,2.38-.84,4.02-1.55,6.13-.88,2.59.12,5.25,1.84,6.44-.91-.21-1.88-.74-2.6-1.89-.58-.91-1.28-1.5-2.11-1.4-.51.06-.91.47-1.13.96.17-.13.35-.25.57-.27.86-.06,1.38.6,2.27,2.22.98,1.77,2.41,2.05,3.6,2,.24.6.64,1.06,1.12,1.28v2.2h1.32v-2.19c.48-.22.88-.69,1.13-1.29,1.21.07,2.68-.18,3.69-1.99.9-1.62,1.41-2.28,2.27-2.22.21.02.4.14.57.27-.22-.48-.62-.89-1.13-.96Z"/>
  <path class="cls-5" d="M48.18,49.07c1.65.53,2.96.02,4.61-.51.83-.26,1.76-.42,2.73-.42s1.9.15,2.73.42c.81.25,1.71.39,2.66.39s1.84-.15,2.65-.39c.82-.26,1.76-.42,2.73-.42s1.9.15,2.73.42c.8.25,1.71.39,2.65.39s1.85-.15,2.65-.39c.83-.26,1.76-.42,2.74-.42s1.9.15,2.72.42c.81.25,1.72.39,2.65.39s1.84-.15,2.65-.39c.82-.26,1.76-.42,2.72-.42s1.9.15,2.74.42c.8.25,1.7.39,2.64.39M89.49,50.91c-.83-.26-.72-.04-1.69-.04s-1.9.15-2.72.42c-.81.25-1.71.39-2.65.39s-1.84-.14-2.65-.39c-.83-.26-1.76-.42-2.72-.42s-1.9.15-2.74.42c-.8.25-1.71.39-2.65.39s-1.85-.14-2.65-.39c-.83-.26-1.76-.42-2.73-.42s-1.91.15-2.73.42c-.81.25-1.71.39-2.65.39s-1.85-.14-2.66-.39c-.82-.26-1.76-.42-2.73-.42s-2.21.24-3.04.5c-2.46-.83-1.69-1.08-3.23-1.69M81.2,55.21l5.07-2.61c-.67-.18.01-.05-.65-.14-.64-.26-1.35-.42-2.1-.42s-1.46.15-2.09.42c-.62.25-1.31.39-2.04.39s-1.42-.15-2.04-.39c-.63-.26-1.35-.42-2.09-.42s-1.46.15-2.1.42c-.62.25-1.31.39-2.03.39s-1.42-.15-2.03-.39c-.64-.26-1.35-.42-2.1-.42s-1.47.15-2.1.42c-.62.25-1.31.39-2.03.39s-1.42-.15-2.04-.39c-.63-.26-1.35-.42-2.09-.42s-1.46.15-2.1.42l-1.54.29,3.84,2M58.93,54.75c.74,0,1.26.17,1.89.43.62.25,1.32.39,2.04.39s1.41-.14,2.03-.39c.63-.26,1.35-.42,2.1-.42s1.46.15,2.1.42c.62.25,1.31.39,2.03.39s1.42-.14,2.03-.39c.64-.26,1.35-.42,2.1-.42s1.46.15,2.09.42c.62.25,1.32.39,2.04.39s1.19-.12,1.81-.36"/>
</svg>