<?xml version="1.0" encoding="UTF-8"?>
<svg id="Capa_2" data-name="Capa 2" xmlns="http://www.w3.org/2000/svg" viewBox="0 0 31.22 32.79">
  <defs>
    <style>
      .cls-1 {
        fill: #fff;
        stroke-width: 0px;
      }
    </style>
  </defs>
  <g id="Capa_1-2" data-name="Capa 1">
    <path class="cls-1" d="M20.24,26.38v6.4h5.49v-3.32c0-.66.23-1.32.68-1.82l3.54-3.99c.86-.98,1.28-2.35,1.26-3.61v-10.61c0-.85-.62-1.56-1.39-1.56s-1.37.7-1.37,1.56v6.52c.25.13.52.32.7.56.42.48.68,1.14.68,1.82s-.23,1.34-.68,1.82l-4.08,4.59c-.18.21-.47.21-.65,0-.18-.21-.18-.53,0-.71l4.11-4.62c.54-.61.54-1.59,0-2.19-.54-.61-1.41-.61-1.95,0l-5.09,5.73c-.84.96-1.26,2.19-1.26,3.43h.01ZM10.99,26.38c0-1.24-.42-2.48-1.26-3.43l-5.09-5.73c-.54-.61-1.41-.61-1.95,0-.54.61-.54,1.59,0,2.19l4.11,4.62c.18.18.18.5,0,.71-.18.21-.47.21-.65,0l-4.08-4.6c-.45-.48-.68-1.14-.68-1.82s.25-1.34.68-1.82c.18-.23.45-.43.7-.56v-6.52c0-.86-.61-1.56-1.37-1.56S0,8.58,0,9.43v10.61c-.02,1.27.4,2.63,1.26,3.61l3.54,3.99c.45.5.68,1.16.68,1.82v3.32h5.49v-6.4h.01ZM14.9,2.3c.86-.96,1.88-1.75,3.03-2.3-.09.64-.1,1.28-.03,1.92-.67.51-1.29,1.1-1.85,1.75-.36-.49-.74-.94-1.15-1.37ZM24.07,12.66c-.99-.12-1.82.58-2.5,1.66-.91,1.32-2.07,1.97-3.14,2.23,2.12-1.5,3.13-4.53,2.32-7.24-.62-2.09-2.01-4.64-1.74-6.9-.75.49-3.69,2.79-4.78,6.75-.76,2.77-.78,5.16-.78,5.16,0,0-1.04-2.89.19-6.63.63-1.63,1.6-3.06,1.67-3.16-.8-1.13-1.78-2.1-2.93-2.86.18,2.82-1,4.76-1.84,7.26-1.04,3.08.14,6.22,2.18,7.63-1.07-.25-2.23-.88-3.08-2.24-.68-1.08-1.52-1.78-2.5-1.66-.61.08-1.08.56-1.34,1.13.2-.15.42-.3.67-.32,1.02-.07,1.63.71,2.7,2.63,1.17,2.1,2.86,2.43,4.27,2.37.29.71.76,1.25,1.32,1.52v2.6h1.56v-2.6c.57-.27,1.05-.82,1.34-1.53,1.43.08,3.18-.21,4.37-2.36,1.06-1.92,1.67-2.7,2.7-2.63.25.02.48.16.67.32-.26-.57-.73-1.06-1.34-1.13Z"/>
  </g>
</svg>