<?xml version="1.0" encoding="UTF-8"?>
<svg id="Capa_2" data-name="Capa 2" xmlns="http://www.w3.org/2000/svg" viewBox="0 0 4.79 5.01">
  <defs>
    <style>
      .cls-1 {
        stroke-width: .01px;
      }

      .cls-1, .cls-2, .cls-3, .cls-4 {
        fill: none;
        stroke: #fff;
        stroke-miterlimit: 10;
      }

      .cls-5 {
        fill: #39b54a;
      }

      .cls-5, .cls-6 {
        stroke-width: 0px;
      }

      .cls-2 {
        stroke-width: 0px;
      }

      .cls-6 {
        fill: #fff;
      }

      .cls-3 {
        stroke-width: 0px;
      }

      .cls-4 {
        stroke-width: .06px;
      }
    </style>
  </defs>
  <g id="Capa_1-2" data-name="Capa 1">
    <path class="cls-1" d="M4.78,1.27s0-.02-.01-.02l-1.18-.62h0s0,0,0,0L2.41,0s-.02,0-.03,0l-1.18.62h0S.02,1.25.02,1.25c0,0-.02.01-.02.02v2.48h0s0,.02.01.02l1.18.62h0s0,0,0,0l1.18.62s.02,0,.03,0l1.18-.62h0s1.18-.62,1.18-.62c0,0,.02-.01.02-.02V1.27h0ZM4.73,2.51v1.22l-1.17.61h0s-1.17.61-1.17.61l-1.17-.61h0S.06,3.73.06,3.73V1.28l1.17-.61h0S2.4.06,2.4.06l1.17.61h0s1.17.61,1.17.61v1.22Z"/>
    <path class="cls-4" d="M3.45.85h0s-.69-.36-.69-.36h0s0,0,0,0l-.35-.18s0,0,0,0c0,0,0,0-.01,0,0,0,0,0,0,0,0,0,0,0,0,0,0,0,0,0-.01,0,0,0,0,0,0,0l-.35.18h0l-.69.36h0S.31,1.39.31,1.39c0,0-.02.01-.02.02v2.18h0s0,.02.01.02l1.04.54,1.04.54s.02,0,.03,0l1.04-.54,1.04-.54s.02-.01.02-.02V1.42h0s0-.02-.01-.02l-1.04-.54h0Z"/>
    <path class="cls-2" d="M4.5,2.21s-.03-.05-.07-.05-.07.02-.07.05v.32s0,0,0,0c0,0,0,0,0,0,0,0,0,0,0,0,0,0,0,0,0,0,0,0,0,0-.01,0l-.23-.03s-.01,0-.02,0c0,0,0,0,0,0-.01,0-.03,0-.04.01l-.48.35h-.14s-.04,0-.05.02l-.42.31h-.31s-.05.01-.06.03l-.07.11-.22-.21s-.05-.02-.08-.02l-.39.1-.12-.25s0,0-.01-.01c0,0-.02-.01-.03-.02,0,0,0,0,0,0-.02,0-.03,0-.05,0l-.33.11s-.05.04-.04.06c0,0,0,0,0,0,.02.03.06.04.09.03l.27-.09.12.25s.04.03.07.03c0,0,.01,0,.02,0l.41-.1.23.22-.06.09-.12.19H.43v-.96l.24.04.3.57s0,0,0,0c0,0,0,0,0,0,0,0,0,0,0,0,0,0,0,0,0,0,0,0,0,0,.01,0,0,0,0,0,0,0,0,0,0,0,0,0,0,0,0,0,0,0,0,0,0,0,0,0,0,0,0,0,0,0,0,0,0,0,0,0,0,0,0,0,0,0,0,0,0,0,0,0,0,0,0,0,0,0h0s0,0,0,0h0s0,0,0,0c0,0,0,0,0,0,0,0,0,0,0,0,0,0,0,0,0,0,0,0,0,0,0,0,0,0,0,0,0,0,0,0,0,0,0,0,0,0,0,0,0,0,0,0,0,0,0,0,0,0,0,0,0,0,0,0,0,0,.01,0,0,0,0,0,0,0,0,0,0,0,0,0,0,0,0,0,0,0,0,0,0,0,0,0,0,0,0,0,0,0l.07-.07s.02-.05-.01-.07c-.03-.02-.07-.01-.09,0l-.27-.51s-.03-.03-.05-.03l-.3-.05v-.68l.22.12s.03.01.04.01h.41l.18.46s.03.03.06.04l.33.03s.01.01.02.02c.07.08.14.15.18.19,0,0,.02.02.02.02.02.03.06.04.15.05.04,0,.1.01.17.02.01,0,.02,0,.03,0,.11.01.22.02.27.02l.19.14s.07.02.1,0c.03-.02.03-.05,0-.07l-.03-.02h0l-.17-.13s-.03-.01-.04-.01c-.2-.02-.43-.04-.52-.05,0,0,0,0,0,0,0,0-.01,0-.02,0-.03-.03-.08-.1-.23-.25-.01-.01-.03-.02-.05-.02h-.15s0-.01,0-.01l-.17-.02-.18-.47s-.04-.04-.07-.04h-.44l-.31-.17s-.05-.01-.07,0c-.02,0-.04.03-.04.05"/>
    <path class="cls-6" d="M2.42,3.7l.27-.42h.3s0,0,0,0h0s0,0,0,0c0,0,0,0,0,0h0s0,0,0,0c0,0,0,0,0,0h0s0,0,0,0c0,0,0,0,0,0h0s0,0,0,0c0,0,0,0,0,0,0,0,0,0,0,0,0,0,0,0,0,0,0,0,0,0,0,0,0,0,0,0,0,0,0,0,0,0,0,0,0,0,0,0,0,0h0s0,0,0,0c0,0,0,0,0,0l.42-.31h.14s.04,0,.05-.02l.47-.35.17.02.08.07v1.02h-1.94Z"/>
    <path class="cls-6" d="M4.48,2.01s-.04-.02-.06-.01c0,0,0,0-.01,0,0,0,0,0-.01,0,0,0,0,0-.01,0,0,0,0,0,0,0,0,0,0,0,0,0,0,0,0,0,0,0s0,0,0,.01,0,0,0,0c0,0,0,0,0,0,0,0,0,0,0,0,0,0,0,0,0,0,.01,0,.03.02.05.02,0,0,0,0,.01,0,0,0,0,0,.01,0,0,0,0,0,.01,0"/>
    <path class="cls-6" d="M4.5,1.44s-.01-.04-.04-.04l-.18-.07s-.05,0-.08,0l-.31.18h-.14s-.04,0-.05.02l-.21.17h-.45s-.03,0-.04,0l-.36.18-.34-.03s-.05,0-.06.02l-.44.44s-.02.06.02.07c.01,0,.03,0,.04,0,.02,0,.04,0,.06-.02l.41-.42.32.03s.03,0,.05,0l.36-.18h.46s.04,0,.05-.02l.21-.17h.13s.03,0,.04-.01l.29-.17.1.04v.39s.03.05.07.05.07-.02.07-.05"/>
    <path class="cls-5" d="M2.63,2.59v.42h.36v-.22s.01-.09.04-.12l.23-.26c.06-.06.08-.15.08-.23v-.69c0-.06-.04-.1-.09-.1s-.09.05-.09.1v.42s.03.02.05.04c.03.03.04.07.04.12s-.01.09-.04.12l-.27.3s-.03.01-.04,0c-.01-.01-.01-.03,0-.05l.27-.3s.03-.1,0-.14c-.03-.04-.09-.04-.13,0l-.33.37c-.05.06-.08.14-.08.22h0ZM2.03,2.59c0-.08-.03-.16-.08-.22l-.33-.37s-.09-.04-.13,0c-.03.04-.03.1,0,.14l.27.3s.01.03,0,.05c-.01.01-.03.01-.04,0l-.27-.3s-.04-.07-.04-.12.02-.09.04-.12c.01-.02.03-.03.05-.04v-.42c0-.06-.04-.1-.09-.1s-.09.05-.09.1v.69c0,.08.03.17.08.23l.23.26s.04.08.04.12v.22h.36v-.42h0ZM2.28,1.03c.06-.06.12-.11.2-.15,0,.04,0,.08,0,.12-.04.03-.08.07-.12.11-.02-.03-.05-.06-.07-.09ZM2.88,1.7c-.06,0-.12.04-.16.11-.06.09-.13.13-.2.14.14-.1.2-.29.15-.47-.04-.14-.13-.3-.11-.45-.05.03-.24.18-.31.44-.05.18-.05.33-.05.33,0,0-.07-.19.01-.43.04-.11.1-.2.11-.21-.05-.07-.12-.14-.19-.19.01.18-.06.31-.12.47-.07.2,0,.4.14.5-.07-.02-.14-.06-.2-.15-.04-.07-.1-.12-.16-.11-.04,0-.07.04-.09.07.01-.01.03-.02.04-.02.07,0,.11.05.17.17.08.14.19.16.28.15.02.05.05.08.09.1v.17h.1v-.17s.07-.05.09-.1c.09,0,.21-.01.28-.15.07-.12.11-.18.17-.17.02,0,.03.01.04.02-.02-.04-.05-.07-.09-.07Z"/>
    <path class="cls-3" d="M.67,3.77c.13.04.23,0,.35-.04.06-.02.14-.03.21-.03s.15.01.21.03c.06.02.13.03.2.03s.14-.01.2-.03c.06-.02.14-.03.21-.03s.15.01.21.03c.06.02.13.03.2.03s.14-.01.2-.03c.06-.02.14-.03.21-.03s.15.01.21.03c.06.02.13.03.2.03s.14-.01.2-.03c.06-.02.14-.03.21-.03s.15.01.21.03c.06.02.13.03.2.03M3.85,3.92c-.06-.02-.06,0-.13,0s-.15.01-.21.03c-.06.02-.13.03-.2.03s-.14-.01-.2-.03c-.06-.02-.14-.03-.21-.03s-.15.01-.21.03c-.06.02-.13.03-.2.03s-.14-.01-.2-.03c-.06-.02-.14-.03-.21-.03s-.15.01-.21.03c-.06.02-.13.03-.2.03s-.14-.01-.2-.03c-.06-.02-.14-.03-.21-.03s-.17.02-.23.04c-.19-.06-.13-.08-.25-.13M3.21,4.25l.39-.2c-.05-.01,0,0-.05-.01-.05-.02-.1-.03-.16-.03s-.11.01-.16.03c-.05.02-.1.03-.16.03s-.11-.01-.16-.03c-.05-.02-.1-.03-.16-.03s-.11.01-.16.03c-.05.02-.1.03-.16.03s-.11-.01-.16-.03c-.05-.02-.1-.03-.16-.03s-.11.01-.16.03c-.05.02-.1.03-.16.03s-.11-.01-.16-.03c-.05-.02-.1-.03-.16-.03s-.11.01-.16.03l-.12.02.3.15M1.5,4.21c.06,0,.1.01.15.03.05.02.1.03.16.03s.11-.01.16-.03c.05-.02.1-.03.16-.03s.11.01.16.03c.05.02.1.03.16.03s.11-.01.16-.03c.05-.02.1-.03.16-.03s.11.01.16.03c.05.02.1.03.16.03s.09,0,.14-.03"/>
  </g>
</svg>