<?xml version="1.0" encoding="UTF-8"?>
<svg id="Capa_2" data-name="Capa 2" xmlns="http://www.w3.org/2000/svg" viewBox="0 0 28.57 29.89">
  <defs>
    <style>
      .cls-1 {
        stroke-width: .07px;
      }

      .cls-1, .cls-2, .cls-3, .cls-4 {
        fill: none;
        stroke: #fff;
        stroke-miterlimit: 10;
      }

      .cls-2 {
        stroke-width: .35px;
      }

      .cls-5 {
        fill: #39b54a;
      }

      .cls-5, .cls-6 {
        stroke-width: 0px;
      }

      .cls-3 {
        stroke-width: .03px;
      }

      .cls-6 {
        fill: #fff;
      }

      .cls-4 {
        stroke-width: .02px;
      }
    </style>
  </defs>
  <g id="Capa_1-2" data-name="Capa 1">
    <path class="cls-1" d="M28.53,7.56c0-.05-.03-.1-.08-.13l-7.04-3.69h0s0,0,0,0L14.37.05c-.05-.03-.11-.03-.16,0l-7.03,3.69h0S.13,7.43.13,7.43c-.06.02-.09.08-.09.13v14.76h0c0,.05.03.1.08.13l7.04,3.69h0s0,0,0,0l7.04,3.69c.05.03.11.03.16,0l7.03-3.69h0s7.03-3.69,7.03-3.69c.06-.02.09-.08.09-.13V7.56h0ZM28.21,14.94v7.29l-6.96,3.65h0s-6.95,3.65-6.95,3.65l-6.96-3.65h0S.36,22.24.36,22.24V7.65l6.96-3.65h0S14.28.35,14.28.35l6.96,3.65h0s6.96,3.65,6.96,3.65v7.29Z"/>
    <path class="cls-2" d="M20.56,5.07h0s-4.11-2.15-4.11-2.15h0s0,0,0,0l-2.08-1.09s0,0,0,0c-.02-.01-.05-.02-.07-.02,0,0,0,0,0,0,0,0,0,0,0,0-.03,0-.05,0-.08.02,0,0,0,0,0,0l-2.09,1.1h0l-4.11,2.15h0s-6.18,3.24-6.18,3.24c-.06.02-.1.08-.1.14v12.99h0c0,.05.03.1.08.13l6.2,3.25,6.2,3.25c.05.03.11.03.16,0l6.2-3.25,6.18-3.24c.06-.02.1-.08.1-.14v-12.99h0c0-.05-.03-.1-.08-.13l-6.2-3.25h0Z"/>
    <path class="cls-3" d="M26.84,13.17c0-.17-.19-.31-.41-.31s-.41.14-.41.31v1.88s-.02,0-.02-.01c0,0,0,0,0,0-.02,0-.04-.01-.06-.02,0,0,0,0-.01,0-.02,0-.04-.01-.06-.01l-1.35-.2s-.07,0-.1,0c-.02,0-.03,0-.05,0-.08.01-.16.04-.22.09l-2.85,2.11h-.84c-.11,0-.22.03-.29.09l-2.52,1.87h-1.85c-.16,0-.3.07-.37.17l-.41.64-1.31-1.23c-.11-.1-.29-.14-.46-.1l-2.33.58-.72-1.5s-.03-.06-.06-.08c-.04-.04-.1-.07-.16-.1-.01,0-.02,0-.03,0-.1-.02-.2-.02-.3,0l-1.99.64c-.2.06-.29.23-.23.37,0,.01,0,.02.01.03.09.16.33.23.54.16l1.59-.51.71,1.47c.06.13.23.21.4.2.04,0,.08,0,.12-.02l2.44-.61,1.38,1.29-.35.54-.72,1.12H2.54v-5.71l1.41.24,1.78,3.43s.01.02.02.03c0,0,0,0,0,0,0,0,.01.02.02.02,0,0,0,0,0,0,.02.02.04.04.07.05,0,0,0,0,0,0,.01,0,.02.01.03.02,0,0,0,0,0,0,.01,0,.03.01.04.02,0,0,0,0,0,0,.01,0,.03,0,.04.01,0,0,0,0,.01,0,.02,0,.03,0,.05,0,0,0,0,0,0,0h0s.04,0,.05,0h0s0,0,0,0c.01,0,.02,0,.03,0,0,0,0,0,.01,0,.01,0,.02,0,.03,0,0,0,.01,0,.01,0,0,0,.02,0,.03,0,0,0,.01,0,.02,0,0,0,0,0,0,0,0,0,.02,0,.02,0,0,0,0,0,.01,0,.03-.01.05-.02.08-.04,0,0,0,0,0,0,0,0,.02-.01.03-.02,0,0,0,0,0,0,0,0,.01-.01.02-.02,0,0,0,0,0,0l.42-.41c.14-.14.1-.33-.08-.43-.17-.1-.41-.08-.55.03l-1.59-3.07c-.05-.1-.16-.17-.29-.19l-1.82-.31v-4.05l1.29.71c.07.04.16.06.25.06h2.45l1.09,2.76c.05.12.18.2.34.22l1.95.19s.07.08.11.12c.43.46.86.92,1.07,1.16.05.06.09.1.11.13.1.2.38.23.88.29.26.03.6.07,1.03.11.06,0,.12.01.19.02.65.06,1.31.11,1.6.14l1.11.82c.16.12.42.12.59,0,.16-.12.16-.31,0-.43l-.18-.13h0l-1.04-.77c-.07-.05-.15-.08-.25-.09-1.21-.09-2.54-.22-3.1-.29-.02,0-.04,0-.06,0-.03,0-.07,0-.09-.01-.15-.18-.51-.58-1.39-1.51-.07-.07-.17-.12-.28-.13l-.87-.08h0l-1-.1-1.1-2.79c-.05-.13-.21-.22-.4-.22h-2.63l-1.84-1.01c-.13-.07-.29-.08-.43-.03-.14.05-.23.16-.23.27"/>
    <path class="cls-6" d="M14.45,22.05l1.6-2.48h1.76s.03,0,.04,0h0s.01,0,.02,0c0,0,.01,0,.02,0h0s.01,0,.02,0c0,0,.01,0,.02,0h0s.01,0,.02,0c0,0,.01,0,.02,0h0s.01,0,.02,0c0,0,.01,0,.02,0,0,0,0,0,0,0,0,0,.01,0,.02,0,0,0,.01,0,.02,0,0,0,0,0,0,0,0,0,.01,0,.02,0,0,0,.01,0,.01,0h0s.02-.01.03-.02c0,0,0,0,0,0l2.52-1.87h.84c.11,0,.22-.03.29-.09l2.81-2.08.99.14.46.41v6.06h-11.57Z"/>
    <path class="cls-6" d="M26.72,11.97c-.1-.07-.24-.1-.37-.08-.03,0-.05.01-.08.02-.02,0-.05.02-.07.03-.02.01-.04.02-.06.04-.02.01-.04.03-.05.05-.01.02-.03.03-.04.05-.01.02-.02.04-.02.06s0,.04,0,.06,0,.04,0,.06c0,.02.01.04.02.06.01.02.02.04.04.05.02.02.03.03.05.05.08.06.18.09.29.09.03,0,.05,0,.08,0,.03,0,.05-.01.08-.02.02,0,.05-.02.07-.03"/>
    <path class="cls-6" d="M26.84,8.6c0-.11-.08-.21-.21-.27l-1.06-.44c-.14-.06-.32-.05-.45.02l-1.84,1.04h-.81c-.11,0-.22.04-.3.1l-1.28,1.01h-2.67c-.08,0-.16.02-.23.05l-2.14,1.08-2.01-.17c-.15-.01-.29.04-.38.12l-2.6,2.64c-.13.14-.09.33.09.43.07.04.16.06.24.06.13,0,.25-.04.33-.13l2.45-2.5,1.92.16c.1,0,.2,0,.28-.05l2.16-1.09h2.73c.11,0,.22-.04.3-.1l1.28-1.01h.77c.09,0,.18-.02.25-.06l1.73-.99.61.25v2.3c0,.17.19.31.41.31s.41-.14.41-.31"/>
    <path class="cls-5" d="M15.69,15.46v2.48h2.13v-1.28c0-.25.09-.51.26-.7l1.37-1.54c.33-.38.5-.91.49-1.4v-4.11c0-.33-.24-.6-.54-.6s-.53.27-.53.6v2.52c.1.05.2.12.27.21.16.18.26.44.26.7s-.09.52-.26.7l-1.58,1.78c-.07.08-.18.08-.25,0-.07-.08-.07-.2,0-.27l1.59-1.79c.21-.23.21-.61,0-.85-.21-.23-.55-.23-.75,0l-1.97,2.22c-.32.37-.49.85-.49,1.33h0ZM12.11,15.46c0-.48-.16-.96-.49-1.33l-1.97-2.22c-.21-.23-.55-.23-.75,0-.21.23-.21.61,0,.85l1.59,1.79c.07.07.07.19,0,.27-.07.08-.18.08-.25,0l-1.58-1.78c-.17-.18-.26-.44-.26-.7s.1-.52.26-.7c.07-.09.17-.16.27-.21v-2.52c0-.33-.24-.6-.53-.6s-.54.27-.54.6v4.11c0,.49.16,1.02.49,1.4l1.37,1.54c.17.19.26.45.26.7v1.28h2.13v-2.48h0ZM13.62,6.14c.33-.37.73-.68,1.17-.89-.03.25-.04.5-.01.74-.26.2-.5.43-.71.68-.14-.19-.29-.37-.45-.53ZM17.17,10.15c-.38-.05-.71.22-.97.64-.35.51-.8.76-1.21.86.82-.58,1.21-1.75.9-2.8-.24-.81-.78-1.79-.67-2.67-.29.19-1.43,1.08-1.85,2.61-.3,1.07-.3,2-.3,2,0,0-.4-1.12.07-2.56.24-.63.62-1.18.65-1.22-.31-.44-.69-.81-1.13-1.11.07,1.09-.39,1.84-.71,2.81-.4,1.19.06,2.41.84,2.95-.42-.1-.86-.34-1.19-.87-.26-.42-.59-.69-.97-.64-.24.03-.42.22-.52.44.08-.06.16-.12.26-.12.4-.03.63.27,1.04,1.02.45.81,1.11.94,1.65.92.11.27.29.48.51.59v1.01h.6v-1.01c.22-.1.4-.32.52-.59.56.03,1.23-.08,1.69-.91.41-.74.65-1.04,1.04-1.02.1,0,.19.06.26.12-.1-.22-.28-.41-.52-.44Z"/>
    <path class="cls-4" d="M4.02,22.51c.76.24,1.36,0,2.11-.23.38-.12.81-.19,1.25-.19s.87.07,1.25.19c.37.11.79.18,1.22.18s.85-.07,1.22-.18c.38-.12.81-.19,1.25-.19s.87.07,1.25.19c.37.11.78.18,1.22.18s.85-.07,1.22-.18c.38-.12.81-.19,1.26-.19s.87.07,1.25.19c.37.11.79.18,1.22.18s.85-.07,1.22-.18c.38-.12.81-.19,1.25-.19s.87.07,1.26.19c.37.11.78.18,1.21.18M22.97,23.36c-.38-.12-.33-.02-.78-.02s-.87.07-1.25.19c-.37.11-.78.18-1.22.18s-.85-.07-1.22-.18c-.38-.12-.81-.19-1.25-.19s-.87.07-1.26.19c-.37.11-.78.18-1.22.18s-.85-.07-1.22-.18c-.38-.12-.81-.19-1.25-.19s-.88.07-1.25.19c-.37.11-.78.18-1.22.18s-.85-.07-1.22-.18c-.38-.12-.81-.19-1.25-.19s-1.01.11-1.39.23c-1.13-.38-.77-.49-1.48-.77M19.16,25.33l2.32-1.2c-.31-.08,0-.02-.3-.06-.29-.12-.62-.19-.96-.19s-.67.07-.96.19c-.29.11-.6.18-.93.18s-.65-.07-.94-.18c-.29-.12-.62-.19-.96-.19s-.67.07-.96.19c-.28.11-.6.18-.93.18s-.65-.07-.93-.18c-.29-.12-.62-.19-.96-.19s-.67.07-.96.19c-.28.11-.6.18-.93.18s-.65-.07-.94-.18c-.29-.12-.62-.19-.96-.19s-.67.07-.96.19l-.71.13,1.76.92M8.95,25.12c.34,0,.58.08.87.2.29.11.6.18.94.18s.65-.07.93-.18c.29-.12.62-.19.96-.19s.67.07.96.19c.28.11.6.18.93.18s.65-.07.93-.18c.29-.12.62-.19.96-.19s.67.07.96.19c.29.11.6.18.94.18s.54-.05.83-.17"/>
  </g>
</svg>