<?xml version="1.0" encoding="UTF-8"?>
<svg id="Capa_2" data-name="Capa 2" xmlns="http://www.w3.org/2000/svg" viewBox="0 0 405.5 424.21">
  <defs>
    <style>
      .cls-1 {
        stroke-width: .32px;
      }

      .cls-1, .cls-2, .cls-3, .cls-4 {
        fill: none;
        stroke: #fff;
        stroke-miterlimit: 10;
      }

      .cls-2 {
        stroke-width: .46px;
      }

      .cls-5 {
        fill: #39b54a;
      }

      .cls-5, .cls-6 {
        stroke-width: 0px;
      }

      .cls-4 {
        stroke-width: 5px;
      }

      .cls-6 {
        fill: #fff;
      }
    </style>
  </defs>
  <g id="Capa_1-2" data-name="Capa 1">
    <path class="cls-3" d="M404.99,107.36c0-.75-.44-1.44-1.16-1.82l-99.96-52.38h0s0,0,0,0L203.9.78c-.71-.37-1.59-.37-2.31,0l-99.84,52.31-.13.06L1.82,105.45c-.81.35-1.32,1.09-1.32,1.91v209.5h0c0,.75.44,1.44,1.16,1.82l99.96,52.38h0s0,0,0,0l99.96,52.38c.71.37,1.59.37,2.31,0l99.84-52.31.13-.06,99.8-52.3c.81-.35,1.32-1.09,1.32-1.91V107.36h0ZM400.35,212.11v103.54l-98.8,51.77-.11.06-98.68,51.71-98.8-51.77h0S5.15,315.64,5.15,315.64V108.57l98.8-51.77.11-.06L202.75,5.03l98.8,51.77h0s98.8,51.77,98.8,51.77v103.54Z"/>
    <path class="cls-4" d="M291.87,72.03h0s-58.27-30.53-58.27-30.53h0s0,0,0,0l-29.55-15.48s-.08-.02-.12-.04c-.3-.17-.64-.27-1-.29-.03,0-.06-.02-.1-.02-.02,0-.05-.01-.07-.01-.38,0-.75.1-1.07.27-.03.01-.06,0-.09.02l-29.68,15.55h0l-58.27,30.53h0S25.88,118.01,25.88,118.01c-.83.34-1.37,1.09-1.37,1.92v184.35h.01c0,.75.44,1.45,1.16,1.82l87.96,46.09,87.96,46.09c.71.37,1.59.37,2.31,0l87.96-46.09,87.76-45.98c.83-.34,1.37-1.09,1.37-1.92V119.94h0c0-.75-.44-1.44-1.16-1.82l-87.96-46.09h0Z"/>
    <path class="cls-2" d="M381,186.97c0-2.41-2.63-4.36-5.87-4.36s-5.87,1.95-5.87,4.36v26.7c-.1-.06-.22-.11-.33-.16-.04-.02-.08-.04-.13-.06-.25-.11-.51-.2-.79-.28-.06-.02-.12-.03-.18-.05-.29-.07-.57-.14-.86-.19l-19.18-2.78c-.48-.07-.97-.09-1.44-.07-.23.01-.48.03-.7.06-1.17.16-2.27.57-3.13,1.21l-40.38,29.94h-11.93c-1.56,0-3.05.46-4.15,1.28l-35.78,26.53h-26.28c-2.27,0-4.32.96-5.3,2.48l-5.82,9.03-18.56-17.42c-1.54-1.44-4.14-2.02-6.49-1.43l-33.1,8.27-10.27-21.24c-.2-.42-.5-.82-.86-1.17-.6-.58-1.4-1.06-2.33-1.36-.16-.05-.32-.09-.48-.13-1.37-.34-2.85-.3-4.19.13l-28.28,9.05c-2.79.9-4.17,3.2-3.27,5.31.06.14.13.28.21.42,1.28,2.21,4.74,3.23,7.72,2.27l22.53-7.21,10.1,20.9c.88,1.82,3.21,2.93,5.69,2.88.57-.01,1.15-.09,1.72-.22l34.64-8.66,19.57,18.37-4.96,7.7-10.27,15.94H36.08v-81.08l20.07,3.47,25.24,48.66c.08.17.19.33.3.49.03.04.06.08.09.12.09.12.19.24.3.35.03.03.06.07.09.1.29.29.62.54.98.76.04.02.08.05.13.07.15.09.31.17.47.24.04.02.09.04.13.06.2.09.41.17.63.24.03,0,.05.01.07.02.19.06.39.11.6.16.05.01.11.02.16.03.22.04.44.08.65.11,0,0,.03,0,.03,0h0c.25.02.51.04.77.04h.05s.07,0,.1,0c.16,0,.32,0,.48-.02.07,0,.13-.01.19-.02.14-.01.29-.03.44-.06.07-.01.14-.02.21-.04.13-.02.26-.06.39-.09.08-.02.15-.04.23-.06.03,0,.04-.01.07-.02.12-.03.22-.07.33-.11.06-.02.13-.04.18-.06.39-.14.75-.32,1.07-.52.03-.02.08-.05.11-.07.13-.08.24-.16.36-.25.04-.03.08-.07.13-.11.1-.08.2-.17.29-.26.03-.02.05-.04.08-.06l6.01-5.85c1.96-1.92,1.47-4.65-1.12-6.1-2.42-1.37-5.82-1.13-7.85.49l-22.58-43.55c-.7-1.35-2.25-2.35-4.15-2.68l-25.77-4.46v-57.48l18.36,10.1c1.02.55,2.24.86,3.5.86h34.81l15.48,39.22c.65,1.66,2.57,2.87,4.88,3.09l27.65,2.69c.52.55,1.03,1.1,1.55,1.64,6.17,6.53,12.27,13.12,15.16,16.42.75.85,1.28,1.48,1.54,1.84,1.37,2.83,5.43,3.31,12.52,4.16,3.68.44,8.59.95,14.6,1.51.86.08,1.75.16,2.64.24,9.29.85,18.63,1.61,22.67,1.94l15.78,11.62c2.3,1.69,6.02,1.69,8.31-.02,2.29-1.71,2.27-4.46-.03-6.16l-2.51-1.85h0l-14.74-10.86c-.95-.7-2.2-1.14-3.52-1.24-17.11-1.33-36.06-3.06-44.05-4.13-.28-.04-.54-.07-.79-.11-.5-.07-.94-.14-1.33-.2-2.12-2.6-7.19-8.25-19.69-21.39-.95-1-2.41-1.65-4.04-1.81l-12.29-1.19h0l-14.12-1.38-15.63-39.62c-.73-1.85-3.03-3.13-5.64-3.13h-37.28l-26.18-14.39c-1.78-.98-4.15-1.13-6.14-.39-1.98.74-3.23,2.25-3.23,3.89"/>
    <path class="cls-6" d="M205.04,313.01l22.68-35.18h25.01c.19,0,.39,0,.57-.02h.02c.08,0,.17-.02.25-.02.1-.01.2-.02.3-.03h.02c.1-.01.19-.04.29-.05.08-.02.18-.03.26-.05h0c.09-.02.18-.05.28-.07.08-.02.17-.04.26-.07h0c.08-.02.17-.06.25-.09.08-.03.18-.06.26-.09,0,0,0,0,0,0,.08-.03.15-.07.23-.1.08-.04.17-.07.25-.11,0,0,0,0,.02,0,.08-.04.16-.09.24-.13.07-.04.14-.07.21-.11h0c.13-.08.24-.16.36-.25.03-.01.04-.03.07-.04l35.78-26.53h11.93c1.56,0,3.05-.46,4.15-1.28l39.89-29.58,14.06,2.03,6.58,5.86v85.95h-164.24v-.02Z"/>
    <path class="cls-6" d="M379.28,169.87c-1.37-1.01-3.39-1.48-5.3-1.19-.37.06-.75.14-1.1.25-.35.11-.7.24-1.02.4-.32.16-.62.34-.89.54-.27.2-.51.42-.73.66-.21.24-.39.49-.54.75-.15.26-.26.54-.34.82s-.12.57-.12.85.04.57.12.85c.08.28.18.55.34.82.14.27.33.52.54.75.22.24.46.46.73.67,1.09.81,2.61,1.28,4.15,1.28.39,0,.77-.03,1.15-.09.37-.06.74-.14,1.1-.25.35-.11.7-.24,1.02-.4"/>
    <path class="cls-6" d="M381,122.04c0-1.57-1.16-3.03-3.02-3.8l-15.06-6.2c-2.05-.84-4.57-.7-6.43.35l-26.05,14.83h-11.51c-1.62,0-3.17.5-4.28,1.38l-18.19,14.35h-37.96c-1.17,0-2.33.26-3.31.75l-30.34,15.3-28.47-2.41c-2.1-.18-4.17.5-5.41,1.76l-36.85,37.49c-1.91,1.94-1.33,4.67,1.28,6.09,1.04.57,2.26.83,3.46.83,1.81,0,3.6-.62,4.75-1.79l34.84-35.45,27.24,2.31c1.4.12,2.81-.14,3.97-.73l30.65-15.46h38.69c1.62,0,3.17-.5,4.28-1.38l18.19-14.35h10.96c1.29,0,2.55-.32,3.58-.9l24.58-13.99,8.67,3.57v32.61c0,2.41,2.63,4.36,5.87,4.36s5.87-1.95,5.87-4.36"/>
    <path class="cls-5" d="M222.7,219.4v35.18h30.18v-18.23c0-3.62,1.26-7.23,3.72-10l19.47-21.91c4.73-5.39,7.06-12.9,6.93-19.85v-58.27c0-4.68-3.4-8.58-7.62-8.58s-7.5,3.83-7.5,8.58v35.8c1.39.71,2.84,1.77,3.84,3.05,2.33,2.62,3.72,6.24,3.72,10s-1.26,7.37-3.72,10l-22.43,25.24c-1.01,1.13-2.58,1.13-3.59,0-1.01-1.13-1.01-2.91,0-3.9l22.56-25.38c2.96-3.33,2.96-8.72,0-12.05-2.96-3.33-7.75-3.33-10.71,0l-27.98,31.48c-4.6,5.25-6.93,12.05-6.93,18.86h.06ZM171.91,219.4c0-6.81-2.33-13.61-6.93-18.86l-27.97-31.48c-2.96-3.33-7.75-3.33-10.71,0-2.96,3.33-2.96,8.72,0,12.05l22.56,25.38c1.01.99,1.01,2.77,0,3.9-1.01,1.13-2.58,1.13-3.59,0l-22.43-25.24c-2.46-2.62-3.72-6.24-3.72-10s1.39-7.37,3.72-10c1.01-1.28,2.46-2.34,3.84-3.05v-35.8c0-4.75-3.34-8.58-7.5-8.58s-7.62,3.9-7.62,8.58v58.27c-.13,6.95,2.21,14.46,6.93,19.85l19.47,21.91c2.46,2.77,3.72,6.38,3.72,10v18.23h30.18v-35.18h.06ZM193.38,87.15c4.71-5.27,10.32-9.6,16.64-12.65-.48,3.49-.53,7.04-.16,10.53-3.69,2.82-7.07,6.04-10.14,9.63-1.96-2.68-4.08-5.19-6.34-7.51ZM243.76,144.03c-5.42-.67-10.01,3.19-13.75,9.13-4.99,7.28-11.35,10.83-17.24,12.23,11.66-8.24,17.21-24.89,12.77-39.76-3.42-11.46-11.04-25.46-9.54-37.9-4.09,2.69-20.28,15.34-26.26,37.06-4.19,15.21-4.3,28.35-4.3,28.35,0,0-5.71-15.85,1.05-36.39,3.44-8.96,8.77-16.78,9.18-17.36-4.39-6.2-9.8-11.56-16.08-15.72,1,15.49-5.47,26.14-10.12,39.88-5.7,16.89.79,34.15,11.98,41.9-5.9-1.35-12.22-4.84-16.92-12.28-3.75-5.94-8.33-9.8-13.75-9.13-3.34.41-5.93,3.09-7.35,6.22,1.08-.85,2.31-1.65,3.7-1.75,5.62-.4,8.96,3.89,14.81,14.43,6.4,11.54,15.69,13.36,23.47,13,1.58,3.88,4.16,6.88,7.27,8.35v14.3h8.58v-14.27c3.14-1.46,5.75-4.49,7.34-8.4,7.88.46,17.45-1.17,23.99-12.97,5.84-10.54,9.19-14.83,14.81-14.43,1.4.1,2.63.9,3.7,1.75-1.41-3.13-4.01-5.81-7.35-6.22Z"/>
    <path class="cls-1" d="M57,319.5c10.75,3.43,19.24.11,29.99-3.29,5.38-1.7,11.46-2.71,17.78-2.71s12.4,1,17.75,2.71c5.28,1.61,11.17,2.57,17.31,2.57s12-.96,17.25-2.57c5.35-1.7,11.43-2.71,17.78-2.71s12.36,1,17.78,2.71c5.22,1.61,11.13,2.57,17.25,2.57s12.03-.96,17.25-2.57c5.42-1.7,11.46-2.71,17.81-2.71s12.36,1,17.74,2.71c5.28,1.61,11.17,2.57,17.28,2.57s11.99-.96,17.28-2.57c5.35-1.7,11.43-2.71,17.74-2.71s12.4,1,17.81,2.71c5.22,1.61,11.1,2.57,17.21,2.57M326,331.5c-5.42-1.7-4.68-.28-11.02-.28s-12.39,1-17.74,2.71c-5.28,1.62-11.13,2.55-17.28,2.55s-12-.93-17.28-2.55c-5.38-1.7-11.43-2.71-17.74-2.71s-12.4,1-17.81,2.71c-5.22,1.62-11.13,2.55-17.25,2.55s-12.03-.93-17.25-2.55c-5.41-1.7-11.46-2.71-17.78-2.71s-12.43,1-17.78,2.71c-5.25,1.62-11.13,2.55-17.25,2.55s-12.03-.93-17.31-2.55c-5.35-1.7-11.43-2.71-17.75-2.71s-14.38,1.58-19.76,3.28c-15.99-5.42-11-7-21-11M272,359.5l33-17c-4.37-1.16.07-.3-4.22-.9-4.16-1.7-8.8-2.71-13.68-2.71s-9.52,1-13.63,2.71c-4.06,1.61-8.55,2.57-13.27,2.57s-9.21-.96-13.27-2.57c-4.13-1.7-8.78-2.71-13.63-2.71s-9.52,1-13.68,2.71c-4.01,1.61-8.55,2.57-13.24,2.57s-9.24-.96-13.25-2.57c-4.16-1.7-8.8-2.71-13.65-2.71s-9.55,1-13.65,2.71c-4.03,1.61-8.55,2.57-13.24,2.57s-9.24-.96-13.3-2.57c-4.11-1.7-8.78-2.71-13.63-2.71s-9.52,1-13.65,2.71l-10.01,1.9,25,13M127,356.5c4.85,0,8.18,1.12,12.29,2.82,4.06,1.62,8.57,2.55,13.3,2.55s9.21-.93,13.24-2.55c4.11-1.7,8.78-2.71,13.65-2.71s9.49,1,13.65,2.71c4.01,1.62,8.55,2.55,13.25,2.55s9.24-.93,13.24-2.55c4.16-1.7,8.8-2.71,13.68-2.71s9.49,1,13.63,2.71c4.06,1.62,8.58,2.55,13.27,2.55s7.73-.75,11.79-2.37"/>
  </g>
</svg>